<?xml version="1.0" encoding="UTF-8" standalone="no"?>
<svg width="38px" height="40px" viewBox="0 0 38 40" version="1.1" xmlns="http://www.w3.org/2000/svg" xmlns:xlink="http://www.w3.org/1999/xlink">
    <!-- Generator: Sketch 40.1 (33804) - http://www.bohemiancoding.com/sketch -->
    <title>Burger_tablet</title>
    <desc>Created with Sketch.</desc>
    <defs></defs>
    <g id="Tablet-768" stroke="none" stroke-width="1" fill="none" fill-rule="evenodd">
        <g id="iPad-Portrait" transform="translate(-250.000000, -486.000000)">
            <g id="How-Work" transform="translate(8.000000, 422.000000)">
                <g id="Icons" transform="translate(57.000000, 63.000000)">
                    <g id="Burger_tablet" transform="translate(185.000000, 1.000000)">
                        <path d="M25.1249485,39.6615385 L12.9011684,39.6615385 C6.07881805,39.655883 0.549622701,34.1304852 0.543963345,27.3128205 L0.543963345,26.2871795 C0.543963345,25.5479676 1.14362484,24.9487179 1.88334479,24.9487179 L36.1376403,24.9487179 C36.8773603,24.9487179 37.4770218,25.5479676 37.4770218,26.2871795 L37.4770218,27.3128205 C37.471367,34.1284853 31.9452946,39.6530566 25.1249485,39.6615385 L25.1249485,39.6615385 Z M3.22785796,27.6307692 C3.4047799,32.8434636 7.68189456,36.9793252 12.9011684,36.9846154 L25.1249485,36.9846154 C30.3402405,36.973808 34.6112167,32.8394957 34.7879954,27.6307692 L3.22785796,27.6307692 L3.22785796,27.6307692 Z" id="Shape" fill="#FA8366"></path>
                        <path d="M37.4821535,12.5230769 L37.4821535,13.5487179 C37.4821535,14.2879298 36.882492,14.8871795 36.1427721,14.8871795 L1.88334479,14.8871795 C1.14362484,14.8871795 0.543963345,14.2879298 0.543963345,13.5487179 L0.543963345,12.5230769 C0.549622701,5.70541227 6.07881805,0.180014444 12.9011684,0.174358974 L25.1249485,0.174358974 C31.9472988,0.180014444 37.4764941,5.70541227 37.4821535,12.5230769 L37.4821535,12.5230769 Z M3.23298969,12.2051282 L34.7879954,12.2051282 C34.6110735,6.9924338 30.3339588,2.85657226 25.114685,2.85128205 L12.9011684,2.85128205 C7.68189456,2.85657226 3.4047799,6.9924338 3.22785796,12.2051282 L3.22785796,12.2051282 L3.23298969,12.2051282 Z" id="Shape" fill="#FA8366"></path>
                        <rect id="Rectangle-path" fill="#FA8366" x="0.405406644" y="16.5846154" width="36.4352806" height="6.66666667" rx="3.33333333"></rect>
                        <rect id="Rectangle-path" fill="#FFB7A5" x="2.73008018" y="18.6512821" width="32.2169989" height="2.53333333" rx="1.26666667"></rect>
                    </g>
                </g>
            </g>
        </g>
    </g>
</svg>