<?xml version="1.0" encoding="UTF-8" standalone="no"?>
<svg width="50px" height="39px" viewBox="0 0 50 39" version="1.1" xmlns="http://www.w3.org/2000/svg" xmlns:xlink="http://www.w3.org/1999/xlink">
    <!-- Generator: Sketch 40.1 (33804) - http://www.bohemiancoding.com/sketch -->
    <title>Car_tablet</title>
    <desc>Created with Sketch.</desc>
    <defs></defs>
    <g id="Tablet-768" stroke="none" stroke-width="1" fill="none" fill-rule="evenodd">
        <g id="iPad-Portrait" transform="translate(-645.000000, -486.000000)">
            <g id="How-Work" transform="translate(8.000000, 422.000000)">
                <g id="Icons" transform="translate(57.000000, 63.000000)">
                    <g id="Car_tablet" transform="translate(580.000000, 1.000000)">
                        <path d="M45.7765057,32.8026316 L4.08339664,32.8026316 C2.09384195,32.7999136 0.481667201,31.1888461 0.478947368,29.2006579 L0.478947368,3.62171053 C0.481667201,1.6335223 2.09384195,0.0224548066 4.08339664,0.0197368421 L27.5468801,0.0197368421 C29.5345118,0.0224466065 31.1458931,1.63051529 31.1513294,3.61677632 C31.1526419,3.98535664 31.0070426,4.33929062 30.7466998,4.60038043 C30.486357,4.86147024 30.1326992,5.00822602 29.7638633,5.00822368 L29.7638633,5.00822368 C29.3941763,5.01085317 29.0387267,4.86593616 28.7763866,4.60562896 C28.5140465,4.34532175 28.3665126,3.9911529 28.366522,3.62171053 C28.3704817,3.40100736 28.2861912,3.18784079 28.1323325,3.02945662 C27.9784737,2.87107245 27.7677552,2.7805529 27.5468801,2.77796053 L4.09327184,2.77796053 C3.8689721,2.7752559 3.65313813,2.86344407 3.49498855,3.02241469 C3.33683896,3.18138531 3.24985757,3.39758456 3.25387954,3.62171053 L3.25387954,29.2154605 C3.25657565,29.6694297 3.62417781,30.0367794 4.07845903,30.0394737 L45.7715681,30.0394737 C46.2258493,30.0367794 46.5934515,29.6694297 46.5961476,29.2154605 L46.5961476,17.8667763 C46.598534,17.5036474 46.3613761,17.1822982 46.0135106,17.0773026 C45.2799578,16.8524828 44.8676735,16.0759766 45.0926479,15.3429276 C45.3176222,14.6098786 46.0946621,14.1978775 46.8282149,14.4226974 C48.3479293,14.8839391 49.3827451,16.2895188 49.3710798,17.8766447 L49.3710798,29.2253289 C49.3548761,31.2000412 47.7526252,32.7945935 45.7765057,32.8026316 L45.7765057,32.8026316 Z" id="Shape" fill="#FA8366"></path>
                        <path d="M46.4282691,15.7401316 C46.2172167,15.6746713 45.99749,15.6414023 45.7765057,15.6414474 L32.0746609,15.6414474 C31.4591802,15.6414474 30.868908,15.3971165 30.4336974,14.9622049 C29.9984868,14.5272932 29.7539881,13.9374264 29.7539881,13.3223684 L29.7539881,3.62171053 L37.2986435,3.62171053 C39.6174763,3.6568363 41.6792219,5.10474122 42.4979381,7.27302632 L46.4282691,15.7401316 Z" id="Shape" fill="#FFB7A5"></path>
                        <path d="M46.4282691,17.1266447 C46.2875553,17.1264803 46.1476913,17.1048496 46.0135106,17.0625 C45.9350762,17.0388212 45.8534998,17.0271754 45.7715681,17.0279605 L32.0746609,17.0279605 C30.02784,17.0252424 28.369242,15.3677835 28.366522,13.3223684 L28.366522,3.62171053 C28.3665172,2.85515818 28.9869137,2.23298143 29.7539881,2.23026316 L37.2986435,2.23026316 C40.1748935,2.25851702 42.7425495,4.03821377 43.776777,6.72039474 L47.657732,15.1085526 C47.8887229,15.5357965 47.8801082,16.0524762 47.6350024,16.471793 C47.3898966,16.8911097 46.9437628,17.1523949 46.4578947,17.1611842 L46.4332067,17.1611842 L46.4282691,17.1266447 Z M31.1217037,4.98848684 L31.1217037,13.3223684 C31.1216966,13.8354895 31.5365063,14.2522193 32.0499729,14.2549342 L44.1865979,14.2549342 L41.2240369,7.84046053 L41.1944113,7.77138158 C40.5871268,6.12945016 39.0352046,5.0270106 37.2838307,4.99342105 L31.1463918,4.99342105 L31.1217037,4.98848684 Z" id="Shape" fill="#FA8366"></path>
                        <ellipse id="Oval" fill="#FFB7A5" cx="13.6919696" cy="31.5888158" rx="6.00412371" ry="6"></ellipse>
                        <path d="M13.6919696,38.9802632 C9.60152641,38.9802632 6.28556701,35.6665812 6.28556701,31.5789474 C6.28556701,27.4913135 9.60152641,24.1776316 13.6919696,24.1776316 C17.7824128,24.1776316 21.0983722,27.4913135 21.0983722,31.5789474 C21.0983722,35.6665812 17.7824128,38.9802632 13.6919696,38.9802632 L13.6919696,38.9802632 Z M13.6919696,26.9802632 C11.14226,26.9802632 9.07531199,29.0457916 9.07531199,31.59375 C9.07531199,34.1417084 11.14226,36.2072368 13.6919696,36.2072368 C16.2416792,36.2072368 18.3086272,34.1417084 18.3086272,31.59375 C18.3086287,29.0449922 16.2424777,26.978052 13.6919696,26.9753289 L13.6919696,26.9802632 Z" id="Shape" fill="#FA8366"></path>
                        <ellipse id="Oval" fill="#FFB7A5" cx="36.1728703" cy="31.5888158" rx="6.00412371" ry="6"></ellipse>
                        <path d="M36.1679327,38.9802632 C32.0774895,38.9802632 28.7615301,35.6665812 28.7615301,31.5789474 C28.7615301,27.4913135 32.0774895,24.1776316 36.1679327,24.1776316 C40.2583759,24.1776316 43.5743353,27.4913135 43.5743353,31.5789474 C43.5743353,35.6665812 40.2583759,38.9802632 36.1679327,38.9802632 L36.1679327,38.9802632 Z M36.1679327,26.9802632 C33.6182231,26.9802632 31.5512751,29.0457916 31.5512751,31.59375 C31.5512751,34.1417084 33.6182231,36.2072368 36.1679327,36.2072368 C38.7176423,36.2072368 40.7845903,34.1417084 40.7845903,31.59375 C40.7845918,29.0449922 38.7184408,26.978052 36.1679327,26.9753289 L36.1679327,26.9802632 Z" id="Shape" fill="#FA8366"></path>
                    </g>
                </g>
            </g>
        </g>
    </g>
</svg>