<?xml version="1.0" encoding="UTF-8" standalone="no"?>
<svg width="41px" height="40px" viewBox="0 0 41 40" version="1.1" xmlns="http://www.w3.org/2000/svg" xmlns:xlink="http://www.w3.org/1999/xlink">
    <!-- Generator: Sketch 40.1 (33804) - http://www.bohemiancoding.com/sketch -->
    <title>computer icon_tablet</title>
    <desc>Created with Sketch.</desc>
    <defs>
        <polygon id="path-1" points="0.00831020583 0.000138408305 0.00831020583 39.8617301 40.8909219 39.8617301 40.8909219 0.000138408305 0.00831020583 0.000138408305"></polygon>
        <polygon id="path-3" points="0.00831020583 0.11100346 0.00831020583 10.9500346 40.8914758 10.9500346 40.8914758 0.11100346 0.00831020583 0.11100346"></polygon>
    </defs>
    <g id="Tablet-768" stroke="none" stroke-width="1" fill="none" fill-rule="evenodd">
        <g id="iPad-Portrait" transform="translate(-439.000000, -485.000000)">
            <g id="How-Work" transform="translate(8.000000, 422.000000)">
                <g id="Icons" transform="translate(57.000000, 63.000000)">
                    <g id="computer-icon_tablet" transform="translate(374.000000, 0.000000)">
                        <g id="Group-4">
                            <mask id="mask-2" fill="white">
                                <use xlink:href="#path-1"></use>
                            </mask>
                            <g id="Clip-2"></g>
                            <path d="M15.2381474,39.8617301 L25.6534669,39.8617301 L25.6534669,29.2318339 L15.2381474,29.2318339 L15.2381474,39.8617301 Z M17.4542023,37.6471972 L23.437412,37.6471972 L23.437412,31.4463668 L17.4542023,31.4463668 L17.4542023,37.6471972 Z" id="Fill-1" fill="#FA8366" mask="url(#mask-2)"></path>
                            <path d="M4.56036395,33.6495502 C2.04569567,33.6495502 0,31.6052595 0,29.0923183 L0,4.55681661 C0,2.04429066 2.04569567,0.000138408305 4.56036395,0.000138408305 L36.3311119,0.000138408305 C38.8453646,0.000138408305 40.8909218,2.04429066 40.8909218,4.55681661 L40.8909218,29.0923183 C40.8914758,31.6052595 38.8459186,33.6495502 36.3311119,33.6495502 L4.56036395,33.6495502 Z M4.56036395,2.21467128 C3.26784994,2.21467128 2.21605489,3.26519031 2.21605489,4.55681661 L2.21605489,29.0923183 C2.21605489,30.3839446 3.26784994,31.4344637 4.56036395,31.4344637 L36.3311119,31.4344637 C37.6237644,31.4344637 38.6748669,30.3839446 38.6748669,29.0923183 L38.6748669,4.55681661 C38.6748669,3.26519031 37.6237644,2.21467128 36.3311119,2.21467128 L4.56036395,2.21467128 Z" id="Fill-3" fill="#FA8366" mask="url(#mask-2)"></path>
                        </g>
                        <path d="M8.31879304,29.2204844 C6.17586797,29.2204844 4.43210978,27.4779239 4.43210978,25.3363322 L4.43210978,8.31321799 C4.43210978,6.17176471 6.17586797,4.42920415 8.31879304,4.42920415 L32.5726828,4.42920415 C34.7156078,4.42920415 36.459366,6.17176471 36.459366,8.31321799 L34.2433111,8.31321799 C34.2433111,7.39252595 33.4934536,6.64373702 32.5726828,6.64373702 L8.31879304,6.64373702 C7.39746822,6.64373702 6.64816466,7.39252595 6.64816466,8.31321799 L6.64816466,25.3363322 C6.64816466,26.256609 7.39746822,27.0059516 8.31879304,27.0059516 L32.5726828,27.0059516 C33.4934536,27.0059516 34.2433111,26.256609 34.2433111,25.3363322 L34.2433111,15.8337716 L36.459366,15.8337716 L36.459366,25.3363322 C36.459366,27.4779239 34.7156078,29.2204844 32.5726828,29.2204844 L8.31879304,29.2204844 Z" id="Fill-5" fill="#FA8366"></path>
                        <g id="Group-9" transform="translate(0.000000, 22.698962)">
                            <mask id="mask-4" fill="white">
                                <use xlink:href="#path-3"></use>
                            </mask>
                            <g id="Clip-7"></g>
                            <path d="M1.10802744,1.2182699 L1.10802744,6.3933564 C1.10802744,8.29868512 2.65372573,9.84276817 4.56036395,9.84276817 L36.3311119,9.84276817 C38.2377501,9.84276817 39.7834484,8.29868512 39.7834484,6.3933564 L39.7834484,1.2182699 L1.10802744,1.2182699 Z" id="Fill-6" fill="#FFB7A5" mask="url(#mask-4)"></path>
                            <path d="M36.3311119,10.9500346 L4.56036395,10.9500346 C2.04569567,10.9500346 0,8.90588235 0,6.3933564 L0,0.11100346 L40.8914758,0.11100346 L40.8914758,6.3933564 C40.8914758,8.90588235 38.8459186,10.9500346 36.3311119,10.9500346 L36.3311119,10.9500346 Z M2.21605489,2.32553633 L2.21605489,6.3933564 C2.21605489,7.6849827 3.26784994,8.73550173 4.56036395,8.73550173 L36.3311119,8.73550173 C37.6237644,8.73550173 38.6754209,7.6849827 38.6754209,6.3933564 L38.6754209,2.32553633 L2.21605489,2.32553633 Z" id="Fill-8" fill="#FA8366" mask="url(#mask-4)"></path>
                        </g>
                        <polygon id="Fill-10" fill="#FA8366" points="18.4512885 29.3367474 22.4403258 29.3367474 22.4403258 27.1222145 18.4512885 27.1222145"></polygon>
                        <polygon id="Fill-11" fill="#FA8366" points="11.6370582 39.8617301 29.2545561 39.8617301 29.2545561 37.6471972 11.6370582 37.6471972"></polygon>
                    </g>
                </g>
            </g>
        </g>
    </g>
</svg>