<?xml version="1.0" encoding="UTF-8" standalone="no"?>
<svg width="43px" height="20px" viewBox="0 0 43 20" version="1.1" xmlns="http://www.w3.org/2000/svg" xmlns:xlink="http://www.w3.org/1999/xlink">
    <!-- Generator: Sketch 40.1 (33804) - http://www.bohemiancoding.com/sketch -->
    <title>next icon_tablet</title>
    <desc>Created with Sketch.</desc>
    <defs>
        <polygon id="path-1" points="0.00485713712 19.9952191 41.447651 19.9952191 41.447651 0.0401593625 0.00485713712 0.0401593625"></polygon>
    </defs>
    <g id="Tablet-768" stroke="none" stroke-width="1" fill="none" fill-rule="evenodd">
        <g id="iPad-Portrait" transform="translate(-152.000000, -495.000000)">
            <g id="How-Work" transform="translate(8.000000, 422.000000)">
                <g id="Icons" transform="translate(57.000000, 63.000000)">
                    <g id="next-icon_tablet" transform="translate(87.830126, 10.000000)">
                        <mask id="mask-2" fill="white">
                            <use xlink:href="#path-1"></use>
                        </mask>
                        <g id="Clip-2"></g>
                        <polyline id="Fill-1" fill="#FFB7A5" mask="url(#mask-2)" points="28.2534809 1.12916335 40.3412761 10.0200797 28.2534809 18.910996 28.2534809 1.12916335"></polyline>
                        <path d="M29.3596939,16.7378486 L29.3596939,3.30239044 L38.4929735,10.0201594 L29.3596939,16.7378486 L29.3596939,16.7378486 Z M41.0035468,9.14772908 L28.9155896,0.256812749 C28.5800424,0.0101195219 28.1322144,-0.0290836653 27.7575672,0.155537849 C27.3833248,0.340239044 27.1468631,0.716972112 27.1468631,1.12908367 L27.1468631,12.3056574 L2.99677265,16.6580876 L5.57817912,11.109004 L11.4766864,11.109004 C12.0876333,11.109004 12.5830613,10.6215139 12.5830613,10.0200797 C12.5830613,9.41856574 12.0876333,8.9310757 11.4766864,8.9310757 L5.57817912,8.9310757 L2.99677265,3.38199203 L21.6030887,6.73521912 C22.2029452,6.84358566 22.7806207,6.45187251 22.8907158,5.86023904 C23.000649,5.2685259 22.6026066,4.70119522 22.0016168,4.59282869 L1.30567941,0.863027888 C0.900513221,0.789880478 0.486523234,0.94501992 0.233304486,1.26541833 C-0.0199952145,1.58589641 -0.071238011,2.01848606 0.100623691,2.3876494 L3.65135283,10.0200797 L0.100542738,17.6525896 C-0.0713189633,18.021753 -0.0200761667,18.4542629 0.233142582,18.7748207 C0.444994712,19.0427092 0.768641949,19.1950598 1.10629393,19.1950598 C1.17243195,19.1950598 1.23913663,19.1891633 1.30567941,19.1771315 L27.1470251,14.5198406 L27.1470251,18.910996 C27.1470251,19.3231873 27.3834057,19.7 27.7577291,19.8845418 C27.9146146,19.9619124 28.0842906,20 28.253238,20 C28.4876758,20 28.7208184,19.9266932 28.9155896,19.7834263 L41.0035468,10.8924303 C41.2829941,10.6868526 41.447651,10.363506 41.447651,10.0200797 C41.447651,9.67657371 41.283075,9.35338645 41.0035468,9.14772908 L41.0035468,9.14772908 Z" id="Fill-3" fill="#FA8366" mask="url(#mask-2)"></path>
                    </g>
                </g>
            </g>
        </g>
    </g>
</svg>