<?xml version="1.0" encoding="UTF-8" standalone="no"?>
<svg width="33px" height="40px" viewBox="0 0 33 40" version="1.1" xmlns="http://www.w3.org/2000/svg" xmlns:xlink="http://www.w3.org/1999/xlink">
    <!-- Generator: Sketch 40.1 (33804) - http://www.bohemiancoding.com/sketch -->
    <title>paper icon_tablet</title>
    <desc>Created with Sketch.</desc>
    <defs></defs>
    <g id="Tablet-768" stroke="none" stroke-width="1" fill="none" fill-rule="evenodd">
        <g id="iPad-Portrait" transform="translate(-65.000000, -485.000000)">
            <g id="How-Work" transform="translate(8.000000, 422.000000)">
                <g id="Icons" transform="translate(57.000000, 63.000000)">
                    <g id="paper-icon_tablet">
                        <path d="M24.7297789,40 L3.13406428,40 C1.4061128,40 0,38.5948529 0,36.8680882 L0,3.13191176 C0,1.40514706 1.4061128,0 3.13406428,0 L29.2905583,0 C31.0185098,0 32.424034,1.40514706 32.424034,3.13191176 L32.424034,18.5622059 L30.0694756,18.5622059 L30.0694756,3.13191176 C30.0694756,2.70220588 29.7199709,2.35294118 29.2905583,2.35294118 L3.13406428,2.35294118 C2.70406307,2.35294118 2.35455832,2.70220588 2.35455832,3.13191176 L2.35455832,36.8680882 C2.35455832,37.2977941 2.70406307,37.6470588 3.13406428,37.6470588 L23.7548446,37.6470588 L30.0694756,31.3367647 L30.0694756,18.5622059 L32.424034,18.5622059 L32.424034,32.3110294 L24.7297789,40 Z" id="Fill-1" fill="#FA8669"></path>
                        <polygon id="Fill-2" fill="#FA8366" points="6.50446735 11.8529412 25.9691595 11.8529412 25.9691595 9.5 6.50446735 9.5"></polygon>
                        <polygon id="Fill-3" fill="#FA8366" points="6.50446735 21.3529412 25.9691595 21.3529412 25.9691595 19 6.50446735 19"></polygon>
                        <polygon id="Fill-4" fill="#FA8366" points="6.50446735 30.8529412 25.9691595 30.8529412 25.9691595 28.5 6.50446735 28.5"></polygon>
                    </g>
                </g>
            </g>
        </g>
    </g>
</svg>