<?xml version="1.0" encoding="UTF-8" standalone="no"?>
<svg width="60px" height="60px" viewBox="0 0 60 60" version="1.1" xmlns="http://www.w3.org/2000/svg" xmlns:xlink="http://www.w3.org/1999/xlink">
    <!-- Generator: Sketch 40.1 (33804) - http://www.bohemiancoding.com/sketch -->
    <title>facebook</title>
    <desc>Created with Sketch.</desc>
    <defs>
        <polygon id="path-1" points="0.00875912409 59.8543066 59.7959124 59.8543066 59.7959124 0.0583941606 0.00875912409 0.0583941606"></polygon>
    </defs>
    <g id="Page-1" stroke="none" stroke-width="1" fill="none" fill-rule="evenodd">
        <g id="Sail-Delivery-1" transform="translate(-440.000000, -4484.000000)">
            <g id="Social" transform="translate(440.000000, 4484.000000)">
                <g id="facebook">
                    <path d="M42.6363504,36.0255474 C42.6124088,33.5061314 40.5627737,31.4766423 38.0435036,31.4766423 L33.8327007,31.4766423 L33.8327007,25.0909489 C33.8327007,23.3083212 35.2782482,21.8626277 37.0608759,21.8626277 L38.6040876,21.8626277 C40.8849635,21.8626277 42.7343066,20.0132847 42.7343066,17.7316788 C42.7343066,15.4506569 40.8849635,13.6008759 38.6040876,13.6008759 L34.8049635,13.6008759 C29.1941606,13.6008759 24.6458394,18.149781 24.6458394,23.760438 L24.6458394,31.4766423 L21.6543066,31.4766423 C19.1178102,31.4766423 17.0608759,33.5329927 17.0608759,36.070073 C17.0608759,38.6071533 19.1172263,40.6635036 21.6543066,40.6635036 L24.6458394,40.6635036 L24.6458394,58.1576642 L33.8327007,58.1576642 L33.8327007,40.6635036 L38.0435036,40.6635036 C40.5976642,40.6635036 42.6613139,38.579708 42.6363504,36.0255474 L42.6363504,36.0255474 Z" id="Fill-1" fill="#6DDBD8"></path>
                    <path d="M33.8327007,59.8543066 L24.6458394,59.8543066 C23.7089051,59.8543066 22.9493431,59.0945985 22.9493431,58.1576642 L22.9493431,42.36 L21.6543066,42.36 C18.1859854,42.36 15.3643796,39.5382482 15.3643796,36.070073 C15.3643796,32.6023358 18.1859854,29.7807299 21.6543066,29.7807299 L22.9493431,29.7807299 L22.9493431,23.760438 C22.9493431,17.2236496 28.2681752,11.9048175 34.8049635,11.9048175 L38.6035036,11.9048175 C41.8167883,11.9048175 44.430365,14.5189781 44.430365,17.7316788 C44.430365,20.9445255 41.8167883,23.5586861 38.6035036,23.5586861 L37.0608759,23.5586861 C36.2163504,23.5586861 35.5286131,24.2462774 35.5286131,25.0909489 L35.5286131,29.7807299 L38.0429197,29.7807299 C41.4775182,29.7807299 44.2991241,32.5748905 44.3322628,36.0090511 C44.3487591,37.7010219 43.7026277,39.2943066 42.5119708,40.4963504 C41.3218978,41.6978102 39.7343066,42.36 38.0429197,42.36 L35.5286131,42.36 L35.5286131,58.1576642 C35.5286131,59.0945985 34.769635,59.8543066 33.8327007,59.8543066 L33.8327007,59.8543066 Z M26.3417518,56.4617518 L32.1367883,56.4617518 L32.1367883,40.6635036 C32.1367883,39.7270073 32.8963504,38.9674453 33.8327007,38.9674453 L38.0435036,38.9674453 C38.8224818,38.9674453 39.5534307,38.6623358 40.1020438,38.1087591 C40.650073,37.5554745 40.9483212,36.8210219 40.940292,36.0420438 C40.9249635,34.459562 39.6254015,33.1725547 38.0435036,33.1725547 L33.8327007,33.1725547 C32.8957664,33.1725547 32.1367883,32.4129927 32.1367883,31.4766423 L32.1367883,25.0909489 C32.1367883,22.3753285 34.3459854,20.1661314 37.0608759,20.1661314 L38.6040876,20.1661314 C39.9464234,20.1661314 41.0383942,19.0741606 41.0383942,17.7316788 C41.0383942,16.3893431 39.9464234,15.2967883 38.6040876,15.2967883 L34.8049635,15.2967883 C30.1385401,15.2967883 26.3417518,19.0935766 26.3417518,23.760438 L26.3417518,31.4760584 C26.3417518,32.4129927 25.5821898,33.1725547 24.6458394,33.1725547 L21.6543066,33.1725547 C20.0570803,33.1725547 18.7573723,34.4721168 18.7573723,36.070073 C18.7573723,37.6672993 20.0570803,38.9668613 21.6543066,38.9668613 L24.6458394,38.9668613 C25.5821898,38.9668613 26.3417518,39.7265693 26.3417518,40.6635036 L26.3417518,56.4617518 Z" id="Fill-2" fill="#4DABAB"></path>
                    <g id="Group-6">
                        <mask id="mask-2" fill="white">
                            <use xlink:href="#path-1"></use>
                        </mask>
                        <g id="Clip-4"></g>
                        <path d="M50.5070073,59.8543066 L46.0960584,59.8543066 C45.1591241,59.8543066 44.400146,59.0945985 44.400146,58.1576642 C44.400146,57.2213139 45.1591241,56.4617518 46.0960584,56.4617518 L50.5070073,56.4617518 C53.7579562,56.4617518 56.4033577,53.8163504 56.4033577,50.5654015 L56.4033577,9.34729927 C56.4033577,6.09620438 53.7579562,3.45080292 50.5070073,3.45080292 L25.0353285,3.45080292 C24.0989781,3.45080292 23.3394161,2.69124088 23.3394161,1.75430657 C23.3394161,0.817956204 24.0989781,0.0583941606 25.0353285,0.0583941606 L50.5070073,0.0583941606 C55.6290511,0.0583941606 59.7959124,4.22525547 59.7959124,9.34729927 L59.7959124,50.5654015 C59.7959124,55.6874453 55.6290511,59.8543066 50.5070073,59.8543066 L50.5070073,59.8543066 Z" id="Fill-3" fill="#4DABAB" mask="url(#mask-2)"></path>
                        <path d="M33.8327007,59.8543066 L9.28890511,59.8543066 C4.16686131,59.8543066 0,55.6874453 0,50.5654015 L0,9.34729927 C0,4.22525547 4.16686131,0.0583941606 9.28890511,0.0583941606 L13.1061314,0.0583941606 C14.0424818,0.0583941606 14.8021898,0.817956204 14.8021898,1.75430657 C14.8021898,2.69124088 14.0424818,3.45080292 13.1061314,3.45080292 L9.28890511,3.45080292 C6.03781022,3.45080292 3.39240876,6.09562044 3.39240876,9.34729927 L3.39240876,50.5654015 C3.39240876,53.8163504 6.03722628,56.4617518 9.28890511,56.4617518 L33.8327007,56.4617518 C34.769635,56.4617518 35.5286131,57.2213139 35.5286131,58.1576642 C35.5286131,59.0945985 34.769635,59.8543066 33.8327007,59.8543066 L33.8327007,59.8543066 Z" id="Fill-5" fill="#4DABAB" mask="url(#mask-2)"></path>
                    </g>
                </g>
            </g>
        </g>
    </g>
</svg>