<?xml version="1.0" encoding="UTF-8" standalone="no"?>
<svg width="60px" height="60px" viewBox="0 0 60 60" version="1.1" xmlns="http://www.w3.org/2000/svg" xmlns:xlink="http://www.w3.org/1999/xlink">
    <!-- Generator: Sketch 40.1 (33804) - http://www.bohemiancoding.com/sketch -->
    <title>instagram</title>
    <desc>Created with Sketch.</desc>
    <defs>
        <polygon id="path-1" points="0.00874075709 0.0583941606 0.00874075709 59.8543066 59.6705264 59.8543066 59.6705264 0.0583941606 0.00874075709 0.0583941606"></polygon>
    </defs>
    <g id="Page-1" stroke="none" stroke-width="1" fill="none" fill-rule="evenodd">
        <g id="Sail-Delivery-1" transform="translate(-940.000000, -4785.000000)">
            <g id="Social" transform="translate(440.000000, 4785.000000)">
                <g id="instagram" transform="translate(500.000000, 0.000000)">
                    <g id="Group-4">
                        <mask id="mask-2" fill="white">
                            <use xlink:href="#path-1"></use>
                        </mask>
                        <g id="Clip-2"></g>
                        <path d="M50.4010992,59.8543066 L45.9993996,59.8543066 C45.06443,59.8543066 44.3070434,59.0945985 44.3070434,58.1576642 C44.3070434,57.2213139 45.06443,56.4617518 45.9993996,56.4617518 L50.4010992,56.4617518 C53.6452312,56.4617518 56.2850855,53.8163504 56.2850855,50.5654015 L56.2850855,9.34729927 C56.2850855,6.09620438 53.6452312,3.45080292 50.4010992,3.45080292 L24.9828319,3.45080292 C24.048445,3.45080292 23.2904757,2.69124088 23.2904757,1.75430657 C23.2904757,0.817956204 24.048445,0.0583941606 24.9828319,0.0583941606 L50.4010992,0.0583941606 C55.5118199,0.0583941606 59.6705264,4.22525547 59.6705264,9.34729927 L59.6705264,50.5654015 C59.6705264,55.6874453 55.5124026,59.8543066 50.4010992,59.8543066 L50.4010992,59.8543066 Z" id="Fill-1" fill="#FA8366" mask="url(#mask-2)"></path>
                        <path d="M33.761757,59.8543066 L9.26942722,59.8543066 C4.15812383,59.8543066 0,55.6874453 0,50.5654015 L0,9.34729927 C0,4.22525547 4.15812383,0.0583941606 9.26942722,0.0583941606 L13.0786492,0.0583941606 C14.0130361,0.0583941606 14.7711511,0.817956204 14.7711511,1.75430657 C14.7711511,2.69124088 14.0130361,3.45080292 13.0786492,3.45080292 L9.26942722,3.45080292 C6.02514954,3.45080292 3.38529522,6.09562044 3.38529522,9.34729927 L3.38529522,50.5654015 C3.38529522,53.8163504 6.02456682,56.4617518 9.26942722,56.4617518 L33.761757,56.4617518 C34.6967266,56.4617518 35.4546959,57.2213139 35.4546959,58.1576642 C35.4546959,59.0945985 34.6967266,59.8543066 33.761757,59.8543066 L33.761757,59.8543066 Z" id="Fill-3" fill="#FA8366" mask="url(#mask-2)"></path>
                    </g>
                    <path d="M41.9090167,11.9773723 L17.7615098,11.9773723 C14.5207284,11.9773723 11.8939852,14.609635 11.8939852,17.8572263 L11.8939852,42.0554745 C11.8939852,45.3030657 14.5207284,47.9353285 17.7615098,47.9353285 L41.9090167,47.9353285 C45.1492153,47.9353285 47.7765412,45.3030657 47.7765412,42.0554745 L47.7765412,17.8572263 C47.7765412,14.609635 45.149798,11.9773723 41.9090167,11.9773723 L41.9090167,11.9773723 Z M29.8352632,38.689781 C25.0221653,38.689781 21.1201457,34.779562 21.1201457,29.9563504 C21.1201457,25.1331387 25.0221653,21.2229197 29.8352632,21.2229197 C34.6483611,21.2229197 38.5503808,25.1331387 38.5503808,29.9563504 C38.5503808,34.779562 34.6483611,38.689781 29.8352632,38.689781 L29.8352632,38.689781 Z" id="Fill-5" fill="#FFB7A5"></path>
                    <path d="M41.9090167,49.6312409 L17.7615098,49.6312409 C13.5926057,49.6312409 10.2014833,46.2331387 10.2014833,42.0554745 L10.2014833,17.8572263 C10.2014833,13.679562 13.5926057,10.2807299 17.7615098,10.2807299 L41.9090167,10.2807299 C46.0779208,10.2807299 49.4688975,13.679562 49.4688975,17.8572263 L49.4688975,42.0554745 C49.4688975,46.2325547 46.077338,49.6312409 41.9090167,49.6312409 L41.9090167,49.6312409 Z M17.7615098,13.6732847 C15.4596314,13.6732847 13.5863415,15.549927 13.5863415,17.8572263 L13.5863415,42.0554745 C13.5863415,44.3620438 15.4596314,46.2394161 17.7615098,46.2394161 L41.9090167,46.2394161 C44.2107494,46.2394161 46.084185,44.3620438 46.084185,42.0554745 L46.084185,17.8572263 C46.084185,15.549927 44.2107494,13.6732847 41.9090167,13.6732847 L17.7615098,13.6732847 Z M29.8352632,40.3856934 C24.0962278,40.3856934 19.4276437,35.7072993 19.4276437,29.9563504 C19.4276437,24.2052555 24.0962278,19.5268613 29.8352632,19.5268613 C35.574153,19.5268613 40.242737,24.2052555 40.242737,29.9563504 C40.242737,35.7072993 35.574153,40.3856934 29.8352632,40.3856934 L29.8352632,40.3856934 Z M29.8352632,22.9188321 C25.9628165,22.9188321 22.8130846,26.0757664 22.8130846,29.9563504 C22.8130846,33.8369343 25.9628165,36.9932847 29.8352632,36.9932847 C33.70771,36.9932847 36.8580245,33.8369343 36.8580245,29.9563504 C36.8580245,26.0757664 33.7071272,22.9188321 29.8352632,22.9188321 L29.8352632,22.9188321 Z" id="Fill-6" fill="#FA8366"></path>
                    <path d="M42.7545392,19.270365 C42.7545392,20.5893431 41.6875842,21.6585401 40.3713718,21.6585401 C39.0551595,21.6585401 37.9882044,20.5893431 37.9882044,19.270365 C37.9882044,17.9512409 39.0551595,16.8820438 40.3713718,16.8820438 C41.6875842,16.8820438 42.7545392,17.9512409 42.7545392,19.270365 L42.7545392,19.270365 Z" id="Fill-7" fill="#FA8366"></path>
                </g>
            </g>
        </g>
    </g>
</svg>