<?xml version="1.0" encoding="UTF-8" standalone="no"?>
<svg width="40px" height="45px" viewBox="0 0 40 45" version="1.1" xmlns="http://www.w3.org/2000/svg" xmlns:xlink="http://www.w3.org/1999/xlink">
    <!-- Generator: Sketch 40.1 (33804) - http://www.bohemiancoding.com/sketch -->
    <title>Sail</title>
    <desc>Created with Sketch.</desc>
    <defs></defs>
    <g id="Page-1" stroke="none" stroke-width="1" fill="none" fill-rule="evenodd">
        <g id="Sail-Delivery-1" transform="translate(-613.000000, -4938.000000)">
            <g id="Sail" transform="translate(613.000000, 4938.000000)">
                <path d="M28.2067319,31.9388512 C28.089183,27.053917 26.6492092,12.0734522 13.5131223,1.23778008 C13.1898629,0.971329128 12.6902802,1.20817442 12.6902802,1.62265368 C12.6902802,6.18192557 11.9262125,24.9815207 0.0831631642,44.2252007 C-0.151934589,44.5804687 0.141937602,45.0541593 0.582745889,44.9949479 C4.40308437,44.462046 17.8624307,42.1528044 27.0312431,34.573755 C27.824698,33.9224305 28.2361191,32.9454437 28.2067319,31.9388512 L28.2067319,31.9388512 Z" id="Shape-Copy" fill="#4DABAB"></path>
                <path d="M39.6699397,30.0994038 C39.313305,25.222493 37.0546191,10.2349134 23.2053081,0.0945073071 C22.8486735,-0.143390782 22.3731606,0.0945073071 22.4028802,0.510828963 C22.6406366,5.09036718 22.8486735,24.0032653 11.9118785,43.897493 C11.7038416,44.2840774 12.0307567,44.7301363 12.4468304,44.6409245 C16.2806526,43.897493 29.7436094,40.8642923 38.6000358,32.7757573 C39.3727441,32.0918003 39.7293788,31.1104707 39.6699397,30.0994038 L39.6699397,30.0994038 Z" id="Shape-Copy-2" fill="#6DDBD8"></path>
            </g>
        </g>
    </g>
</svg>