<?xml version="1.0" encoding="UTF-8" standalone="no"?>
<svg width="60px" height="60px" viewBox="0 0 60 60" version="1.1" xmlns="http://www.w3.org/2000/svg" xmlns:xlink="http://www.w3.org/1999/xlink">
    <!-- Generator: Sketch 40.1 (33804) - http://www.bohemiancoding.com/sketch -->
    <title>vk</title>
    <desc>Created with Sketch.</desc>
    <defs>
        <polygon id="path-1" points="0.00875912409 0.0583941606 0.00875912409 59.8543066 59.7959124 59.8543066 59.7959124 0.0583941606 0.00875912409 0.0583941606"></polygon>
    </defs>
    <g id="Page-1" stroke="none" stroke-width="1" fill="none" fill-rule="evenodd">
        <g id="Sail-Delivery-1" transform="translate(-690.000000, -4484.000000)">
            <g id="Social" transform="translate(440.000000, 4484.000000)">
                <g id="vk" transform="translate(250.000000, 0.000000)">
                    <g id="Group-4">
                        <mask id="mask-2" fill="white">
                            <use xlink:href="#path-1"></use>
                        </mask>
                        <g id="Clip-2"></g>
                        <path d="M50.5070073,59.8543066 L46.0960584,59.8543066 C45.1591241,59.8543066 44.400146,59.0945985 44.400146,58.1576642 C44.400146,57.2213139 45.1591241,56.4617518 46.0960584,56.4617518 L50.5070073,56.4617518 C53.7579562,56.4617518 56.4033577,53.8163504 56.4033577,50.5654015 L56.4033577,9.34729927 C56.4033577,6.09620438 53.7579562,3.45080292 50.5070073,3.45080292 L25.0353285,3.45080292 C24.0989781,3.45080292 23.3394161,2.69124088 23.3394161,1.75430657 C23.3394161,0.817956204 24.0989781,0.0583941606 25.0353285,0.0583941606 L50.5070073,0.0583941606 C55.6284672,0.0583941606 59.7959124,4.22525547 59.7959124,9.34729927 L59.7959124,50.5654015 C59.7959124,55.6874453 55.6290511,59.8543066 50.5070073,59.8543066 L50.5070073,59.8543066 Z" id="Fill-1" fill="#4DABAB" mask="url(#mask-2)"></path>
                        <path d="M33.8327007,59.8543066 L9.28890511,59.8543066 C4.16686131,59.8543066 0,55.6874453 0,50.5654015 L0,9.34729927 C0,4.22525547 4.16686131,0.0583941606 9.28890511,0.0583941606 L13.1061314,0.0583941606 C14.0424818,0.0583941606 14.8021898,0.817956204 14.8021898,1.75430657 C14.8021898,2.69124088 14.0424818,3.45080292 13.1061314,3.45080292 L9.28890511,3.45080292 C6.03781022,3.45080292 3.39240876,6.09562044 3.39240876,9.34729927 L3.39240876,50.5654015 C3.39240876,53.8163504 6.03722628,56.4617518 9.28890511,56.4617518 L33.8327007,56.4617518 C34.769635,56.4617518 35.5291971,57.2213139 35.5291971,58.1582482 C35.5291971,59.0945985 34.769635,59.8543066 33.8327007,59.8543066 L33.8327007,59.8543066 Z" id="Fill-3" fill="#4DABAB" mask="url(#mask-2)"></path>
                    </g>
                    <path d="M47.8353285,41.700146 C46.4581022,41.700146 44.7735766,41.6613139 44.0540146,41.6454015 C43.8372263,41.640292 43.6963504,41.6369343 43.6576642,41.6369343 C42.5051095,41.6316788 41.5128467,41.2364964 40.7083212,40.4627737 C40.0553285,39.8343066 39.4235036,39.1471533 38.8121168,38.4827737 C38.4659854,38.1070073 38.1084672,37.7181022 37.7480292,37.3405839 C37.3842336,36.960146 37.0414599,36.6493431 36.700438,36.389927 C36.2579562,36.0524088 35.7858394,35.8738686 35.3375182,35.8738686 C34.5956204,35.8738686 33.9843796,36.340292 33.6610219,37.1535766 C33.289781,38.0915328 33.0046715,40.3817518 32.9938686,40.5232117 C32.9481752,41.1664234 32.580438,41.4970803 31.869927,41.5359124 C31.4033577,41.5610219 30.9459854,41.5741606 30.510365,41.5741606 C27.7018978,41.5741606 25.3313869,41.0357664 23.2618978,39.9272993 C21.170219,38.8067153 19.2940146,37.1655474 17.5272993,34.910073 C15.2953285,32.0611679 13.2858394,28.7588321 11.0105109,24.2024818 C10.9010219,23.9835036 9.15489051,20.2608759 8.98715328,19.8405839 C8.93985401,19.6449635 8.91372263,19.3255474 9.07956204,19.2183942 C9.20569343,19.2064234 9.58890511,19.1864234 10.7338686,19.1864234 C12.6436496,19.1864234 15.4538686,19.2440876 15.6090511,19.249781 C16.3959124,19.2919708 16.8242336,19.6016058 17.1293431,20.3537226 C18.4626277,23.6446715 20.0490511,26.420146 21.9810219,28.8381022 C22.2735766,29.2064234 22.6562044,29.5576642 23.0868613,29.8525547 C23.3890511,30.059562 23.7129927,30.1690511 24.0236496,30.1690511 C24.6156204,30.1690511 25.1032117,29.7909489 25.3278832,29.1573723 C25.5862774,28.4360584 25.7938686,27.1090511 25.8068613,26.4054015 C25.8405839,24.6785401 25.8023358,23.5524088 25.7093431,21.8239416 C25.6221898,20.2255474 24.8620438,19.2708029 23.3884672,18.9127007 C23.8366423,18.4280292 24.4474453,18.3036496 25.380292,18.2541606 C25.9027737,18.2261314 26.4741606,18.2124088 27.1270073,18.2124088 C27.7343066,18.2124088 28.3553285,18.2239416 28.9559124,18.2353285 C29.3772263,18.2432117 29.7992701,18.2506569 30.2207299,18.2551825 C30.9163504,18.2614599 31.5191241,18.3218978 32.0649635,18.4417518 C32.3962044,18.5135766 32.8524088,18.7023358 32.9875912,19.5046715 C33.0566423,19.9118248 33.0868613,20.3070073 33.0782482,20.6794161 C33.0611679,21.4440876 33.0348905,22.2218978 33.010365,22.9741606 C32.9744526,24.0559124 32.9373723,25.1741606 32.9248175,26.2776642 C32.9145985,27.1341606 32.9875912,27.9233577 33.1410219,28.6242336 C33.3445255,29.5440876 33.8960584,30.0925547 34.6173723,30.0925547 C34.9207299,30.0925547 35.3855474,29.9854015 35.8782482,29.4744526 C36.6594161,28.6629197 37.4132847,27.7192701 38.3235036,26.4144526 C39.5106569,24.7116788 40.5366423,22.7249635 41.5510949,20.1627737 C41.8915328,19.3056934 41.9788321,19.2452555 42.8855474,19.2435036 C44.0756204,19.240146 45.2651095,19.2383942 46.4553285,19.2383942 C47.4994161,19.2383942 48.5435036,19.240146 49.5877372,19.2435036 C49.9856934,19.2452555 50.3072993,19.2862774 50.570219,19.3694891 C50.749927,19.4271533 50.9055474,19.510365 50.8194161,19.8908029 C50.5018978,21.3010219 49.6864234,22.5327007 48.9478832,23.5763504 C48.049781,24.8433577 47.1054015,26.1150365 46.1918248,27.3445255 C45.7110949,27.9918248 45.230365,28.639562 44.7531387,29.289635 C44.5785401,29.5280292 44.410365,29.7943066 44.2249635,30.1268613 C43.5481752,31.3516788 43.6553285,32.2110949 44.6071533,33.1937226 C45.1128467,33.7154745 45.6386861,34.2286131 46.1467153,34.7242336 C46.8646715,35.4251095 47.6065693,36.1493431 48.2875912,36.8940146 C49.1486131,37.8372263 49.9064234,38.8232117 50.54,39.8229197 C50.8331387,40.2859854 50.9169343,40.7347445 50.769781,41.0529927 C50.6278832,41.360292 50.2635036,41.5706569 49.7439416,41.6442336 C49.5945985,41.6648175 49.1462774,41.700146 47.8353285,41.700146 L47.8353285,41.700146 Z" id="Fill-5" fill="#6DDBD8"></path>
                    <path d="M47.8353285,43.3966423 C46.4461314,43.3966423 44.7508029,43.3579562 44.0271533,43.3413139 C43.8207299,43.3367883 43.6906569,43.3334307 43.6478832,43.3334307 C42.0694891,43.3259854 40.6455474,42.7562044 39.5324088,41.6848175 C38.8389781,41.0175182 38.1905109,40.3127007 37.5637956,39.6312409 L37.5421898,39.6072993 C37.2086131,39.2452555 36.8636496,38.8705109 36.5214599,38.5124088 C36.2208759,38.1976642 35.9432117,37.9449635 35.6740146,37.740292 C35.5183942,37.6211679 35.4037956,37.5811679 35.3559124,37.5721168 C35.3318248,37.5978102 35.2856934,37.6588321 35.2372263,37.780292 C35.0074453,38.3613139 34.7388321,40.1370803 34.6846715,40.6639416 C34.5716788,42.1592701 33.5293431,43.1435036 31.9621898,43.229635 C31.4643796,43.2563504 30.9763504,43.270073 30.510365,43.270073 C27.4150365,43.270073 24.7821898,42.6655474 22.4611679,41.4224818 C20.1567883,40.1884672 18.1067153,38.400146 16.1918248,35.9559124 C13.8874453,33.0140146 11.8214599,29.6227737 9.4929927,24.959708 C9.39386861,24.7618978 7.61007299,20.9656934 7.41167883,20.4690511 C7.38248175,20.3948905 7.3579562,20.3189781 7.33912409,20.2414599 C7.09051095,19.2207299 7.40364964,18.2837956 8.15576642,17.7956204 C8.38510949,17.6467153 8.64671533,17.5554745 8.91941606,17.529927 C9.02321168,17.519562 9.34014599,17.489927 10.7338686,17.489927 C12.6893431,17.489927 15.5018978,17.5487591 15.6683212,17.5544526 C15.6791241,17.5550365 15.6894891,17.5550365 15.700292,17.5560584 C17.1413139,17.6337226 18.1512409,18.3607299 18.7010219,19.7162044 C19.9715328,22.8543066 21.4781022,25.4912409 23.3058394,27.779708 C23.4437956,27.9541606 23.6217518,28.1280292 23.820146,28.2871533 C23.9741606,27.699854 24.1018978,26.8216058 24.110365,26.3745985 C24.1429197,24.6979562 24.1058394,23.6008759 24.0151825,21.9151825 C23.9632117,20.9639416 23.6421898,20.720438 22.9875912,20.5613139 C22.4030657,20.4194161 21.9376642,19.9785401 21.7643796,19.4032117 C21.5905109,18.8277372 21.7347445,18.2033577 22.1424818,17.7620438 C23.0258394,16.8068613 24.1764964,16.620292 25.289635,16.5610219 C25.8423358,16.5308029 26.4439416,16.5164964 27.1270073,16.5164964 C27.7531387,16.5164964 28.380438,16.5278832 28.9871533,16.539854 C29.4040876,16.5472993 29.8208759,16.5553285 30.2378102,16.5592701 C31.0487591,16.5667153 31.7655474,16.6408759 32.4264234,16.7845255 C33.6284672,17.0462774 34.4435036,17.9353285 34.660146,19.2235036 C34.7468613,19.7356204 34.7849635,20.2391241 34.7735766,20.719854 C34.7564964,21.4783942 34.7313869,22.2475912 34.7062774,22.9918248 L34.7051095,23.0305109 C34.6691971,24.1128467 34.6327007,25.2169343 34.620146,26.2975182 C34.6122628,26.9875912 34.6652555,27.6164964 34.7781022,28.169781 C35.4528467,27.4534307 36.1227737,26.6043796 36.9319708,25.4445255 C38.0417518,23.8522628 39.0083212,21.9756204 39.9737226,19.5388321 C40.5708029,18.0345985 41.2773723,17.5509489 42.8814599,17.5475912 C45.1181022,17.5418978 47.3557664,17.540146 49.5922628,17.5475912 C50.1671533,17.549781 50.6540146,17.6170803 51.0829197,17.7534307 C52.1766423,18.1018978 52.7343066,19.1112409 52.4731387,20.2659854 C52.0871533,21.9789781 51.1649635,23.3789781 50.3313869,24.5566423 C49.4246715,25.8362044 48.4773723,27.1118248 47.5610219,28.3454015 C47.0740146,29.0011679 46.5950365,29.6461314 46.12,30.2932847 C45.9883212,30.4735766 45.8559124,30.6833577 45.7059854,30.9531387 C45.3757664,31.550219 45.4179562,31.5941606 45.8245255,32.0138686 C46.3150365,32.5189781 46.8310949,33.0232117 47.3306569,33.5106569 C48.069635,34.2321168 48.8275912,34.9716788 49.5392701,35.750073 C50.4675912,36.7674453 51.2859854,37.8321168 51.9725547,38.9156204 C52.579854,39.8753285 52.7024818,40.9137226 52.3094891,41.7646715 C52.0826277,42.2550365 51.4792701,43.1109489 49.9817518,43.3236496 C49.7570803,43.3544526 49.2922628,43.3966423 47.8353285,43.3966423 L47.8353285,43.3966423 Z M35.3375182,34.1773723 C36.1610219,34.1773723 36.9878832,34.4762044 37.7291971,35.0413139 C38.140438,35.3537226 38.5481752,35.7233577 38.9741606,36.1686131 C39.3379562,36.549635 39.6937226,36.9356204 40.0376642,37.309781 L40.059854,37.3343066 C40.6529927,37.9792701 41.2659854,38.6452555 41.8840876,39.2405839 C42.3705109,39.7083212 42.9532847,39.9375182 43.6649635,39.9408759 C43.7067153,39.9408759 43.8589781,39.9443796 44.0927007,39.950073 C44.8163504,39.9659854 46.4843796,40.0042336 47.8347445,40.0042336 C48.1477372,40.0042336 48.4061314,40.0018978 48.6170803,39.9991241 C48.1472993,39.3324088 47.6169343,38.6748905 47.0341606,38.0373723 C46.3891971,37.3313869 45.6665693,36.6259854 44.9680292,35.9439416 C44.4456934,35.4347445 43.9119708,34.9141606 43.3884672,34.3741606 C41.910365,32.8480292 41.6988321,31.190365 42.740146,29.3056934 C42.9636496,28.9054015 43.1671533,28.5836496 43.3845255,28.2865693 C43.8640876,27.6331387 44.3470073,26.9830657 44.830073,26.3328467 C45.7430657,25.1035036 46.6788321,23.8432117 47.5633577,22.5954745 C47.9248175,22.0845255 48.3068613,21.5245255 48.6164964,20.9366423 C46.7677372,20.9325547 44.9179562,20.9343066 43.0674453,20.9388321 C42.0226277,23.5529927 40.9551825,25.6052555 39.7143066,27.3845255 C38.7510949,28.7661314 37.9448175,29.7732847 37.099708,30.6509489 C36.1924088,31.5912409 35.2491971,31.7886131 34.6173723,31.7886131 C33.089635,31.7886131 31.860146,30.690219 31.4843796,28.989781 C31.3024818,28.1611679 31.2169343,27.2424818 31.2283212,26.2576642 C31.2408759,25.1410219 31.2785401,24.0182482 31.3144526,22.9319708 L31.3156204,22.88 C31.340146,22.1443796 31.3652555,21.3836496 31.3823358,20.6411679 C31.3868613,20.4490511 31.3760584,20.2454015 31.350365,20.0344526 C31.0075912,19.9824818 30.6294891,19.9551825 30.2046715,19.9512409 C29.7764964,19.9471533 29.349927,19.9392701 28.9233577,19.9312409 C28.2943066,19.9192701 27.6385401,19.9067153 27.0129927,19.9084672 C27.2337226,20.449635 27.3654015,21.059708 27.4018978,21.7321168 C27.4976642,23.5027737 27.5364964,24.6581022 27.5017518,26.4383942 C27.4862774,27.290365 27.250219,28.8181022 26.9240876,29.7293431 C26.4569343,31.0449635 25.3449635,31.8649635 24.0232117,31.8649635 C23.3684672,31.8649635 22.7127007,31.6528467 22.1264234,31.2508029 C21.5591241,30.8624818 21.0493431,30.3925547 20.6524088,29.8935766 C18.6194161,27.3486131 16.9519708,24.4350365 15.5564964,20.9908029 C15.549781,20.9731387 15.5435036,20.9582482 15.5372263,20.9445255 C15.5360584,20.9445255 15.5343066,20.9439416 15.5331387,20.9439416 C15.2748905,20.9372263 13.0839416,20.8932847 11.3264234,20.8840876 C11.8430657,21.9960584 12.4429197,23.2734307 12.5284672,23.4468613 C14.749635,27.8954745 16.7033577,31.1087591 18.8617518,33.8636496 C20.4807299,35.930365 22.1811679,37.4243796 24.0624818,38.4319708 C25.8788321,39.4054015 27.9875912,39.8782482 30.509781,39.8782482 C30.7870073,39.8782482 31.0743066,39.8725547 31.3680292,39.8610219 C31.4792701,39.0268613 31.7261314,37.4318248 32.0836496,36.5290511 C32.669927,35.0560584 33.8856934,34.1773723 35.3375182,34.1773723 L35.3375182,34.1773723 Z" id="Fill-6" fill="#4DABAB"></path>
                </g>
            </g>
        </g>
    </g>
</svg>