<?xml version="1.0" encoding="UTF-8" standalone="no"?>
<svg width="52px" height="40px" viewBox="0 0 52 40" version="1.1" xmlns="http://www.w3.org/2000/svg" xmlns:xlink="http://www.w3.org/1999/xlink">
    <!-- Generator: Sketch 40.1 (33804) - http://www.bohemiancoding.com/sketch -->
    <title>Home_tablet</title>
    <desc>Created with Sketch.</desc>
    <defs></defs>
    <g id="Sail-Delivery" stroke="none" stroke-width="1" fill="none" fill-rule="evenodd">
        <g id="iPad-Portrait" transform="translate(-79.000000, -1600.000000)">
            <g id="Why-us" transform="translate(0.000000, 1318.000000)">
                <g id="Home" transform="translate(16.000000, 282.000000)">
                    <g id="Home_tablet" transform="translate(63.000000, 0.000000)">
                        <rect id="Rectangle-path" fill="#FFB7A5" x="21.7796485" y="27.925" width="8.21609501" height="10.57"></rect>
                        <polygon id="Shape" fill="#FFB7A5" points="43.0045606 38.495 36.1927981 38.495 36.1927981 26.795 39.5961805 22.9 43.0045606 26.795"></polygon>
                        <polygon id="Shape" fill="#FFB7A5" points="15.5076295 38.495 8.69586698 38.495 8.69586698 26.795 12.0992494 22.9 15.5076295 26.795"></polygon>
                        <path d="M44.3739097,37.11 L44.3739097,27.315 L46.3729596,25 L48.7368361,27.705 C49.2477162,28.2435802 50.0922222,28.2832816 50.6513305,27.795003 C51.2104388,27.3067245 51.2852139,26.4641997 50.8208456,25.885 L47.4124656,21.99 C47.149592,21.6893097 46.7697493,21.5168217 46.3704608,21.5168217 C45.9711723,21.5168217 45.5913296,21.6893097 45.3284561,21.99 L42.9995629,24.67 L40.6356865,21.965 C40.3728129,21.6643097 39.9929702,21.4918217 39.5936817,21.4918217 C39.1943932,21.4918217 38.8145505,21.6643097 38.551677,21.965 L37.552152,23.09 L37.552152,20.02 L38.6166461,20.02 C39.1418997,20.0200043 39.6219121,19.7226032 39.855965,19.2521558 C40.090018,18.7817083 40.0377903,18.21926 39.7211211,17.8 L26.9721805,0.905 C26.7105453,0.558593349 26.3016831,0.35498503 25.8677055,0.35498503 C25.4337278,0.35498503 25.0248657,0.558593349 24.7632304,0.905 L12.0342803,17.82 C11.7176111,18.23926 11.6653835,18.8017083 11.8994364,19.2721558 C12.1334893,19.7426032 12.6135017,20.0400043 13.1387553,20.04 L14.2032494,20.04 L14.2032494,23.2 L13.143753,21.99 C12.8808794,21.6893097 12.5010367,21.5168217 12.1017482,21.5168217 C11.7024597,21.5168217 11.322617,21.6893097 11.0597435,21.99 L8.69586698,24.67 L6.3319905,21.965 C6.06911694,21.6643097 5.68927422,21.4918217 5.28998575,21.4918217 C4.89069728,21.4918217 4.51085455,21.6643097 4.247981,21.965 L0.83960095,25.86 C0.489684556,26.2288889 0.369988734,26.7599703 0.527807909,27.2434021 C0.685627085,27.726834 1.09557275,28.0848463 1.59566644,28.1759807 C2.09576013,28.267115 2.60555134,28.0767104 2.92361045,27.68 L5.28748694,24.975 L7.28653682,27.29 L7.28653682,37.085 L1.89409976,37.085 C1.12954885,37.0850001 0.509757953,37.7050857 0.509757953,38.47 C0.509757953,39.2349143 1.12954885,39.8549999 1.89409976,39.855 L30.0057387,39.855 C30.7702897,39.855 31.3900808,39.2349144 31.3900808,38.47 L31.3900808,27.925 C31.3900808,27.1600856 30.7702897,26.54 30.0057387,26.54 L21.7746508,26.54 C21.0100998,26.54 20.3903088,27.1600856 20.3903088,27.925 L20.3903088,37.11 L16.9619382,37.11 L16.9619382,20.04 L25.8427173,20.04 C26.6072683,20.04 27.2270594,19.4199144 27.2270594,18.655 C27.2270594,17.8900856 26.6072683,17.27 25.8427173,17.27 L15.9174347,17.27 L25.9126841,4.055 L35.9079335,17.27 L34.1987458,17.27 C33.4341948,17.27 32.8144038,17.8900856 32.8144038,18.655 C32.8144038,19.4199144 33.4341948,20.04 34.1987458,20.04 L34.8584323,20.04 L34.8584323,38.49 C34.8584323,39.2549144 35.4782233,39.875 36.2427743,39.875 L49.8662993,39.875 C50.3792756,39.893906 50.8605941,39.6272724 51.116818,39.1822564 C51.3730419,38.7372405 51.3621003,38.186912 51.0883904,37.7524422 C50.8146805,37.3179725 50.3231444,37.0706996 49.8113254,37.11 L44.3739097,37.11 Z M23.1589929,29.31 L28.6114014,29.31 L28.6114014,37.11 L23.1589929,37.11 L23.1589929,29.31 L23.1589929,29.31 L23.1589929,29.31 Z M14.1182898,37.11 L10.0752114,37.11 L10.0752114,27.315 L12.0742613,25 L14.0733112,27.315 L14.0733112,37.11 L14.0733112,37.11 L14.1182898,37.11 Z M37.5671449,27.315 L39.5661948,25 L41.5652447,27.315 L41.5652447,37.11 L37.5221663,37.11 L37.5221663,27.315 L37.5221663,27.315 L37.5671449,27.315 Z" id="Shape" fill="#FA8366"></path>
                    </g>
                </g>
            </g>
        </g>
    </g>
</svg>