<?xml version="1.0" encoding="UTF-8" standalone="no"?>
<svg width="33px" height="41px" viewBox="0 0 33 41" version="1.1" xmlns="http://www.w3.org/2000/svg" xmlns:xlink="http://www.w3.org/1999/xlink">
    <!-- Generator: Sketch 40.1 (33804) - http://www.bohemiancoding.com/sketch -->
    <title>Hot_tablet</title>
    <desc>Created with Sketch.</desc>
    <defs></defs>
    <g id="Sail-Delivery" stroke="none" stroke-width="1" fill="none" fill-rule="evenodd">
        <g id="iPad-Portrait" transform="translate(-368.000000, -1600.000000)">
            <g id="Why-us" transform="translate(0.000000, 1318.000000)">
                <g id="Hot-eat" transform="translate(295.466667, 282.588086)">
                    <g id="Hot_tablet" transform="translate(73.000000, 0.000000)">
                        <path d="M1.12946318,30.61 L1.12946318,31.3 C1.12946318,35.4062371 4.45664471,38.735 8.56093112,38.735 L16.8070119,38.735 C20.9112983,38.735 24.2384798,35.4062371 24.2384798,31.3 L24.2384798,30.61 L1.12946318,30.61 L1.12946318,30.61 Z" id="Shape" fill="#FFEEC0"></path>
                        <path d="M16.8070119,39.635 L8.56093112,39.635 C3.9593477,39.6294898 0.230400698,35.8987705 0.224893112,31.295 L0.224893112,30.605 C0.224893112,30.1051823 0.629882927,29.7 1.12946318,29.7 L24.2384798,29.7 C24.7380601,29.7 25.1430499,30.1051823 25.1430499,30.605 L25.1430499,31.295 C25.1375423,35.8987705 21.4085953,39.6294898 16.8070119,39.635 L16.8070119,39.635 Z M2.03403325,31.51 C2.15251513,35.0318712 5.03874127,37.8266061 8.56093112,37.83 L16.8070119,37.83 C20.3292017,37.8266061 23.2154279,35.0318712 23.3339097,31.51 L2.03403325,31.51 L2.03403325,31.51 Z" id="Shape" fill="#FFC61B"></path>
                        <path d="M8.4359905,11.435 C8.20822458,11.4347147 7.99646509,11.3177711 7.87483959,11.1251059 C7.7532141,10.9324406 7.73866132,10.6908862 7.83627553,10.485 L7.83627553,10.485 C8.07716379,9.94766451 8.21125908,9.36857302 8.23108789,8.78 C8.11105755,7.75442842 7.91900715,6.73858374 7.65636105,5.74 C7.39359596,4.776811 7.2113871,3.79341896 7.11161995,2.8 C7.15780975,1.95959722 7.42315499,1.14594475 7.88125416,0.44 C8.09000764,0.152776511 8.48749826,0.0803400973 8.78407064,0.275475895 C9.08064302,0.470611693 9.17162929,0.864451358 8.99072684,1.17 C8.67744973,1.65855645 8.48869209,2.21651454 8.44098812,2.795 C8.55086555,3.6864523 8.71779589,4.56993352 8.94075059,5.44 C9.23509984,6.53304768 9.43902502,7.64847999 9.55046081,8.775 C9.53891391,9.5625125 9.36894681,10.3396313 9.05069834,11.06 C8.93706011,11.2948157 8.69667808,11.4414598 8.4359905,11.435 L8.4359905,11.435 Z" id="Shape" fill="#FA8366"></path>
                        <path d="M12.9188599,11.435 C12.6910939,11.4347147 12.4793344,11.3177711 12.357709,11.1251059 C12.2360835,10.9324406 12.2215307,10.6908862 12.3191449,10.485 L12.3191449,10.485 C12.5600331,9.94766451 12.6941284,9.36857302 12.7139572,8.78 C12.5939269,7.75442842 12.4018765,6.73858374 12.1392304,5.74 C11.8764653,4.776811 11.6942565,3.79341896 11.5944893,2.8 C11.6406791,1.95959722 11.9060244,1.14594475 12.3641235,0.44 C12.5669918,0.133482019 12.9798128,0.049535447 13.2861852,0.252500074 C13.5925576,0.4554647 13.6764644,0.868481966 13.4735962,1.175 C13.1603191,1.66355645 12.9715615,2.22151454 12.9238575,2.8 C13.0337349,3.6914523 13.2006652,4.57493352 13.42362,5.445 C13.7179692,6.53804768 13.9218944,7.65347999 14.0333302,8.78 C14.0217833,9.5675125 13.8518162,10.3446313 13.5335677,11.065 C13.4184879,11.2978689 13.1784084,11.4423756 12.9188599,11.435 L12.9188599,11.435 Z" id="Shape" fill="#FA8366"></path>
                        <path d="M17.3867363,11.435 C17.1589704,11.4347147 16.9472109,11.3177711 16.8255854,11.1251059 C16.7039599,10.9324406 16.6894072,10.6908862 16.7870214,10.485 L16.7870214,10.485 C17.0279096,9.94766451 17.1620049,9.36857302 17.1818337,8.78 C17.0618034,7.75442842 16.869753,6.73858374 16.6071069,5.74 C16.3443418,4.776811 16.1621329,3.79341896 16.0623658,2.8 C16.1085556,1.95959722 16.3739008,1.14594475 16.832,0.44 C16.9632327,0.241717598 17.1902289,0.128542206 17.4274813,0.143105901 C17.6647337,0.157669595 17.876198,0.297759804 17.9822177,0.510605901 C18.0882373,0.723451998 18.0727054,0.976717598 17.9414727,1.175 C17.6281956,1.66355645 17.4394379,2.22151454 17.391734,2.8 C17.5016114,3.6914523 17.6685417,4.57493352 17.8914964,5.445 C18.1858457,6.53804768 18.3897709,7.65347999 18.5012067,8.78 C18.4896598,9.5675125 18.3196926,10.3446313 18.0014442,11.065 C17.8863643,11.2978689 17.6462849,11.4423756 17.3867363,11.435 L17.3867363,11.435 Z" id="Shape" fill="#FA8366"></path>
                        <path d="M28.0916485,30.6 C27.6921824,30.6004424 27.3397223,30.3386821 27.2245138,29.9560081 C27.1093053,29.573334 27.2586294,29.1603621 27.591886,28.94 C29.3622931,27.7999874 30.1695781,25.6287404 29.5742518,23.608295 C28.9789255,21.5878496 27.1235132,20.2019151 25.0181093,20.205 L24.2334822,20.205 C23.7612757,20.1698115 23.3961018,19.7762396 23.3961018,19.3025 C23.3961018,18.8287604 23.7612757,18.4351885 24.2334822,18.4 L25.0181093,18.4 C27.9227381,18.3993397 30.4810835,20.3120772 31.3034229,23.0991914 C32.1257623,25.8863057 31.0157747,28.8824156 28.5764181,30.46 C28.431486,30.5519782 28.2632787,30.6005559 28.0916485,30.6 L28.0916485,30.6 Z" id="Shape" fill="#FFC61B"></path>
                        <path d="M16.8070119,39.635 L8.56093112,39.635 C3.9593477,39.6294898 0.230400698,35.8987705 0.224893112,31.295 L0.224893112,17.545 C0.227646897,15.2458762 2.08988289,13.3827551 4.38791449,13.38 L20.9850261,13.38 C23.2830577,13.3827551 25.1452937,15.2458762 25.1480475,17.545 L25.1480475,31.295 C25.1425351,35.9007205 21.4105469,39.6322454 16.8070119,39.635 L16.8070119,39.635 Z M4.39291211,15.17 C3.09403976,15.1727503 2.04177982,16.2255103 2.03903088,17.525 L2.03903088,31.275 C2.04453497,34.879136 4.96350492,37.7994933 8.56592874,37.805 L16.8120095,37.805 C20.4144333,37.7994933 23.3334033,34.879136 23.3389074,31.275 L23.3389074,17.525 C23.3361584,16.2255103 22.2838985,15.1727503 20.9850261,15.17 L4.39291211,15.17 L4.39291211,15.17 Z" id="Shape" fill="#FFC61B"></path>
                        <path d="M27.2245138,29.9560081 C27.1093053,29.573334 27.2586294,29.1603621 27.591886,28.94 C29.3622931,27.7999874 30.1695781,25.6287404 29.5742518,23.608295 C28.9789255,21.5878496 27.1235132,20.2019151 25.0181093,20.205 L24.2334822,20.205 C23.7612757,20.1698115 23.3961018,19.7762396 23.3961018,19.3025 C23.3961018,18.8287604 23.7612757,18.4351885 24.2334822,18.4 L25.0181093,18.4 C27.9227381,18.3993397 30.4810835,20.3120772 31.3034229,23.0991914 C32.1257623,25.8863057 31.0157747,28.8824156 28.5764181,30.46 C28.431486,30.5519782 28.2632787,30.6005559 28.0916485,30.6 C27.6921824,30.6004424 27.3397223,30.3386821 27.2245138,29.9560081 Z" id="Shape" fill="#FA8366"></path>
                        <rect id="Rectangle-path" fill="#FFC61B" x="6.96668884" y="14.29" width="1.80414252" height="4.995"></rect>
                        <path d="M4.89267458,25.31 L4.89267458,22.05 C4.89385164,21.7343603 5.04391159,21.4378047 5.29748219,21.25 L7.29653207,19.805 C7.64353145,19.557822 8.10898161,19.557822 8.455981,19.805 L10.4550309,21.25 C10.7086015,21.4378047 10.8586614,21.7343603 10.8598385,22.05 L10.8598385,25.31 C10.8598385,25.8622847 10.4123359,26.31 9.86031354,26.31 L5.89219952,26.31 C5.34017714,26.31 4.89267458,25.8622847 4.89267458,25.31 L4.89267458,25.31 Z" id="Shape" fill="#FFEEC0"></path>
                        <path d="M9.84532067,27.195 L5.89219952,27.195 C4.85082581,27.1950036 4.00585234,26.351865 4.00309739,25.31 L4.00309739,22.05 C4.00221834,21.4429328 4.29209857,20.8721923 4.78272684,20.515 L6.78177672,19.07 C7.44349713,18.5896078 8.33900168,18.5896078 9.00072209,19.07 L10.999772,20.515 C11.4904002,20.8721923 11.7802805,21.4429328 11.7794014,22.05 L11.7794014,25.31 C11.7782014,25.8182865 11.5724183,26.3046653 11.2085043,26.6593443 C10.8445903,27.0140234 10.353223,27.2071035 9.84532067,27.195 L9.84532067,27.195 Z M7.84627078,20.515 C7.8300399,20.5096579 7.81252542,20.5096579 7.79629454,20.515 L5.79724466,21.96 C5.77629683,21.975205 5.7634184,21.9991334 5.76226128,22.025 L5.76226128,25.285 C5.76472996,25.3281183 5.79912543,25.3625301 5.84222328,25.365 L9.80533967,25.365 C9.84843751,25.3625301 9.88283299,25.3281183 9.88530166,25.285 L9.88530166,22.025 C9.88414455,21.9991334 9.87126611,21.975205 9.85031829,21.96 L7.85126841,20.515 C7.86395034,20.5200537 7.8777143,20.521775 7.89124941,20.52 L7.84627078,20.515 Z" id="Shape" fill="#FFC61B"></path>
                        <path d="M1.12946318,30.61 L1.12946318,31.3 C1.12946318,35.4062371 4.45664471,38.735 8.56093112,38.735 L16.8070119,38.735 C20.9112983,38.735 24.2384798,35.4062371 24.2384798,31.3 L24.2384798,30.61 L1.12946318,30.61 L1.12946318,30.61 Z" id="Shape" fill="#FFB7A5"></path>
                        <path d="M16.8070119,39.635 L8.56093112,39.635 C3.9593477,39.6294898 0.230400698,35.8987705 0.224893112,31.295 L0.224893112,30.605 C0.224893112,30.1051823 0.629882927,29.7 1.12946318,29.7 L24.2384798,29.7 C24.7380601,29.7 25.1430499,30.1051823 25.1430499,30.605 L25.1430499,31.295 C25.1375423,35.8987705 21.4085953,39.6294898 16.8070119,39.635 L16.8070119,39.635 Z M2.03403325,31.51 C2.15251513,35.0318712 5.03874127,37.8266061 8.56093112,37.83 L16.8070119,37.83 C20.3292017,37.8266061 23.2154279,35.0318712 23.3339097,31.51 L2.03403325,31.51 L2.03403325,31.51 Z" id="Shape" fill="#FA8366"></path>
                        <path d="M16.8070119,39.635 L8.56093112,39.635 C3.9593477,39.6294898 0.230400698,35.8987705 0.224893112,31.295 L0.224893112,17.545 C0.227646897,15.2458762 2.08988289,13.3827551 4.38791449,13.38 L20.9850261,13.38 C23.2830577,13.3827551 25.1452937,15.2458762 25.1480475,17.545 L25.1480475,31.295 C25.1425351,35.9007205 21.4105469,39.6322454 16.8070119,39.635 L16.8070119,39.635 Z M4.39291211,15.17 C3.09403976,15.1727503 2.04177982,16.2255103 2.03903088,17.525 L2.03903088,31.275 C2.04453497,34.879136 4.96350492,37.7994933 8.56592874,37.805 L16.8120095,37.805 C20.4144333,37.7994933 23.3334033,34.879136 23.3389074,31.275 L23.3389074,17.525 C23.3361584,16.2255103 22.2838985,15.1727503 20.9850261,15.17 L4.39291211,15.17 L4.39291211,15.17 Z" id="Shape" fill="#FA8366"></path>
                        <rect id="Rectangle-path" fill="#FA8366" x="6.96668884" y="14.29" width="1.80414252" height="4.995"></rect>
                        <path d="M4.89267458,25.31 L4.89267458,22.05 C4.89385164,21.7343603 5.04391159,21.4378047 5.29748219,21.25 L7.29653207,19.805 C7.64353145,19.557822 8.10898161,19.557822 8.455981,19.805 L10.4550309,21.25 C10.7086015,21.4378047 10.8586614,21.7343603 10.8598385,22.05 L10.8598385,25.31 C10.8598385,25.8622847 10.4123359,26.31 9.86031354,26.31 L5.89219952,26.31 C5.34017714,26.31 4.89267458,25.8622847 4.89267458,25.31 L4.89267458,25.31 Z" id="Shape" fill="#FFB7A5"></path>
                        <path d="M9.84532067,27.195 L5.89219952,27.195 C4.85082581,27.1950036 4.00585234,26.351865 4.00309739,25.31 L4.00309739,22.05 C4.00221834,21.4429328 4.29209857,20.8721923 4.78272684,20.515 L6.78177672,19.07 C7.44349713,18.5896078 8.33900168,18.5896078 9.00072209,19.07 L10.999772,20.515 C11.4904002,20.8721923 11.7802805,21.4429328 11.7794014,22.05 L11.7794014,25.31 C11.7782014,25.8182865 11.5724183,26.3046653 11.2085043,26.6593443 C10.8445903,27.0140234 10.353223,27.2071035 9.84532067,27.195 L9.84532067,27.195 Z M7.84627078,20.515 C7.8300399,20.5096579 7.81252542,20.5096579 7.79629454,20.515 L5.79724466,21.96 C5.77629683,21.975205 5.7634184,21.9991334 5.76226128,22.025 L5.76226128,25.285 C5.76472996,25.3281183 5.79912543,25.3625301 5.84222328,25.365 L9.80533967,25.365 C9.84843751,25.3625301 9.88283299,25.3281183 9.88530166,25.285 L9.88530166,22.025 C9.88414455,21.9991334 9.87126611,21.975205 9.85031829,21.96 L7.85126841,20.515 C7.86395034,20.5200537 7.8777143,20.521775 7.89124941,20.52 L7.84627078,20.515 Z" id="Shape" fill="#FA8366"></path>
                    </g>
                </g>
            </g>
        </g>
    </g>
</svg>