<?xml version="1.0" encoding="UTF-8" standalone="no"?>
<svg width="32px" height="40px" viewBox="0 0 32 40" version="1.1" xmlns="http://www.w3.org/2000/svg" xmlns:xlink="http://www.w3.org/1999/xlink">
    <!-- Generator: Sketch 40.1 (33804) - http://www.bohemiancoding.com/sketch -->
    <title>Shield_tablet</title>
    <desc>Created with Sketch.</desc>
    <defs></defs>
    <g id="Sail-Delivery" stroke="none" stroke-width="1" fill="none" fill-rule="evenodd">
        <g id="iPad-Portrait" transform="translate(-368.000000, -1431.000000)">
            <g id="Why-us" transform="translate(0.000000, 1318.000000)">
                <g id="Safe" transform="translate(294.400000, 113.053232)">
                    <g id="Shield_tablet" transform="translate(74.000000, 0.000000)">
                        <path d="M15.7325226,39.6 C15.5920187,39.6002699 15.4528135,39.573095 15.3227173,39.52 C12.7543991,38.4165168 10.2877803,37.0897654 7.9512209,35.555 C2.86363895,32.175 0.279866983,28.745 0.279866983,25.36 L0.279866983,5.635 C0.272760604,5.26258592 0.45797011,4.91279275 0.769917749,4.70947295 C1.08186539,4.50615314 1.4765173,4.47800688 1.81413777,4.635 C2.87992458,5.12520916 4.03950468,5.37770832 5.21252257,5.375 C8.36545923,5.36588697 11.2336459,3.54811657 12.5890166,0.7 C12.7715391,0.314846171 13.162563,0.0722961074 13.5885416,0.08 L17.8864988,0.08 C18.3128289,0.0710137427 18.704493,0.313960883 18.8860238,0.7 C19.3727892,1.73202197 20.0708808,2.65019328 20.9350499,3.395 C21.2278685,3.6477654 21.3636594,4.03762139 21.2912714,4.41771297 C21.2188834,4.79780456 20.9493141,5.11038679 20.5841075,5.23771297 C20.2189009,5.36503915 19.8135407,5.2877654 19.5207221,5.035 C18.6047713,4.24590743 17.8350207,3.30145703 17.2468029,2.245 L14.248228,2.245 C11.923138,6.41784419 7.04336299,8.45377258 2.44383848,7.17 L2.44383848,25.345 C2.44383848,30.5 11.6694537,35.575 15.7325226,37.345 C19.7955914,35.585 29.0212067,30.515 29.0212067,25.345 L29.0212067,7.17 C28.1196446,7.42035201 27.1881659,7.54651465 26.2525226,7.545 C25.6549583,7.545 25.1705368,7.06034824 25.1705368,6.4625 C25.1705368,5.86465176 25.6549583,5.38 26.2525226,5.38 C27.4255574,5.38286798 28.5851714,5.13036144 29.6509074,4.64 C29.9885278,4.48300688 30.3831797,4.51115314 30.6951274,4.71447295 C31.007075,4.91779275 31.1922845,5.26758592 31.1851781,5.64 L31.1851781,25.36 C31.1851781,28.745 28.6064038,32.18 23.5138242,35.555 C21.1772649,37.0897654 18.710646,38.4165168 16.1423278,39.52 C16.0122316,39.573095 15.8730264,39.6002699 15.7325226,39.6 L15.7325226,39.6 Z" id="Shape" fill="#FA8366"></path>
                        <path d="M15.7325226,32.015 C14.3383412,31.3134795 12.9866446,30.5304585 11.6844466,29.67 C8.26107363,27.38 7.30152969,25.725 7.22656532,25.31 L7.22656532,12.17 C10.4245948,11.7192724 13.3983044,10.2684625 15.7225273,8.025 C18.0467502,10.2684625 21.0204598,11.7192724 24.2184893,12.17 L24.2184893,25.295 C24.1435249,25.715 23.1789834,27.365 19.7606081,29.655 C18.4653585,30.5200563 17.1203374,31.3080858 15.7325226,32.015 L15.7325226,32.015 Z" id="Shape" fill="#FFB7A5"></path>
                        <path d="M15.7325226,33.1 C15.5591205,33.1023854 15.3876963,33.0629391 15.2327601,32.985 C13.800892,32.2617642 12.412515,31.4553882 11.0747363,30.57 C7.71133492,28.315 6.32199525,26.43 6.15207601,25.505 C6.14622594,25.4401318 6.14622594,25.3748682 6.15207601,25.31 L6.15207601,12.17 C6.15435373,11.6304706 6.55253162,11.1745852 7.08663183,11.1 C10.0606674,10.6802916 12.8260756,9.33105502 14.9878765,7.245 C15.4071665,6.84372534 16.0678739,6.84372534 16.4871639,7.245 C18.6462938,9.33376852 21.4099496,10.6865035 24.3834109,11.11 C24.9175111,11.1845852 25.315689,11.6404706 25.3179667,12.18 L25.3179667,25.305 C25.3238168,25.3698682 25.3238168,25.4351318 25.3179667,25.5 C25.1480475,26.43 23.7587078,28.315 20.3953064,30.565 C19.0575338,31.4503979 17.6691562,32.2567742 16.2372827,32.98 C16.0812817,33.0604583 15.9080247,33.1016478 15.7325226,33.1 L15.7325226,33.1 Z M8.30605226,25.13 C8.52594774,25.58 9.57544893,26.955 12.304152,28.77 C13.4155692,29.5066024 14.5649449,30.1842052 15.7475154,30.8 C16.9300725,30.184181 18.079447,29.506579 19.1908789,28.77 C21.8995914,26.955 22.9490926,25.58 23.1889786,25.13 L23.1889786,13.095 C20.4485564,12.5440344 17.8930669,11.3052545 15.7625083,9.495 C13.6319497,11.3052545 11.0764602,12.5440344 8.336038,13.095 L8.336038,25.125 L8.336038,25.125 L8.30605226,25.13 Z" id="Shape" fill="#FA8366"></path>
                        <path d="M15.2627458,23.415 C14.9761795,23.4157031 14.7010935,23.3023785 14.4981093,23.1 L11.3296152,19.93 C10.9602358,19.499582 10.9846281,18.8571338 11.38558,18.4559914 C11.7865318,18.0548489 12.4286749,18.030445 12.8588884,18.4 L15.2577482,20.8 L19.455753,16.6 C19.8859665,16.230445 20.5281095,16.2548489 20.9290614,16.6559914 C21.3300132,17.0571338 21.3544055,17.699582 20.9850261,18.13 L16.0173872,23.1 C15.8168589,23.2999414 15.5458473,23.4130662 15.2627458,23.415 L15.2627458,23.415 Z" id="Shape" fill="#FA8366"></path>
                    </g>
                </g>
            </g>
        </g>
    </g>
</svg>