<?xml version="1.0" encoding="UTF-8" standalone="no"?>
<svg width="46px" height="40px" viewBox="0 0 46 40" version="1.1" xmlns="http://www.w3.org/2000/svg" xmlns:xlink="http://www.w3.org/1999/xlink">
    <!-- Generator: Sketch 40.1 (33804) - http://www.bohemiancoding.com/sketch -->
    <title>Smile_tablet</title>
    <desc>Created with Sketch.</desc>
    <defs></defs>
    <g id="Sail-Delivery" stroke="none" stroke-width="1" fill="none" fill-rule="evenodd">
        <g id="iPad-Portrait" transform="translate(-641.000000, -1431.000000)">
            <g id="Why-us" transform="translate(0.000000, 1318.000000)">
                <g id="Polite" transform="translate(578.133333, 113.053232)">
                    <g id="Smile_tablet" transform="translate(63.000000, 0.000000)">
                        <path d="M40.2008931,14.215 L42.5147933,14.215 C43.1440989,14.215 43.6542518,13.7046046 43.6542518,13.075 L43.6542518,2.475 C43.6542518,1.84539539 43.1440989,1.335 42.5147933,1.335 L25.9526651,1.335 C25.3233596,1.335 24.8132067,1.84539539 24.8132067,2.475 L24.8132067,13.08 C24.8132067,13.7096046 25.3233596,14.22 25.9526651,14.22 L28.2665653,14.22 L28.0266793,18.33 C28.0084637,18.6053287 28.1608266,18.8636729 28.4105258,18.9808441 C28.6602249,19.0980153 28.9561879,19.0500478 29.1561425,18.86 L34.1537672,14.22 L40.2258812,14.22 L40.2008931,14.215 Z" id="Shape" fill="#FFB7A5"></path>
                        <path d="M28.7013587,20.27 C28.1732896,20.2683092 27.669125,20.0495533 27.3070214,19.665 C26.9518558,19.28287 26.7709069,18.7705412 26.8072589,18.25 L26.9721805,15.445 L25.9726556,15.445 C24.6616024,15.445 23.5987838,14.3816763 23.5987838,13.07 L23.5987838,2.475 C23.5987838,1.16332372 24.6616024,0.1 25.9726556,0.1 L42.5347838,0.1 C43.845837,0.1 44.9086556,1.16332372 44.9086556,2.475 L44.9086556,13.08 C44.9086556,14.3916763 43.845837,15.455 42.5347838,15.455 L34.6185463,15.455 L30.0007411,19.765 C29.6475264,20.0924683 29.1829031,20.2730424 28.7013587,20.27 L28.7013587,20.27 Z M26.04762,12.98 L28.2665653,12.98 C28.6055746,12.9808278 28.9293231,13.1211087 29.1618456,13.3679267 C29.3943681,13.6147446 29.5151972,13.9463739 29.495981,14.285 L29.336057,16.995 L33.2841805,13.31 C33.512414,13.0979682 33.8123247,12.9800901 34.1237815,12.98 L42.4148409,12.98 L42.4148409,2.57 L26.04762,2.57 L26.04762,12.98 L26.04762,12.98 Z" id="Shape" fill="#FA8366"></path>
                        <path d="M13.2437055,39.6 C6.04809372,39.6 0.214897862,33.7640317 0.214897862,26.565 C0.214897862,19.3659683 6.04809372,13.53 13.2437055,13.53 C20.4393172,13.53 26.2725131,19.3659683 26.2725131,26.565 C26.2803988,28.6057118 25.804247,30.6191805 24.8831734,32.44 C24.5754209,33.0488939 23.8325667,33.2928987 23.223962,32.985 C22.6153573,32.6771013 22.3714684,31.9338939 22.6792209,31.325 C23.4266865,29.8500315 23.813771,28.2187056 23.8086841,26.565 C23.8086841,20.7301116 19.0808196,16 13.2487031,16 C7.41658662,16 2.68872209,20.7301116 2.68872209,26.565 C2.68872209,32.3998884 7.41658662,37.13 13.2487031,37.13 C15.5891488,37.137359 17.8644442,36.3592008 19.7106318,34.92 C20.0542064,34.6030451 20.547231,34.507386 20.9843223,34.6728724 C21.4214136,34.8383587 21.7276166,35.2366118 21.7753739,35.7017282 C21.8231312,36.1668446 21.604253,36.6190633 21.2099192,36.87 C18.9343453,38.6456071 16.1295288,39.6068102 13.2437055,39.6 L13.2437055,39.6 Z" id="Shape" fill="#FA8366"></path>
                        <path d="M18.0664133,22.21 C16.9347674,22.21 16.0173872,23.1278163 16.0173872,24.26 C16.0173872,25.3921837 16.9347674,26.31 18.0664133,26.31 C19.1980592,26.31 20.1154394,25.3921837 20.1154394,24.26 C20.1154394,23.1278163 19.1980592,22.21 18.0664133,22.21 L18.0664133,22.21 Z" id="Shape" fill="#FA8366"></path>
                        <path d="M8.42099762,22.21 C7.28935174,22.21 6.3719715,23.1278163 6.3719715,24.26 C6.3719715,25.3921837 7.28935174,26.31 8.42099762,26.31 C9.55264351,26.31 10.4700238,25.3921837 10.4700238,24.26 C10.4700238,23.1278163 9.55264351,22.21 8.42099762,22.21 L8.42099762,22.21 Z" id="Shape" fill="#FA8366"></path>
                        <path d="M13.2437055,34.58 C10.3879308,34.591896 7.82201002,32.8366884 6.7967696,30.17 C6.61569471,29.7547123 6.67645125,29.2735671 6.95507,28.9163823 C7.23368874,28.5591975 7.68543113,28.3833272 8.13207907,28.4581545 C8.57872701,28.5329819 8.94856105,28.8464915 9.09567696,29.275 C9.76048205,30.98556 11.406758,32.1123178 13.2412067,32.1123178 C15.0756553,32.1123178 16.7219312,30.98556 17.3867363,29.275 C17.5338523,28.8464915 17.9036863,28.5329819 18.3503342,28.4581545 C18.7969822,28.3833272 19.2487246,28.5591975 19.5273433,28.9163823 C19.8059621,29.2735671 19.8667186,29.7547123 19.6856437,30.17 C18.6610532,32.8349745 16.0976558,34.5898163 13.2437055,34.58 L13.2437055,34.58 Z" id="Shape" fill="#FA8366"></path>
                    </g>
                </g>
            </g>
        </g>
    </g>
</svg>