<?xml version="1.0" encoding="UTF-8" standalone="no"?>
<svg width="41px" height="40px" viewBox="0 0 41 40" version="1.1" xmlns="http://www.w3.org/2000/svg" xmlns:xlink="http://www.w3.org/1999/xlink">
    <!-- Generator: Sketch 40.1 (33804) - http://www.bohemiancoding.com/sketch -->
    <title>Speed icon_tablet</title>
    <desc>Created with Sketch.</desc>
    <defs></defs>
    <g id="Sail-Delivery" stroke="none" stroke-width="1" fill="none" fill-rule="evenodd">
        <g id="iPad-Portrait" transform="translate(-84.000000, -1431.000000)">
            <g id="Why-us" transform="translate(0.000000, 1318.000000)">
                <g id="Speed" transform="translate(18.733333, 113.053232)">
                    <g id="Speed-icon_tablet" transform="translate(66.000000, 0.000000)">
                        <polyline id="Shape" fill="#FFB7A5" points="18.1563705 32.56 21.0599905 29.655 22.4543278 31.05 24.1435249 23.54 16.6420903 25.235 18.0364276 26.625 13.6335202 31.035"></polyline>
                        <path d="M18.1563705,33.67 C17.7068216,33.6692611 17.3017329,33.3983733 17.1291395,32.983078 C16.9565461,32.5677827 17.0502462,32.0894052 17.3667458,31.77 L20.2703658,28.865 C20.6916469,28.4436311 21.3696539,28.4282145 21.8096342,28.83 L22.6692257,25.015 L18.856038,25.875 C19.2576326,26.3151894 19.2422234,26.9935186 18.8210546,27.415 L14.4181473,31.82 C13.9778922,32.2197491 13.3015145,32.2033629 12.8811146,31.7827632 C12.4607147,31.3621635 12.4443363,30.6854643 12.8438955,30.245 L16.4621758,26.625 L15.8574632,26.02 C15.5708799,25.7323719 15.4632778,25.3115963 15.5765797,24.9216111 C15.6898815,24.5316258 16.0061654,24.2341183 16.4022043,24.145 L23.8986413,22.455 C24.2704885,22.3724783 24.6587079,22.4856629 24.9280345,22.7551176 C25.1973612,23.0245722 25.310492,23.4129761 25.2280095,23.785 L23.5388124,31.285 C23.4497364,31.6812271 23.1523702,31.9976613 22.7625702,32.111017 C22.3727703,32.2243727 21.9521945,32.1167195 21.6647031,31.83 L21.0599905,31.225 L18.9409976,33.345 C18.7328856,33.5531518 18.4506436,33.6700591 18.1563705,33.67 L18.1563705,33.67 Z" id="Shape" fill="#FA8366"></path>
                        <path d="M19.9105368,39.6 C11.3961784,39.5983914 3.84221744,34.1352874 1.17061083,26.0470885 C-1.50099578,17.9588895 1.31180554,9.06829277 8.14863061,3.99122564 C14.9854557,-1.08584149 24.3056078,-1.20524841 31.2701378,3.695 C31.7423354,4.06011573 31.843251,4.73257695 31.499042,5.22032651 C31.154833,5.70807606 30.4876765,5.83798694 29.9857482,5.515 C22.7853054,0.455955907 12.9494112,1.5354449 7.01641604,8.03588326 C1.08342091,14.5363216 0.900173359,24.4342247 6.58848609,31.1500219 C12.2767988,37.8658191 22.0659892,39.308988 29.4487527,34.5201908 C36.8315161,29.7313936 39.5097141,20.2013079 35.7030309,12.265 C35.5012748,11.7252612 35.7438395,11.1206285 36.2625869,10.8702139 C36.7813343,10.6197993 37.4053476,10.8061094 37.7020808,11.3 C38.9856914,13.9650872 39.6486677,16.8866464 39.6411591,19.845 C39.6329047,30.746108 30.8064567,39.5834612 19.9105368,39.6 L19.9105368,39.6 Z" id="Shape" fill="#FA8366"></path>
                        <path d="M17.9614632,33.67 L17.7915439,33.67 C10.4556095,32.5410967 5.29067237,25.8587629 6.04417421,18.471394 C6.79767606,11.0840251 13.2052795,5.58319749 20.6179212,5.96005969 C28.0305628,6.33692188 33.8478,12.4592661 33.8489121,19.885 C33.8489122,20.2833512 33.6364954,20.6514429 33.291677,20.8506185 C32.9468587,21.0497941 32.5220249,21.0497941 32.1772066,20.8506185 C31.8323883,20.6514429 31.6199714,20.2833512 31.6199715,19.885 C31.6190201,13.6472724 26.7328254,8.50423097 20.5061315,8.18695205 C14.2794377,7.86967313 8.89625508,12.4894422 8.2618732,18.6947966 C7.62749132,24.900151 11.9644194,30.5145651 18.1263848,31.465 C18.6743256,31.5788415 19.0529076,32.0815758 19.0111472,32.6399116 C18.9693869,33.1982475 18.5202363,33.6390132 17.9614632,33.67 L17.9614632,33.67 Z" id="Shape" fill="#FA8366"></path>
                        <path d="M26.9072114,19.825 L32.7094537,19.825 C32.7094537,12.7391867 26.9679959,6.995 19.8855487,6.995 C12.8031015,6.995 7.06164371,12.7391867 7.06164371,19.825 L12.8888741,19.825 C12.9053757,15.9561091 16.0434497,12.8277165 19.9105368,12.825 C23.7667385,12.8441469 26.8880736,15.9669655 26.9072114,19.825 Z" id="Shape" fill="#FFB7A5"></path>
                        <path d="M32.7394394,20.965 L26.9321995,20.965 C26.3166946,20.965 25.8177292,20.4657975 25.8177292,19.85 C25.8177293,17.7385603 24.6918249,15.7875095 22.8641331,14.7317896 C21.0364414,13.6760697 18.7846323,13.6760697 16.9569405,14.7317896 C15.1292488,15.7875095 14.0033443,17.7385603 14.0033444,19.85 C14.0033444,20.4657975 13.5043791,20.965 12.8888741,20.965 L7.08663183,20.965 C6.47112687,20.965 5.97216152,20.4657975 5.97216152,19.85 C5.95146068,12.1483892 12.1751025,5.88821068 19.8730546,5.8675 C27.5710067,5.84678932 33.8282113,12.0733892 33.8489121,19.775 L33.8489121,19.85 C33.8489183,20.4638501 33.3529918,20.9622473 32.7394394,20.965 L32.7394394,20.965 Z M27.9717055,18.735 L31.5699952,18.735 C30.9990051,12.7212147 25.9510229,8.12784419 19.9130356,8.12784419 C13.8750484,8.12784419 8.82706612,12.7212147 8.25607601,18.735 L11.8543658,18.735 C12.4133716,14.7110686 15.8523545,11.7155774 19.9130356,11.7155774 C23.9737167,11.7155774 27.4126996,14.7110686 27.9717055,18.735 L27.9717055,18.735 Z" id="Shape" fill="#FA8366"></path>
                        <path d="M16.8519905,14.55 C16.5929343,14.5504976 16.341871,14.4602841 16.1423278,14.295 L11.5295202,10.485 C11.0547809,10.0928778 10.9876556,9.38996488 11.3795914,8.915 C11.7715273,8.44003512 12.4741064,8.37287783 12.9488456,8.765 L17.5616532,12.575 C17.9243661,12.8744501 18.0601735,13.3694571 17.9010852,13.8122019 C17.7419969,14.2549467 17.3222519,14.5501412 16.8519905,14.55 L16.8519905,14.55 Z" id="Shape" fill="#FA8366"></path>
                        <path d="M22.9740808,14.55 C22.5038193,14.5501412 22.0840744,14.2549467 21.9249861,13.8122019 C21.7658977,13.3694571 21.9017052,12.8744501 22.2644181,12.575 L26.8772257,8.765 C27.1843281,8.51134143 27.6033634,8.44086632 27.976485,8.58012196 C28.3496067,8.7193776 28.6201286,9.04720775 28.6861477,9.44012196 C28.7521669,9.83303617 28.6036535,10.2313414 28.2965511,10.485 L23.6837435,14.295 C23.4842003,14.4602841 23.233137,14.5504976 22.9740808,14.55 L22.9740808,14.55 Z" id="Shape" fill="#FA8366"></path>
                    </g>
                </g>
            </g>
        </g>
    </g>
</svg>