<?xml version="1.0" encoding="UTF-8" standalone="no"?>
<svg width="40px" height="40px" viewBox="0 0 40 40" version="1.1" xmlns="http://www.w3.org/2000/svg" xmlns:xlink="http://www.w3.org/1999/xlink">
    <!-- Generator: Sketch 40.1 (33804) - http://www.bohemiancoding.com/sketch -->
    <title>Time_tablet</title>
    <desc>Created with Sketch.</desc>
    <defs></defs>
    <g id="Sail-Delivery" stroke="none" stroke-width="1" fill="none" fill-rule="evenodd">
        <g id="iPad-Portrait" transform="translate(-645.000000, -1600.000000)">
            <g id="Why-us" transform="translate(0.000000, 1318.000000)">
                <g id="Time" transform="translate(585.000000, 282.000000)">
                    <g id="Time_tablet" transform="translate(60.000000, 0.000000)">
                        <path d="M19.9505178,39.875 C12.1897009,39.8765388 5.148037,35.3284274 1.95462521,28.251707 C-1.23878658,21.1749865 0.00862784614,12.8828233 5.14255582,7.06 C5.566233,6.57951227 6.29901844,6.53362145 6.77927791,6.9575 C7.25953738,7.38137855 7.30540639,8.11451227 6.88172922,8.595 C0.976574098,15.2916129 1.10307631,25.3751633 7.17436811,31.921384 C13.2456599,38.4676047 23.2868091,39.3470737 30.402665,33.955869 C37.5185208,28.5646643 39.3943646,18.6564924 34.7420742,11.0351899 C30.0897838,3.41388734 20.4227042,0.558589891 12.3791164,4.43 C11.8094478,4.66741895 11.1537237,4.41680322 10.8873699,3.85985911 C10.621016,3.302915 10.8373809,2.63483346 11.3795914,2.34 C14.0580128,1.03884024 16.9980437,0.366758088 19.9755059,0.375 C30.877948,0.381903559 39.7105297,9.22987619 39.7036295,20.1375 C39.6967292,31.0451238 30.8529599,39.8819036 19.9505178,39.875 L19.9505178,39.875 Z" id="Shape" fill="#FA8366"></path>
                        <ellipse id="Oval" fill="#FFB7A5" cx="19.9555154" cy="20.13" rx="13.9333777" ry="13.94"></ellipse>
                        <path d="M19.9505178,35.23 C11.6122197,35.23 4.85269359,28.4672611 4.85269359,20.125 C4.85269359,11.7827389 11.6122197,5.02 19.9505178,5.02 C28.2888159,5.02 35.048342,11.7827389 35.048342,20.125 C35.0400774,28.4638338 28.2853902,35.2217314 19.9505178,35.23 L19.9505178,35.23 Z M19.9505178,7.35 C12.8956718,7.35 7.17658907,13.0718009 7.17658907,20.13 C7.17658907,27.1881991 12.8956718,32.91 19.9505178,32.91 C27.0053639,32.91 32.7244466,27.1881991 32.7244466,20.13 C32.7161848,13.0752275 27.0019389,7.35826571 19.9505178,7.35 L19.9505178,7.35 Z" id="Shape" fill="#FA8366"></path>
                        <path d="M19.5806936,24.17 C18.7334593,24.1709717 17.9206741,23.8345489 17.3217672,23.235 L14.1882565,20.1 C13.7342181,19.6457458 13.7342181,18.9092542 14.1882565,18.455 C14.6422949,18.0007458 15.3784367,18.0007458 15.8324751,18.455 L18.9659857,21.59 C19.1301052,21.7548797 19.3531086,21.8475658 19.5856912,21.8475658 C19.8182739,21.8475658 20.0412773,21.7548797 20.2053967,21.59 L25.008114,16.785 C25.4621524,16.3307458 26.1982941,16.3307458 26.6523325,16.785 C27.106371,17.2392542 27.106371,17.9757458 26.6523325,18.43 L21.8496152,23.235 C21.2482637,23.8370106 20.4313892,24.1736365 19.5806936,24.17 L19.5806936,24.17 Z" id="Shape" fill="#FA8366"></path>
                    </g>
                </g>
            </g>
        </g>
    </g>
</svg>