<?xml version="1.0" encoding="UTF-8" standalone="no"?>
<svg width="57px" height="60px" viewBox="0 0 57 60" version="1.1" xmlns="http://www.w3.org/2000/svg" xmlns:xlink="http://www.w3.org/1999/xlink">
    <!-- Generator: Sketch 40.1 (33804) - http://www.bohemiancoding.com/sketch -->
    <title>Burger</title>
    <desc>Created with Sketch.</desc>
    <defs></defs>
    <g id="Page-1" stroke="none" stroke-width="1" fill="none" fill-rule="evenodd">
        <g id="Icons" transform="translate(-297.000000, -2.000000)">
            <g id="Burger" transform="translate(297.000000, 2.000000)">
                <path d="M37.6615385,59.4923077 L19.3384615,59.4923077 C9.11196455,59.4838245 0.823867819,51.1957278 0.815384615,40.9692308 L0.815384615,39.4307692 C0.815384615,38.3219514 1.71425908,37.4230769 2.82307692,37.4230769 L54.1692308,37.4230769 C55.2780486,37.4230769 56.1769231,38.3219514 56.1769231,39.4307692 L56.1769231,40.9692308 C56.1684468,51.192728 47.8850313,59.4795849 37.6615385,59.4923077 L37.6615385,59.4923077 Z M4.83846154,41.4461538 C5.10366218,49.2651955 11.5149278,55.4689878 19.3384615,55.4769231 L37.6615385,55.4769231 C45.4791036,55.460712 51.8811679,49.2592435 52.1461538,41.4461538 L4.83846154,41.4461538 L4.83846154,41.4461538 Z" id="Shape" fill="#4DABAB"></path>
                <path d="M56.1846154,18.7846154 L56.1846154,20.3230769 C56.1846154,21.4318948 55.2857409,22.3307692 54.1769231,22.3307692 L2.82307692,22.3307692 C1.71425908,22.3307692 0.815384615,21.4318948 0.815384615,20.3230769 L0.815384615,18.7846154 C0.823867819,8.5581184 9.11196455,0.270021665 19.3384615,0.261538462 L37.6615385,0.261538462 C47.8880354,0.270021665 56.1761322,8.5581184 56.1846154,18.7846154 L56.1846154,18.7846154 Z M4.84615385,18.3076923 L52.1461538,18.3076923 C51.8809532,10.4886507 45.4696876,4.2848584 37.6461538,4.27692308 L19.3384615,4.27692308 C11.5149278,4.2848584 5.10366218,10.4886507 4.83846154,18.3076923 L4.83846154,18.3076923 L4.84615385,18.3076923 Z" id="Shape" fill="#4DABAB"></path>
                <rect id="Rectangle-path" fill="#4DABAB" x="0.607692308" y="24.8769231" width="54.6153846" height="10" rx="5"></rect>
                <rect id="Rectangle-path" fill="#6DDBD8" x="4.09230769" y="27.9769231" width="48.2923077" height="3.8" rx="1.9"></rect>
            </g>
        </g>
    </g>
</svg>