<?xml version="1.0" encoding="UTF-8" standalone="no"?>
<svg width="75px" height="60px" viewBox="0 0 75 60" version="1.1" xmlns="http://www.w3.org/2000/svg" xmlns:xlink="http://www.w3.org/1999/xlink">
    <!-- Generator: Sketch 40.1 (33804) - http://www.bohemiancoding.com/sketch -->
    <title>Car</title>
    <desc>Created with Sketch.</desc>
    <defs></defs>
    <g id="Page-1" stroke="none" stroke-width="1" fill="none" fill-rule="evenodd">
        <g id="Icons" transform="translate(-889.000000, -1.000000)">
            <g id="Car" transform="translate(889.000000, 1.000000)">
                <path d="M69.5325,49.86 L6.2025,49.86 C3.18045389,49.8558687 0.731631306,47.4070461 0.7275,44.385 L0.7275,5.505 C0.731631306,2.48295389 3.18045389,0.034131306 6.2025,0.03 L41.8425,0.03 C44.8616252,0.0341188418 47.3092425,2.47838323 47.3175,5.4975 C47.3194938,6.05774209 47.0983347,6.59572174 46.7028855,6.99257825 C46.3074363,7.38943477 45.7702456,7.61250355 45.21,7.6125 L45.21,7.6125 C44.6484618,7.61649681 44.1085494,7.39622296 43.7100663,7.00055601 C43.3115832,6.60488907 43.0874858,6.0665524 43.0875,5.505 C43.0935146,5.16953119 42.9654811,4.845518 42.7317764,4.60477406 C42.4980718,4.36403013 42.1779996,4.2264404 41.8425,4.2225 L6.2175,4.2225 C5.87679856,4.21838896 5.54895624,4.35243499 5.30873398,4.59407033 C5.06851171,4.83570567 4.9363908,5.16432853 4.9425,5.505 L4.9425,44.4075 C4.94659526,45.0975332 5.50496678,45.6559047 6.195,45.66 L69.525,45.66 C70.2150332,45.6559047 70.7734047,45.0975332 70.7775,44.4075 L70.7775,27.1575 C70.7811248,26.605544 70.4208924,26.1170933 69.8925,25.9575 C68.7782655,25.6157738 68.1520238,24.4354845 68.49375,23.32125 C68.8354762,22.2070155 70.0157655,21.5807738 71.13,21.9225 C73.4383795,22.6235875 75.0102191,24.7600685 74.9925,27.1725 L74.9925,44.4225 C74.9678874,47.4240626 72.5341386,49.8477822 69.5325,49.86 L69.5325,49.86 Z" id="Shape" fill="#4DABAB"></path>
                <path d="M70.5225,23.925 C70.2019207,23.8255004 69.8681654,23.7749314 69.5325,23.775 L48.72,23.775 C47.7851119,23.775 46.8885143,23.4036171 46.2274486,22.7425514 C45.5663829,22.0814857 45.195,21.1848881 45.195,20.25 L45.195,5.505 L56.655,5.505 C60.1772051,5.55839117 63.3089061,7.75920665 64.5525,11.055 L70.5225,23.925 Z" id="Shape" fill="#6DDBD8"></path>
                <path d="M70.5225,26.0325 C70.3087619,26.0322501 70.0963145,25.9993714 69.8925,25.935 C69.7733616,25.8990082 69.6494506,25.8813067 69.525,25.8825 L48.72,25.8825 C45.6109691,25.8783684 43.0916316,23.3590309 43.0875,20.25 L43.0875,5.505 C43.0874927,4.33984043 44.0298478,3.39413177 45.195,3.39 L56.655,3.39 C61.0238973,3.43294587 64.9240539,6.13808493 66.495,10.215 L72.39,22.965 C72.7408651,23.6144107 72.7277797,24.3997638 72.3554748,25.0371253 C71.9831699,25.6744868 71.3055123,26.0716402 70.5675,26.085 L70.53,26.085 L70.5225,26.0325 Z M47.2725,7.5825 L47.2725,20.25 C47.2724891,21.029944 47.9025669,21.6633733 48.6825,21.6675 L67.1175,21.6675 L62.6175,11.9175 L62.5725,11.8125 C61.6500616,9.31676425 59.2927599,7.64105611 56.6325,7.59 L47.31,7.59 L47.2725,7.5825 Z" id="Shape" fill="#4DABAB"></path>
                <ellipse id="Oval" fill="#6DDBD8" cx="20.7975" cy="48.015" rx="9.12" ry="9.12"></ellipse>
                <path d="M20.7975,59.25 C14.5842966,59.25 9.5475,54.2132034 9.5475,48 C9.5475,41.7867966 14.5842966,36.75 20.7975,36.75 C27.0107034,36.75 32.0475,41.7867966 32.0475,48 C32.0475,54.2132034 27.0107034,59.25 20.7975,59.25 L20.7975,59.25 Z M20.7975,41.01 C16.9246032,41.01 13.785,44.1496032 13.785,48.0225 C13.785,51.8953968 16.9246032,55.035 20.7975,55.035 C24.6703968,55.035 27.81,51.8953968 27.81,48.0225 C27.8100022,44.1483881 24.6716097,41.006639 20.7975,41.0025 L20.7975,41.01 Z" id="Shape" fill="#4DABAB"></path>
                <ellipse id="Oval" fill="#6DDBD8" cx="54.945" cy="48.015" rx="9.12" ry="9.12"></ellipse>
                <path d="M54.9375,59.25 C48.7242966,59.25 43.6875,54.2132034 43.6875,48 C43.6875,41.7867966 48.7242966,36.75 54.9375,36.75 C61.1507034,36.75 66.1875,41.7867966 66.1875,48 C66.1875,54.2132034 61.1507034,59.25 54.9375,59.25 L54.9375,59.25 Z M54.9375,41.01 C51.0646032,41.01 47.925,44.1496032 47.925,48.0225 C47.925,51.8953968 51.0646032,55.035 54.9375,55.035 C58.8103968,55.035 61.95,51.8953968 61.95,48.0225 C61.9500022,44.1483881 58.8116097,41.006639 54.9375,41.0025 L54.9375,41.01 Z" id="Shape" fill="#4DABAB"></path>
            </g>
        </g>
    </g>
</svg>