<?xml version="1.0" encoding="UTF-8" standalone="no"?>
<svg width="62px" height="60px" viewBox="0 0 62 60" version="1.1" xmlns="http://www.w3.org/2000/svg" xmlns:xlink="http://www.w3.org/1999/xlink">
    <!-- Generator: Sketch 40.1 (33804) - http://www.bohemiancoding.com/sketch -->
    <title>computer icon</title>
    <desc>Created with Sketch.</desc>
    <defs>
        <polygon id="path-1" points="0.0124567474 0.000207612457 0.0124567474 59.7925952 61.2942562 59.7925952 61.2942562 0.000207612457 0.0124567474 0.000207612457"></polygon>
        <polygon id="path-3" points="0.0124567474 0.16650519 0.0124567474 16.4250519 61.2950865 16.4250519 61.2950865 0.16650519 0.0124567474 0.16650519"></polygon>
    </defs>
    <g id="Page-1" stroke="none" stroke-width="1" fill="none" fill-rule="evenodd">
        <g id="Sail-Delivery-1" transform="translate(-839.000000, -909.000000)">
            <g id="How-Work" transform="translate(151.000000, 800.000000)">
                <g id="Icons" transform="translate(94.000000, 109.000000)">
                    <g id="computer-icon" transform="translate(594.000000, 0.000000)">
                        <g id="Group-4">
                            <mask id="mask-2" fill="white">
                                <use xlink:href="#path-1"></use>
                            </mask>
                            <g id="Clip-2"></g>
                            <path d="M22.8415225,59.7925952 L38.4537716,59.7925952 L38.4537716,43.8477509 L22.8415225,43.8477509 L22.8415225,59.7925952 Z M26.1633218,56.4707958 L35.1319723,56.4707958 L35.1319723,47.1695502 L26.1633218,47.1695502 L26.1633218,56.4707958 Z" id="Fill-1" fill="#FA8366" mask="url(#mask-2)"></path>
                            <path d="M6.83584775,50.4743253 C3.06643599,50.4743253 0,47.4078893 0,43.6384775 L0,6.83522491 C0,3.06643599 3.06643599,0.000207612457 6.83584775,0.000207612457 L54.4592388,0.000207612457 C58.2280277,0.000207612457 61.2942561,3.06643599 61.2942561,6.83522491 L61.2942561,43.6384775 C61.2950865,47.4078893 58.2288581,50.4743253 54.4592388,50.4743253 L6.83584775,50.4743253 Z M6.83584775,3.32200692 C4.8984083,3.32200692 3.32179931,4.89778547 3.32179931,6.83522491 L3.32179931,43.6384775 C3.32179931,45.575917 4.8984083,47.1516955 6.83584775,47.1516955 L54.4592388,47.1516955 C56.3968858,47.1516955 57.9724567,45.575917 57.9724567,43.6384775 L57.9724567,6.83522491 C57.9724567,4.89778547 56.3968858,3.32200692 54.4592388,3.32200692 L6.83584775,3.32200692 Z" id="Fill-3" fill="#FA8366" mask="url(#mask-2)"></path>
                        </g>
                        <path d="M12.4696194,43.8307266 C9.25743945,43.8307266 6.64359862,41.2168858 6.64359862,38.0044983 L6.64359862,12.469827 C6.64359862,9.25764706 9.25743945,6.64380623 12.4696194,6.64380623 L48.8254671,6.64380623 C52.0376471,6.64380623 54.6514879,9.25764706 54.6514879,12.469827 L51.3296886,12.469827 C51.3296886,11.0887889 50.2056747,9.96560554 48.8254671,9.96560554 L12.4696194,9.96560554 C11.0885813,9.96560554 9.96539792,11.0887889 9.96539792,12.469827 L9.96539792,38.0044983 C9.96539792,39.3849135 11.0885813,40.5089273 12.4696194,40.5089273 L48.8254671,40.5089273 C50.2056747,40.5089273 51.3296886,39.3849135 51.3296886,38.0044983 L51.3296886,23.7506574 L54.6514879,23.7506574 L54.6514879,38.0044983 C54.6514879,41.2168858 52.0376471,43.8307266 48.8254671,43.8307266 L12.4696194,43.8307266 Z" id="Fill-5" fill="#FA8366"></path>
                        <g id="Group-9" transform="translate(0.000000, 34.048443)">
                            <mask id="mask-4" fill="white">
                                <use xlink:href="#path-3"></use>
                            </mask>
                            <g id="Clip-7"></g>
                            <path d="M1.66089965,1.82740484 L1.66089965,9.5900346 C1.66089965,12.4480277 3.97785467,14.7641522 6.83584775,14.7641522 L54.4592388,14.7641522 C57.3172318,14.7641522 59.6341869,12.4480277 59.6341869,9.5900346 L59.6341869,1.82740484 L1.66089965,1.82740484 Z" id="Fill-6" fill="#FFB7A5" mask="url(#mask-4)"></path>
                            <path d="M54.4592388,16.4250519 L6.83584775,16.4250519 C3.06643599,16.4250519 0,13.3588235 0,9.5900346 L0,0.16650519 L61.2950865,0.16650519 L61.2950865,9.5900346 C61.2950865,13.3588235 58.2288581,16.4250519 54.4592388,16.4250519 L54.4592388,16.4250519 Z M3.32179931,3.4883045 L3.32179931,9.5900346 C3.32179931,11.527474 4.8984083,13.1032526 6.83584775,13.1032526 L54.4592388,13.1032526 C56.3968858,13.1032526 57.9732872,11.527474 57.9732872,9.5900346 L57.9732872,3.4883045 L3.32179931,3.4883045 Z" id="Fill-8" fill="#FA8366" mask="url(#mask-4)"></path>
                        </g>
                        <polygon id="Fill-10" fill="#FA8366" points="27.6579239 44.0051211 33.6373702 44.0051211 33.6373702 40.6833218 27.6579239 40.6833218"></polygon>
                        <polygon id="Fill-11" fill="#FA8366" points="17.4435986 59.7925952 43.8516955 59.7925952 43.8516955 56.4707958 17.4435986 56.4707958"></polygon>
                    </g>
                </g>
            </g>
        </g>
    </g>
</svg>