<?xml version="1.0" encoding="UTF-8" standalone="no"?>
<svg width="63px" height="30px" viewBox="0 0 63 30" version="1.1" xmlns="http://www.w3.org/2000/svg" xmlns:xlink="http://www.w3.org/1999/xlink">
    <!-- Generator: Sketch 40.1 (33804) - http://www.bohemiancoding.com/sketch -->
    <title>next icon</title>
    <desc>Created with Sketch.</desc>
    <defs>
        <polygon id="path-1" points="0.00728070175 29.9928287 62.1287763 29.9928287 62.1287763 0.0602390438 0.00728070175 0.0602390438"></polygon>
    </defs>
    <g id="Page-1" stroke="none" stroke-width="1" fill="none" fill-rule="evenodd">
        <g id="Sail-Delivery-1" transform="translate(-386.000000, -925.000000)">
            <g id="How-Work" transform="translate(151.000000, 800.000000)">
                <g id="Icons" transform="translate(94.000000, 109.000000)">
                    <g id="next-icon" transform="translate(141.250000, 16.000000)">
                        <mask id="mask-2" fill="white">
                            <use xlink:href="#path-1"></use>
                        </mask>
                        <g id="Clip-2"></g>
                        <polyline id="Fill-1" fill="#FFB7A5" mask="url(#mask-2)" points="42.351114 1.69374502 60.4703538 15.0301195 42.351114 28.366494 42.351114 1.69374502"></polyline>
                        <path d="M44.0092939,25.1067729 L44.0092939,4.95358566 L57.6998041,15.030239 L44.0092939,25.1067729 L44.0092939,25.1067729 Z M61.4630775,13.7215936 L43.343595,0.385219124 C42.8406199,0.0151792829 42.1693392,-0.043625498 41.6077544,0.233306773 C41.0467763,0.510358566 40.6923275,1.07545817 40.6923275,1.6936255 L40.6923275,18.4584861 L4.49207164,24.9871315 L8.36152193,16.663506 L17.2032061,16.663506 C18.1189971,16.663506 18.8616287,15.9322709 18.8616287,15.0301195 C18.8616287,14.1278486 18.1189971,13.3966135 17.2032061,13.3966135 L8.36152193,13.3966135 L4.49207164,5.07298805 L32.3823772,10.1028287 C33.2815439,10.2653785 34.147462,9.67780876 34.3124912,8.79035857 C34.4772778,7.90278884 33.8806243,7.05179283 32.9797588,6.88924303 L1.95717398,1.29454183 C1.34984211,1.18482072 0.729283626,1.41752988 0.349716374,1.89812749 C-0.0299722222,2.37884462 -0.106783626,3.02772908 0.150831871,3.5814741 L5.47326754,15.0301195 L0.150710526,26.4788845 C-0.106904971,27.0326295 -0.0300935673,27.6813944 0.349473684,28.1622311 C0.667033626,28.5640637 1.15217105,28.7925896 1.65830117,28.7925896 C1.75744006,28.7925896 1.85742836,28.783745 1.95717398,28.7656972 L40.6925702,21.779761 L40.6925702,28.366494 C40.6925702,28.9847809 41.0468977,29.55 41.6079971,29.8268127 C41.8431637,29.9428685 42.0975029,30 42.35075,30 C42.7021652,30 43.0516389,29.8900398 43.343595,29.6751394 L61.4630775,16.3386454 C61.8819605,16.0302789 62.1287763,15.545259 62.1287763,15.0301195 C62.1287763,14.5148606 61.8820819,14.0300797 61.4630775,13.7215936 L61.4630775,13.7215936 Z" id="Fill-3" fill="#FA8366" mask="url(#mask-2)"></path>
                    </g>
                </g>
            </g>
        </g>
    </g>
</svg>