<?xml version="1.0" encoding="UTF-8" standalone="no"?>
<svg width="49px" height="60px" viewBox="0 0 49 60" version="1.1" xmlns="http://www.w3.org/2000/svg" xmlns:xlink="http://www.w3.org/1999/xlink">
    <!-- Generator: Sketch 40.1 (33804) - http://www.bohemiancoding.com/sketch -->
    <title>paper icon</title>
    <desc>Created with Sketch.</desc>
    <defs></defs>
    <g id="Page-1" stroke="none" stroke-width="1" fill="none" fill-rule="evenodd">
        <g id="Icons" fill="#4DABAB">
            <g id="paper-icon">
                <path d="M37.0691912,60 L4.69786765,60 C2.10772059,60 0,57.8922794 0,55.3021324 L0,4.69786765 C0,2.10772059 2.10772059,0 4.69786765,0 L43.9056618,0 C46.4958088,0 48.6026471,2.10772059 48.6026471,4.69786765 L48.6026471,27.8433088 L45.0732353,27.8433088 L45.0732353,4.69786765 C45.0732353,4.05330882 44.5493382,3.52941176 43.9056618,3.52941176 L4.69786765,3.52941176 C4.05330882,3.52941176 3.52941176,4.05330882 3.52941176,4.69786765 L3.52941176,55.3021324 C3.52941176,55.9466912 4.05330882,56.4705882 4.69786765,56.4705882 L35.6077941,56.4705882 L45.0732353,47.0051471 L45.0732353,27.8433088 L48.6026471,27.8433088 L48.6026471,48.4665441 L37.0691912,60 Z" id="Fill-1"></path>
                <polygon id="Fill-2" points="9.75 17.7794118 38.9269853 17.7794118 38.9269853 14.25 9.75 14.25"></polygon>
                <polygon id="Fill-3" points="9.75 32.0294118 38.9269853 32.0294118 38.9269853 28.5 9.75 28.5"></polygon>
                <polygon id="Fill-4" points="9.75 46.2794118 38.9269853 46.2794118 38.9269853 42.75 9.75 42.75"></polygon>
            </g>
        </g>
    </g>
</svg>