<?xml version="1.0" encoding="UTF-8" standalone="no"?>
<svg width="77px" height="60px" viewBox="0 0 77 60" version="1.1" xmlns="http://www.w3.org/2000/svg" xmlns:xlink="http://www.w3.org/1999/xlink">
    <!-- Generator: Sketch 40.1 (33804) - http://www.bohemiancoding.com/sketch -->
    <title>Home</title>
    <desc>Created with Sketch.</desc>
    <defs></defs>
    <g id="Page-1" stroke="none" stroke-width="1" fill="none" fill-rule="evenodd">
        <g id="Sail-Delivery-1" transform="translate(-232.000000, -2667.000000)">
            <g id="Why-us" transform="translate(0.000000, 2187.000000)">
                <g id="Home" transform="translate(144.000000, 480.000000)">
                    <g transform="translate(88.000000, 0.000000)">
                        <rect id="Rectangle-path" fill="#FFB7A5" x="32.685" y="41.8875" width="12.33" height="15.855"></rect>
                        <polygon id="Shape" fill="#FFB7A5" points="64.5375 57.7425 54.315 57.7425 54.315 40.1925 59.4225 34.35 64.5375 40.1925"></polygon>
                        <polygon id="Shape" fill="#FFB7A5" points="23.2725 57.7425 13.05 57.7425 13.05 40.1925 18.1575 34.35 23.2725 40.1925"></polygon>
                        <path d="M74.7525,55.665 L66.5925,55.665 L66.5925,40.9725 L69.5925,37.5 L73.14,41.5575 C73.9066844,42.3653703 75.1740454,42.4249223 76.0131065,41.6925045 C76.8521675,40.9600867 76.9643835,39.6962996 76.2675,38.8275 L71.1525,32.985 C70.7580023,32.5339645 70.1879674,32.2752325 69.58875,32.2752325 C68.9895326,32.2752325 68.4194977,32.5339645 68.025,32.985 L64.53,37.005 L60.9825,32.9475 C60.5880023,32.4964645 60.0179674,32.2377325 59.41875,32.2377325 C58.8195326,32.2377325 58.2494977,32.4964645 57.855,32.9475 L56.355,34.635 L56.355,30.03 L57.9525,30.03 C58.7407549,30.0300064 59.4611157,29.5839049 59.812362,28.8782337 C60.1636082,28.1725625 60.0852295,27.3288901 59.61,26.7 L40.4775,1.3575 C40.0848606,0.837890024 39.4712759,0.532477545 38.82,0.532477545 C38.1687241,0.532477545 37.5551394,0.837890024 37.1625,1.3575 L18.06,26.73 C17.5847705,27.3588901 17.5063918,28.2025625 17.857638,28.9082337 C18.2088843,29.6139049 18.9292451,30.0600064 19.7175,30.06 L21.315,30.06 L21.315,34.8 L19.725,32.985 C19.3305023,32.5339645 18.7604674,32.2752325 18.16125,32.2752325 C17.5620326,32.2752325 16.9919977,32.5339645 16.5975,32.985 L13.05,37.005 L9.5025,32.9475 C9.10800225,32.4964645 8.53796737,32.2377325 7.93875,32.2377325 C7.33953263,32.2377325 6.76949775,32.4964645 6.375,32.9475 L1.26,38.79 C0.734875944,39.3433334 0.555246876,40.1399554 0.792088153,40.8651032 C1.02892943,41.590251 1.64414019,42.1272695 2.39463726,42.263971 C3.14513432,42.4006725 3.91018458,42.1150657 4.3875,41.52 L7.935,37.4625 L10.935,40.935 L10.935,55.6275 L2.8425,55.6275 C1.69512857,55.6275002 0.76500035,56.5576286 0.76500035,57.705 C0.76500035,58.8523714 1.69512857,59.7824998 2.8425,59.7825 L45.03,59.7825 C46.1773716,59.7825 47.1075,58.8523716 47.1075,57.705 L47.1075,41.8875 C47.1075,40.7401284 46.1773716,39.81 45.03,39.81 L32.6775,39.81 C31.5301284,39.81 30.6,40.7401284 30.6,41.8875 L30.6,55.665 L25.455,55.665 L25.455,30.06 L38.7825,30.06 C39.9298716,30.06 40.86,29.1298716 40.86,27.9825 C40.86,26.8351284 39.9298716,25.905 38.7825,25.905 L23.8875,25.905 L38.8875,6.0825 L53.8875,25.905 L51.3225,25.905 C50.1751284,25.905 49.245,26.8351284 49.245,27.9825 C49.245,29.1298716 50.1751284,30.06 51.3225,30.06 L52.3125,30.06 L52.3125,57.735 L52.3125,57.735 C52.3125,58.8823716 53.2426284,59.8125 54.39,59.8125 L74.835,59.8125 C75.6048301,59.840859 76.3271511,59.4409086 76.7116697,58.7733847 C77.0961882,58.1058608 77.0797679,57.280368 76.6690079,56.6286633 C76.258248,55.9769587 75.5205934,55.6060494 74.7525,55.665 L74.7525,55.665 Z M34.755,43.965 L42.9375,43.965 L42.9375,55.665 L34.755,55.665 L34.755,43.965 L34.755,43.965 L34.755,43.965 Z M21.1875,55.665 L15.12,55.665 L15.12,40.9725 L18.12,37.5 L21.12,40.9725 L21.12,55.665 L21.12,55.665 L21.1875,55.665 Z M56.3775,40.9725 L59.3775,37.5 L62.3775,40.9725 L62.3775,55.665 L56.31,55.665 L56.31,40.9725 L56.31,40.9725 L56.3775,40.9725 Z" id="Shape" fill="#FA8366"></path>
                    </g>
                </g>
            </g>
        </g>
    </g>
</svg>