<?xml version="1.0" encoding="UTF-8" standalone="no"?>
<svg width="48px" height="60px" viewBox="0 0 48 60" version="1.1" xmlns="http://www.w3.org/2000/svg" xmlns:xlink="http://www.w3.org/1999/xlink">
    <!-- Generator: Sketch 40.1 (33804) - http://www.bohemiancoding.com/sketch -->
    <title>Hot</title>
    <desc>Created with Sketch.</desc>
    <defs></defs>
    <g id="Page-1" stroke="none" stroke-width="1" fill="none" fill-rule="evenodd">
        <g id="Sail-Delivery-1" transform="translate(-701.000000, -2409.000000)">
            <g id="Why-us" transform="translate(0.000000, 1930.000000)">
                <g id="Hot-eat" transform="translate(599.000000, 479.000000)">
                    <g id="Hot" transform="translate(102.000000, 0.000000)">
                        <path d="M1.695,45.915 L1.695,46.95 C1.695,53.1093557 6.68814433,58.1025 12.8475,58.1025 L25.2225,58.1025 C31.3818557,58.1025 36.375,53.1093557 36.375,46.95 L36.375,45.915 L1.695,45.915 L1.695,45.915 Z" id="Shape" fill="#FFEEC0"></path>
                        <path d="M25.2225,59.4525 L12.8475,59.4525 C5.94184428,59.4442347 0.345765306,53.8481557 0.3375,46.9425 L0.3375,45.9075 C0.3375,45.1577735 0.945273452,44.55 1.695,44.55 L36.375,44.55 C37.1247265,44.55 37.7325,45.1577735 37.7325,45.9075 L37.7325,46.9425 C37.7242347,53.8481557 32.1281557,59.4442347 25.2225,59.4525 L25.2225,59.4525 Z M3.0525,47.265 C3.23030728,52.5478068 7.56170416,56.7399092 12.8475,56.745 L25.2225,56.745 C30.5082958,56.7399092 34.8396927,52.5478068 35.0175,47.265 L3.0525,47.265 L3.0525,47.265 Z" id="Shape" fill="#FFC61B"></path>
                        <path d="M12.66,17.1525 C12.3181887,17.1520721 12.0003985,16.9766566 11.8178736,16.6876588 C11.6353486,16.3986609 11.6135091,16.0363293 11.76,15.7275 L11.76,15.7275 C12.1215041,14.9214968 12.3227427,14.0528595 12.3525,13.17 C12.1723689,11.6316426 11.8841564,10.1078756 11.49,8.61 C11.095665,7.1652165 10.8222218,5.69012844 10.6725,4.2 C10.7418176,2.93939583 11.1400247,1.71891712 11.8275,0.66 C12.1407791,0.229164767 12.7372984,0.120510146 13.1823684,0.413213843 C13.6274384,0.70591754 13.7639826,1.29667704 13.4925,1.755 C13.022361,2.48783467 12.73909,3.3247718 12.6675,4.1925 C12.8323945,5.52967846 13.082909,6.85490028 13.4175,8.16 C13.8592337,9.79957151 14.1652669,11.47272 14.3325,13.1625 C14.3151714,14.3437687 14.0600996,15.509447 13.5825,16.59 C13.4119616,16.9422236 13.0512172,17.1621897 12.66,17.1525 L12.66,17.1525 Z" id="Shape" fill="#4DABAB"></path>
                        <path d="M19.3875,17.1525 C19.0456887,17.1520721 18.7278985,16.9766566 18.5453736,16.6876588 C18.3628486,16.3986609 18.3410091,16.0363293 18.4875,15.7275 L18.4875,15.7275 C18.8490041,14.9214968 19.0502427,14.0528595 19.08,13.17 C18.8998689,11.6316426 18.6116564,10.1078756 18.2175,8.61 C17.823165,7.1652165 17.5497218,5.69012844 17.4,4.2 C17.4693176,2.93939583 17.8675247,1.71891712 18.555,0.66 C18.859447,0.200223029 19.4789729,0.0743031704 19.9387499,0.37875011 C20.3985269,0.68319705 20.5244469,1.30272295 20.22,1.7625 C19.749861,2.49533467 19.46659,3.3322718 19.395,4.2 C19.5598945,5.53717846 19.810409,6.86240028 20.145,8.1675 C20.5867337,9.80707151 20.8927669,11.48022 21.06,13.17 C21.0426714,14.3512687 20.7875996,15.516947 20.31,16.5975 C20.1372982,16.9468034 19.7770079,17.1635634 19.3875,17.1525 L19.3875,17.1525 Z" id="Shape" fill="#4DABAB"></path>
                        <path d="M26.0925,17.1525 C25.7506887,17.1520721 25.4328985,16.9766566 25.2503736,16.6876588 C25.0678486,16.3986609 25.0460091,16.0363293 25.1925,15.7275 L25.1925,15.7275 C25.5540041,14.9214968 25.7552427,14.0528595 25.785,13.17 C25.6048689,11.6316426 25.3166564,10.1078756 24.9225,8.61 C24.528165,7.1652165 24.2547218,5.69012844 24.105,4.2 C24.1743176,2.93939583 24.5725247,1.71891712 25.26,0.66 C25.4569427,0.362576396 25.7975988,0.19281331 26.1536465,0.214658851 C26.5096942,0.236504393 26.8270414,0.446639706 26.9861465,0.765908851 C27.1452516,1.085178 27.1219427,1.4650764 26.925,1.7625 C26.454861,2.49533467 26.17159,3.3322718 26.1,4.2 C26.2648945,5.53717846 26.515409,6.86240028 26.85,8.1675 C27.2917337,9.80707151 27.5977669,11.48022 27.765,13.17 C27.7476714,14.3512687 27.4925996,15.516947 27.015,16.5975 C26.8422982,16.9468034 26.4820079,17.1635634 26.0925,17.1525 L26.0925,17.1525 Z" id="Shape" fill="#4DABAB"></path>
                        <path d="M42.1575,45.9 C41.5580162,45.9006636 41.0290748,45.5080231 40.8561799,44.9340121 C40.683285,44.3600011 40.9073775,43.7405431 41.4075,43.41 C44.0643728,41.6999811 45.2758759,38.4431106 44.3824621,35.4124425 C43.4890482,32.3817744 40.7046069,30.3028726 37.545,30.3075 L36.3675,30.3075 C35.6588536,30.2547173 35.1108325,29.6643594 35.1108325,28.95375 C35.1108325,28.2431406 35.6588536,27.6527827 36.3675,27.6 L37.545,27.6 C41.904014,27.5990096 45.7433561,30.4681158 46.9774514,34.6487871 C48.2115468,38.8294585 46.545774,43.3236234 42.885,45.69 C42.6674986,45.8279673 42.4150678,45.9008339 42.1575,45.9 L42.1575,45.9 Z" id="Shape" fill="#FFC61B"></path>
                        <path d="M25.2225,59.4525 L12.8475,59.4525 C5.94184428,59.4442347 0.345765306,53.8481557 0.3375,46.9425 L0.3375,26.3175 C0.341632642,22.8688143 3.13631427,20.0741326 6.585,20.07 L31.4925,20.07 C34.9411857,20.0741326 37.7358674,22.8688143 37.74,26.3175 L37.74,46.9425 C37.7317275,53.8510808 32.1310845,59.4483681 25.2225,59.4525 L25.2225,59.4525 Z M6.5925,22.755 C4.64326547,22.7591254 3.06412538,24.3382655 3.06,26.2875 L3.06,46.9125 C3.06826007,52.318704 7.448796,56.6992399 12.855,56.7075 L25.23,56.7075 C30.636204,56.6992399 35.0167399,52.318704 35.025,46.9125 L35.025,26.2875 C35.0208746,24.3382655 33.4417345,22.7591254 31.4925,22.755 L6.5925,22.755 L6.5925,22.755 Z" id="Shape" fill="#FFC61B"></path>
                        <path d="M42.1575,45.9 C41.5580162,45.9006636 41.0290748,45.5080231 40.8561799,44.9340121 C40.683285,44.3600011 40.9073775,43.7405431 41.4075,43.41 C44.0643728,41.6999811 45.2758759,38.4431106 44.3824621,35.4124425 C43.4890482,32.3817744 40.7046069,30.3028726 37.545,30.3075 L36.3675,30.3075 C35.6588536,30.2547173 35.1108325,29.6643594 35.1108325,28.95375 C35.1108325,28.2431406 35.6588536,27.6527827 36.3675,27.6 L37.545,27.6 C41.904014,27.5990096 45.7433561,30.4681158 46.9774514,34.6487871 C48.2115468,38.8294585 46.545774,43.3236234 42.885,45.69 C42.6674986,45.8279673 42.4150678,45.9008339 42.1575,45.9 L42.1575,45.9 Z" id="Shape" fill="#4DABAB"></path>
                        <rect id="Rectangle-path" fill="#FFC61B" x="10.455" y="21.435" width="2.7075" height="7.4925"></rect>
                        <path d="M7.3425,37.965 L7.3425,33.075 C7.34426642,32.6015405 7.56946333,32.1567071 7.95,31.875 L10.95,29.7075 C11.4707465,29.3367329 12.1692535,29.3367329 12.69,29.7075 L15.69,31.875 C16.0705367,32.1567071 16.2957336,32.6015405 16.2975,33.075 L16.2975,37.965 C16.2975,38.7934271 15.6259271,39.465 14.7975,39.465 L8.8425,39.465 C8.01407288,39.465 7.3425,38.7934271 7.3425,37.965 L7.3425,37.965 Z" id="Shape" fill="#FFEEC0"></path>
                        <path d="M14.775,40.7925 L8.8425,40.7925 C7.279697,40.7925055 6.0116344,39.5277975 6.0075,37.965 L6.0075,33.075 C6.0061808,32.1643993 6.44120781,31.3082884 7.1775,30.7725 L10.1775,28.605 C11.1705524,27.8844117 12.5144476,27.8844117 13.5075,28.605 L16.5075,30.7725 C17.2437922,31.3082884 17.6788192,32.1643993 17.6775,33.075 L17.6775,37.965 C17.6756992,38.7274297 17.3668778,39.4569979 16.8207473,39.9890165 C16.2746169,40.5210351 15.5372156,40.8106553 14.775,40.7925 L14.775,40.7925 Z M11.775,30.7725 C11.7506421,30.7644868 11.7243579,30.7644868 11.7,30.7725 L8.7,32.94 C8.66856333,32.9628075 8.64923649,32.9987001 8.6475,33.0375 L8.6475,37.9275 C8.65120478,37.9921775 8.7028225,38.0437952 8.7675,38.0475 L14.715,38.0475 C14.7796775,38.0437952 14.8312952,37.9921775 14.835,37.9275 L14.835,33.0375 C14.8332635,32.9987001 14.8139367,32.9628075 14.7825,32.94 L11.7825,30.7725 C11.8015319,30.7800805 11.8221877,30.7826625 11.8425,30.78 L11.775,30.7725 Z" id="Shape" fill="#FFC61B"></path>
                        <path d="M1.695,45.915 L1.695,46.95 C1.695,53.1093557 6.68814433,58.1025 12.8475,58.1025 L25.2225,58.1025 C31.3818557,58.1025 36.375,53.1093557 36.375,46.95 L36.375,45.915 L1.695,45.915 L1.695,45.915 Z" id="Shape" fill="#6DDBD8"></path>
                        <path d="M25.2225,59.4525 L12.8475,59.4525 C5.94184428,59.4442347 0.345765306,53.8481557 0.3375,46.9425 L0.3375,45.9075 C0.3375,45.1577735 0.945273452,44.55 1.695,44.55 L36.375,44.55 C37.1247265,44.55 37.7325,45.1577735 37.7325,45.9075 L37.7325,46.9425 C37.7242347,53.8481557 32.1281557,59.4442347 25.2225,59.4525 L25.2225,59.4525 Z M3.0525,47.265 C3.23030728,52.5478068 7.56170416,56.7399092 12.8475,56.745 L25.2225,56.745 C30.5082958,56.7399092 34.8396927,52.5478068 35.0175,47.265 L3.0525,47.265 L3.0525,47.265 Z" id="Shape" fill="#4DABAB"></path>
                        <path d="M25.2225,59.4525 L12.8475,59.4525 C5.94184428,59.4442347 0.345765306,53.8481557 0.3375,46.9425 L0.3375,26.3175 C0.341632642,22.8688143 3.13631427,20.0741326 6.585,20.07 L31.4925,20.07 C34.9411857,20.0741326 37.7358674,22.8688143 37.74,26.3175 L37.74,46.9425 C37.7317275,53.8510808 32.1310845,59.4483681 25.2225,59.4525 L25.2225,59.4525 Z M6.5925,22.755 C4.64326547,22.7591254 3.06412538,24.3382655 3.06,26.2875 L3.06,46.9125 C3.06826007,52.318704 7.448796,56.6992399 12.855,56.7075 L25.23,56.7075 C30.636204,56.6992399 35.0167399,52.318704 35.025,46.9125 L35.025,26.2875 C35.0208746,24.3382655 33.4417345,22.7591254 31.4925,22.755 L6.5925,22.755 L6.5925,22.755 Z" id="Shape" fill="#4DABAB"></path>
                        <rect id="Rectangle-path" fill="#4DABAB" x="10.455" y="21.435" width="2.7075" height="7.4925"></rect>
                        <path d="M7.3425,37.965 L7.3425,33.075 C7.34426642,32.6015405 7.56946333,32.1567071 7.95,31.875 L10.95,29.7075 C11.4707465,29.3367329 12.1692535,29.3367329 12.69,29.7075 L15.69,31.875 C16.0705367,32.1567071 16.2957336,32.6015405 16.2975,33.075 L16.2975,37.965 C16.2975,38.7934271 15.6259271,39.465 14.7975,39.465 L8.8425,39.465 C8.01407288,39.465 7.3425,38.7934271 7.3425,37.965 L7.3425,37.965 Z" id="Shape" fill="#6DDBD8"></path>
                        <path d="M14.775,40.7925 L8.8425,40.7925 C7.279697,40.7925055 6.0116344,39.5277975 6.0075,37.965 L6.0075,33.075 C6.0061808,32.1643993 6.44120781,31.3082884 7.1775,30.7725 L10.1775,28.605 C11.1705524,27.8844117 12.5144476,27.8844117 13.5075,28.605 L16.5075,30.7725 C17.2437922,31.3082884 17.6788192,32.1643993 17.6775,33.075 L17.6775,37.965 C17.6756992,38.7274297 17.3668778,39.4569979 16.8207473,39.9890165 C16.2746169,40.5210351 15.5372156,40.8106553 14.775,40.7925 L14.775,40.7925 Z M11.775,30.7725 C11.7506421,30.7644868 11.7243579,30.7644868 11.7,30.7725 L8.7,32.94 C8.66856333,32.9628075 8.64923649,32.9987001 8.6475,33.0375 L8.6475,37.9275 C8.65120478,37.9921775 8.7028225,38.0437952 8.7675,38.0475 L14.715,38.0475 C14.7796775,38.0437952 14.8312952,37.9921775 14.835,37.9275 L14.835,33.0375 C14.8332635,32.9987001 14.8139367,32.9628075 14.7825,32.94 L11.7825,30.7725 C11.8015319,30.7800805 11.8221877,30.7826625 11.8425,30.78 L11.775,30.7725 Z" id="Shape" fill="#4DABAB"></path>
                    </g>
                </g>
            </g>
        </g>
    </g>
</svg>