<?xml version="1.0" encoding="UTF-8" standalone="no"?>
<svg width="47px" height="60px" viewBox="0 0 47 60" version="1.1" xmlns="http://www.w3.org/2000/svg" xmlns:xlink="http://www.w3.org/1999/xlink">
    <!-- Generator: Sketch 40.1 (33804) - http://www.bohemiancoding.com/sketch -->
    <title>Shield</title>
    <desc>Created with Sketch.</desc>
    <defs></defs>
    <g id="Page-1" stroke="none" stroke-width="1" fill="none" fill-rule="evenodd">
        <g id="Sail-Delivery-1" transform="translate(-696.000000, -2140.000000)">
            <g id="Why-us" transform="translate(0.000000, 1930.000000)">
                <g id="Safe" transform="translate(597.000000, 210.000000)">
                    <g id="Shield" transform="translate(99.000000, 0.000000)">
                        <path d="M23.61,59.4 C23.399144,59.4004048 23.190237,59.3596425 22.995,59.28 C19.1406916,57.6247752 15.4390049,55.6346481 11.9325,53.3325 C4.2975,48.2625 0.42,43.1175 0.42,38.04 L0.42,8.4525 C0.409335364,7.89387888 0.687281664,7.36918913 1.15542552,7.06420942 C1.62356937,6.75922971 2.21582861,6.71701032 2.7225,6.9525 C4.32194004,7.68781375 6.0621369,8.06656247 7.8225,8.0625 C12.5541528,8.04883045 16.8584776,5.32217485 18.8925,1.05 C19.1664138,0.472269256 19.7532285,0.108444161 20.3925,0.12 L26.8425,0.12 C27.4822991,0.106520614 28.0700745,0.470941324 28.3425,1.05 C29.0729952,2.59803296 30.1206304,3.97528992 31.4175,5.0925 C31.8569367,5.47164811 32.0607198,6.05643208 31.9520862,6.62656946 C31.8434527,7.19670684 31.4389065,7.66558019 30.8908362,7.85656946 C30.342766,8.04755873 29.7344367,7.93164811 29.295,7.5525 C27.9204207,6.36886115 26.7652462,4.95218554 25.8825,3.3675 L21.3825,3.3675 C17.8932073,9.62676629 10.5700659,12.6806589 3.6675,10.755 L3.6675,38.0175 C3.6675,45.75 17.5125,53.3625 23.61,56.0175 C29.7075,53.3775 43.5525,45.7725 43.5525,38.0175 L43.5525,10.755 C42.1995141,11.130528 40.8016321,11.319772 39.3975,11.3175 C38.5007276,11.3175 37.77375,10.5905224 37.77375,9.69375 C37.77375,8.79697764 38.5007276,8.07 39.3975,8.07 C41.1578886,8.07430197 42.8981363,7.69554216 44.4975,6.96 C45.0041714,6.72451032 45.5964306,6.76672971 46.0645745,7.07170942 C46.5327183,7.37668913 46.8106646,7.90137888 46.8,8.46 L46.8,38.04 C46.8,43.1175 42.93,48.27 35.2875,53.3325 C31.7809951,55.6346481 28.0793084,57.6247752 24.225,59.28 C24.029763,59.3596425 23.820856,59.4004048 23.61,59.4 L23.61,59.4 Z" id="Shape" fill="#4DABAB"></path>
                        <path d="M23.61,48.0225 C21.517734,46.9702192 19.4892255,45.7956877 17.535,44.505 C12.3975,41.07 10.9575,38.5875 10.845,37.965 L10.845,18.255 C15.6443242,17.5789086 20.1070086,15.4026937 23.595,12.0375 C27.0829914,15.4026937 31.5456758,17.5789086 36.345,18.255 L36.345,37.9425 C36.2325,38.5725 34.785,41.0475 29.655,44.4825 C27.7112023,45.7800845 25.6927116,46.9621286 23.61,48.0225 L23.61,48.0225 Z" id="Shape" fill="#6DDBD8"></path>
                        <path d="M23.61,49.65 C23.3497733,49.6535781 23.0925148,49.5944086 22.86,49.4775 C20.711177,48.3926463 18.6276217,47.1830824 16.62,45.855 C11.5725,42.4725 9.4875,39.645 9.2325,38.2575 C9.22372072,38.1601976 9.22372072,38.0623024 9.2325,37.965 L9.2325,18.255 C9.23591821,17.4457058 9.83346891,16.7618778 10.635,16.65 C15.0981736,16.0204375 19.2482574,13.9965825 22.4925,10.8675 C23.121734,10.265588 24.113266,10.265588 24.7425,10.8675 C27.9827341,14.0006528 32.1301881,16.0297553 36.5925,16.665 C37.3940311,16.7768778 37.9915818,17.4607058 37.995,18.27 L37.995,37.9575 C38.0037793,38.0548024 38.0037793,38.1526976 37.995,38.25 C37.74,39.645 35.655,42.4725 30.6075,45.8475 C28.5998873,47.1755969 26.5163311,48.3851614 24.3675,49.47 C24.1333873,49.5906874 23.8733783,49.6524717 23.61,49.65 L23.61,49.65 Z M12.465,37.695 C12.795,38.37 14.37,40.4325 18.465,43.155 C20.1329182,44.2599036 21.8578012,45.2763078 23.6325,46.2 C25.4071787,45.2762715 27.1320598,44.2598684 28.8,43.155 C32.865,40.4325 34.44,38.37 34.8,37.695 L34.8,19.6425 C30.687413,18.8160516 26.8523568,16.9578818 23.655,14.2425 C20.4576432,16.9578818 16.622587,18.8160516 12.51,19.6425 L12.51,37.6875 L12.51,37.6875 L12.465,37.695 Z" id="Shape" fill="#4DABAB"></path>
                        <path d="M22.905,35.1225 C22.4749462,35.1235546 22.0621211,34.9535678 21.7575,34.65 L17.0025,29.895 C16.4481676,29.249373 16.4847734,28.2857007 17.0864871,27.6839871 C17.6882007,27.0822734 18.651873,27.0456676 19.2975,27.6 L22.8975,31.2 L29.1975,24.9 C29.843127,24.3456676 30.8067993,24.3822734 31.4085129,24.9839871 C32.0102266,25.5857007 32.0468324,26.549373 31.4925,27.195 L24.0375,34.65 C23.7365646,34.9499121 23.3298541,35.1195993 22.905,35.1225 L22.905,35.1225 Z" id="Shape" fill="#4DABAB"></path>
                    </g>
                </g>
            </g>
        </g>
    </g>
</svg>