<?xml version="1.0" encoding="UTF-8" standalone="no"?>
<svg width="68px" height="60px" viewBox="0 0 68 60" version="1.1" xmlns="http://www.w3.org/2000/svg" xmlns:xlink="http://www.w3.org/1999/xlink">
    <!-- Generator: Sketch 40.1 (33804) - http://www.bohemiancoding.com/sketch -->
    <title>Smile</title>
    <desc>Created with Sketch.</desc>
    <defs></defs>
    <g id="Page-1" stroke="none" stroke-width="1" fill="none" fill-rule="evenodd">
        <g id="Sail-Delivery-1" transform="translate(-1137.000000, -2140.000000)">
            <g id="Why-us" transform="translate(0.000000, 1930.000000)">
                <g id="Polite" transform="translate(1054.000000, 210.000000)">
                    <g id="Smile" transform="translate(83.000000, 0.000000)">
                        <path d="M60.33,21.3225 L63.8025,21.3225 C64.7469069,21.3225 65.5125,20.5569069 65.5125,19.6125 L65.5125,3.7125 C65.5125,2.76809308 64.7469069,2.0025 63.8025,2.0025 L38.9475,2.0025 C38.0030931,2.0025 37.2375,2.76809308 37.2375,3.7125 L37.2375,19.62 C37.2375,20.5644069 38.0030931,21.33 38.9475,21.33 L42.42,21.33 L42.06,27.495 C42.0326636,27.9079931 42.2613166,28.2955094 42.6360433,28.4712662 C43.01077,28.647023 43.4549255,28.5750717 43.755,28.29 L51.255,21.33 L60.3675,21.33 L60.33,21.3225 Z" id="Shape" fill="#6DDBD8"></path>
                        <path d="M43.0725,30.405 C42.2800199,30.4024638 41.5234136,30.0743299 40.98,29.4975 C40.4469984,28.924305 40.1754461,28.1558118 40.23,27.375 L40.4775,23.1675 L38.9775,23.1675 C37.0099856,23.1675 35.415,21.5725144 35.415,19.605 L35.415,3.7125 C35.415,1.74498558 37.0099856,0.15 38.9775,0.15 L63.8325,0.15 C65.8000144,0.15 67.395,1.74498558 67.395,3.7125 L67.395,19.62 C67.395,21.5875144 65.8000144,23.1825 63.8325,23.1825 L51.9525,23.1825 L45.0225,29.6475 C44.4924261,30.1387025 43.7951599,30.4095636 43.0725,30.405 L43.0725,30.405 Z M39.09,19.47 L42.42,19.47 C42.9287555,19.4712418 43.4146092,19.6816631 43.7635587,20.05189 C44.1125083,20.422117 44.2938379,20.9195609 44.265,21.4275 L44.025,25.4925 L49.95,19.965 C50.2925129,19.6469523 50.7425928,19.4701352 51.21,19.47 L63.6525,19.47 L63.6525,3.855 L39.09,3.855 L39.09,19.47 L39.09,19.47 Z" id="Shape" fill="#4DABAB"></path>
                        <path d="M19.875,59.4 C9.07645243,59.4 0.3225,50.6460476 0.3225,39.8475 C0.3225,29.0489524 9.07645243,20.295 19.875,20.295 C30.6735476,20.295 39.4275,29.0489524 39.4275,39.8475 C39.4393343,42.9085678 38.7247671,45.9287707 37.3425,48.66 C36.8806519,49.5733409 35.7658409,49.9393481 34.8525,49.4775 C33.9391591,49.0156519 33.5731519,47.9008409 34.035,46.9875 C35.1567312,44.7750472 35.737634,42.3280584 35.73,39.8475 C35.73,31.0951674 28.6348326,24 19.8825,24 C11.1301674,24 4.035,31.0951674 4.035,39.8475 C4.035,48.5998326 11.1301674,55.695 19.8825,55.695 C23.3948372,55.7060385 26.8094023,54.5388012 29.58,52.38 C30.0956069,51.9045676 30.8354952,51.7610791 31.4914437,52.0093086 C32.1473923,52.2575381 32.6069151,52.8549177 32.6785851,53.5525923 C32.7502551,54.2502669 32.4217818,54.928595 31.83,55.305 C28.4150168,57.9684107 24.2057923,59.4102153 19.875,59.4 L19.875,59.4 Z" id="Shape" fill="#4DABAB"></path>
                        <path d="M27.1125,33.315 C25.4142244,33.315 24.0375,34.6917244 24.0375,36.39 C24.0375,38.0882756 25.4142244,39.465 27.1125,39.465 C28.8107756,39.465 30.1875,38.0882756 30.1875,36.39 C30.1875,34.6917244 28.8107756,33.315 27.1125,33.315 L27.1125,33.315 Z" id="Shape" fill="#4DABAB"></path>
                        <path d="M12.6375,33.315 C10.9392244,33.315 9.5625,34.6917244 9.5625,36.39 C9.5625,38.0882756 10.9392244,39.465 12.6375,39.465 C14.3357756,39.465 15.7125,38.0882756 15.7125,36.39 C15.7125,34.6917244 14.3357756,33.315 12.6375,33.315 L12.6375,33.315 Z" id="Shape" fill="#4DABAB"></path>
                        <path d="M19.875,51.87 C15.5893021,51.887844 11.7385916,49.2550326 10.2,45.255 C9.92825857,44.6320684 10.0194367,43.9103506 10.4375635,43.3745734 C10.8556902,42.8387962 11.5336259,42.5749909 12.2039162,42.6872318 C12.8742065,42.7994728 13.4292212,43.2697373 13.65,43.9125 C14.6476816,46.47834 17.1182691,48.1684768 19.87125,48.1684768 C22.6242309,48.1684768 25.0948184,46.47834 26.0925,43.9125 C26.3132788,43.2697373 26.8682935,42.7994728 27.5385838,42.6872318 C28.2088741,42.5749909 28.8868098,42.8387962 29.3049365,43.3745734 C29.7230633,43.9103506 29.8142414,44.6320684 29.5425,45.255 C28.0048837,49.2524618 24.1579602,51.8847245 19.875,51.87 L19.875,51.87 Z" id="Shape" fill="#4DABAB"></path>
                    </g>
                </g>
            </g>
        </g>
    </g>
</svg>