<?xml version="1.0" encoding="UTF-8" standalone="no"?>
<svg width="60px" height="60px" viewBox="0 0 60 60" version="1.1" xmlns="http://www.w3.org/2000/svg" xmlns:xlink="http://www.w3.org/1999/xlink">
    <!-- Generator: Sketch 40.1 (33804) - http://www.bohemiancoding.com/sketch -->
    <title>Speed icon</title>
    <desc>Created with Sketch.</desc>
    <defs></defs>
    <g id="Page-1" stroke="none" stroke-width="1" fill="none" fill-rule="evenodd">
        <g id="Sail-Delivery-1" transform="translate(-240.000000, -2397.000000)">
            <g id="Why-us" transform="translate(0.000000, 2187.000000)">
                <g id="Speed" transform="translate(157.000000, 210.000000)">
                    <g id="Speed-icon" transform="translate(83.000000, 0.000000)">
                        <polyline id="Shape" fill="#FFB7A5" points="27.2475 48.84 31.605 44.4825 33.6975 46.575 36.2325 35.31 24.975 37.8525 27.0675 39.9375 20.46 46.5525"></polyline>
                        <path d="M27.2475,50.505 C26.572856,50.5038916 25.9649342,50.09756 25.7059211,49.474617 C25.4469079,48.8516741 25.5875249,48.1341079 26.0625,47.655 L30.42,43.2975 C31.052222,42.6654467 32.0697159,42.6423218 32.73,43.245 L34.02,37.5225 L28.2975,38.8125 C28.9001782,39.4727841 28.8770533,40.490278 28.245,41.1225 L21.6375,47.73 C20.9768035,48.3296237 19.9617547,48.3050444 19.3308552,47.6741448 C18.6999556,47.0432453 18.6753763,46.0281965 19.275,45.3675 L24.705,39.9375 L23.7975,39.03 C23.3674208,38.5985579 23.2059409,37.9673944 23.3759745,37.3824166 C23.546008,36.7974388 24.0206593,36.3511774 24.615,36.2175 L35.865,33.6825 C36.4230358,33.5587175 37.0056417,33.7284944 37.4098237,34.1326763 C37.8140056,34.5368583 37.9837825,35.1194642 37.86,35.6775 L35.325,46.9275 C35.1913226,47.5218407 34.7450612,47.996492 34.1600834,48.1665255 C33.5751056,48.3365591 32.9439421,48.1750792 32.5125,47.745 L31.605,46.8375 L28.425,50.0175 C28.1126836,50.3297277 27.6891194,50.5050887 27.2475,50.505 L27.2475,50.505 Z" id="Shape" fill="#FA8366"></path>
                        <path d="M29.88,59.4 C17.1023922,59.397587 5.76606539,51.2029311 1.75675081,39.0706327 C-2.25256378,26.9383343 1.96864354,13.6024391 12.2287553,5.98683846 C22.4888671,-1.62876224 36.4757399,-1.80787262 46.9275,5.5425 C47.6361332,6.09017359 47.7875785,7.09886542 47.2710195,7.83048976 C46.7544606,8.56211409 45.7532503,8.7569804 45,8.2725 C34.1942024,0.683933861 19.4333488,2.30316735 10.5296263,12.0538249 C1.62590376,21.8044824 1.3509018,36.6513371 9.88742625,46.7250329 C18.4239507,56.7987287 33.1147152,58.9634819 44.1941238,51.7802862 C55.2735324,44.5970904 59.2927388,30.3019619 53.58,18.3975 C53.277222,17.5878917 53.641242,16.6809428 54.419733,16.3053209 C55.198224,15.929699 56.1346887,16.2091641 56.58,16.95 C58.5063311,20.9476307 59.5012682,25.3299696 59.49,29.7675 C59.4776124,46.119162 46.2316479,59.3751918 29.88,59.4 L29.88,59.4 Z" id="Shape" fill="#FA8366"></path>
                        <path d="M26.955,50.505 L26.7,50.505 C15.6908684,48.811645 7.93978042,38.7881444 9.07057038,27.707091 C10.2013603,16.6260376 19.8173337,8.37479624 30.9415808,8.94008953 C42.0658279,9.50538283 50.7958311,18.6888992 50.7975,29.8275 C50.7975001,30.4250268 50.4787234,30.9771643 49.9612501,31.2759277 C49.4437767,31.5746911 48.8062233,31.5746911 48.2887499,31.2759277 C47.7712766,30.9771643 47.4524999,30.4250268 47.4525,29.8275 C47.4510722,20.4709087 40.1182966,12.7563464 30.7738167,12.2804281 C21.4293368,11.8045097 13.350725,18.7341633 12.3986999,28.0421949 C11.4466748,37.3502265 17.9551588,45.7718477 27.2025,47.1975 C28.0248018,47.3682623 28.5929448,48.1223638 28.5302744,48.9598675 C28.4676041,49.7973712 27.7935581,50.4585198 26.955,50.505 L26.955,50.505 Z" id="Shape" fill="#FA8366"></path>
                        <path d="M40.38,29.7375 L49.0875,29.7375 C49.0875,19.10878 40.47122,10.4925 29.8425,10.4925 C19.21378,10.4925 10.5975,19.10878 10.5975,29.7375 L19.3425,29.7375 C19.3672641,23.9341637 24.0766123,19.2415748 29.88,19.2375 C35.6670518,19.2662204 40.3512796,23.9504482 40.38,29.7375 Z" id="Shape" fill="#FFB7A5"></path>
                        <path d="M49.1325,31.4475 L40.4175,31.4475 C39.4938038,31.4475 38.745,30.6986962 38.745,29.775 C38.7450002,26.6078404 37.0553408,23.6812642 34.3125002,22.0976844 C31.5696595,20.5141045 28.1903405,20.5141045 25.4474998,22.0976844 C22.7046592,23.6812642 21.0149998,26.6078404 21.015,29.775 C21.015,30.6986962 20.2661962,31.4475 19.3425,31.4475 L10.635,31.4475 C9.71130376,31.4475 8.9625,30.6986962 8.9625,29.775 C8.93143398,18.2225837 18.2713337,8.83231602 29.82375,8.80125 C41.3761663,8.77018398 50.766434,18.1100837 50.7975,29.6625 L50.7975,29.775 C50.7975093,30.6957752 50.053266,31.443371 49.1325,31.4475 L49.1325,31.4475 Z M41.9775,28.1025 L47.3775,28.1025 C46.5206078,19.081822 38.9450355,12.1917663 29.88375,12.1917663 C20.8224645,12.1917663 13.2468922,19.081822 12.39,28.1025 L17.79,28.1025 C18.6289073,22.0666029 23.7898334,17.5733661 29.88375,17.5733661 C35.9776666,17.5733661 41.1385927,22.0666029 41.9775,28.1025 L41.9775,28.1025 Z" id="Shape" fill="#FA8366"></path>
                        <path d="M25.29,21.825 C24.901231,21.8257464 24.524457,21.6904262 24.225,21.4425 L17.3025,15.7275 C16.5900527,15.1393167 16.4893167,14.0849473 17.0775,13.3725 C17.6656833,12.6600527 18.7200527,12.5593167 19.4325,13.1475 L26.355,18.8625 C26.8993279,19.3116752 27.1031359,20.0541857 26.86439,20.7183029 C26.6256441,21.38242 25.9957274,21.8252118 25.29,21.825 L25.29,21.825 Z" id="Shape" fill="#FA8366"></path>
                        <path d="M34.4775,21.825 C33.7717726,21.8252118 33.1418559,21.38242 32.90311,20.7183029 C32.6643641,20.0541857 32.8681721,19.3116752 33.4125,18.8625 L40.335,13.1475 C40.7958726,12.7670121 41.4247243,12.6612995 41.9846728,12.8701829 C42.5446212,13.0790664 42.9505969,13.5708116 43.0496728,14.1601829 C43.1487486,14.7495543 42.9258726,15.3470121 42.465,15.7275 L35.5425,21.4425 C35.243043,21.6904262 34.866269,21.8257464 34.4775,21.825 L34.4775,21.825 Z" id="Shape" fill="#FA8366"></path>
                    </g>
                </g>
            </g>
        </g>
    </g>
</svg>