<?xml version="1.0" encoding="UTF-8" standalone="no"?>
<svg width="60px" height="60px" viewBox="0 0 60 60" version="1.1" xmlns="http://www.w3.org/2000/svg" xmlns:xlink="http://www.w3.org/1999/xlink">
    <!-- Generator: Sketch 40.1 (33804) - http://www.bohemiancoding.com/sketch -->
    <title>Time</title>
    <desc>Created with Sketch.</desc>
    <defs></defs>
    <g id="Page-1" stroke="none" stroke-width="1" fill="none" fill-rule="evenodd">
        <g id="Sail-Delivery-1" transform="translate(-1141.000000, -2667.000000)">
            <g id="Why-us" transform="translate(0.000000, 2187.000000)">
                <g id="Time" transform="translate(1054.000000, 480.000000)">
                    <g transform="translate(87.000000, 0.000000)">
                        <path d="M29.94,59.8125 C18.2932418,59.8148082 7.72572568,52.9926412 2.93333132,42.3775605 C-1.85906303,31.7624797 0.0129479202,19.3242349 7.7175,10.59 C8.35331782,9.8692684 9.4530184,9.80043218 10.17375,10.43625 C10.8944816,11.0720678 10.9633178,12.1717684 10.3275,12.8925 C1.46555737,22.9374194 1.65540087,38.062745 10.766667,47.882076 C19.8779331,57.701407 34.9468155,59.0206106 45.6256724,50.9338035 C56.3045292,42.8469965 59.1196322,27.9847385 52.1378799,16.5527848 C45.1561276,5.12083102 30.6486162,0.837884837 18.5775,6.645 C17.722591,7.00112843 16.7385373,6.62520483 16.3388167,5.78978867 C15.939096,4.9543725 16.2637976,3.95225019 17.0775,3.51 C21.0970415,1.55826037 25.5091839,0.550137131 29.9775,0.5625 C46.3389357,0.572855339 59.5941053,13.8448143 59.58375,30.20625 C59.5733947,46.5676857 46.3014357,59.8228553 29.94,59.8125 L29.94,59.8125 Z" id="Shape" fill="#FA8366"></path>
                        <circle id="Oval" fill="#FFB7A5" cx="29.9475" cy="30.195" r="20.91"></circle>
                        <path d="M29.94,52.845 C17.4266083,52.845 7.2825,42.7008917 7.2825,30.1875 C7.2825,17.6741083 17.4266083,7.53 29.94,7.53 C42.4533917,7.53 52.5975,17.6741083 52.5975,30.1875 C52.5850972,42.6957507 42.4482507,52.8325972 29.94,52.845 L29.94,52.845 Z M29.94,11.025 C19.3527013,11.025 10.77,19.6077013 10.77,30.195 C10.77,40.7822987 19.3527013,49.365 29.94,49.365 C40.5272987,49.365 49.11,40.7822987 49.11,30.195 C49.0976014,19.6128413 40.5221587,11.0373986 29.94,11.025 L29.94,11.025 Z" id="Shape" fill="#FA8366"></path>
                        <path d="M29.385,36.255 C28.1135446,36.2564575 26.8937872,35.7518234 25.995,34.8525 L21.2925,30.15 C20.6111187,29.4686187 20.6111187,28.3638813 21.2925,27.6825 C21.9738813,27.0011187 23.0786187,27.0011187 23.76,27.6825 L28.4625,32.385 C28.7087961,32.6323196 29.0434602,32.7713487 29.3925,32.7713487 C29.7415398,32.7713487 30.0762039,32.6323196 30.3225,32.385 L37.53,25.1775 C38.2113813,24.4961187 39.3161187,24.4961187 39.9975,25.1775 C40.6788813,25.8588813 40.6788813,26.9636187 39.9975,27.645 L32.79,34.8525 C31.887544,35.755516 30.6616499,36.2604548 29.385,36.255 L29.385,36.255 Z" id="Shape" fill="#FA8366"></path>
                    </g>
                </g>
            </g>
        </g>
    </g>
</svg>