<?xml version="1.0" encoding="UTF-8" standalone="no"?>
<svg width="40px" height="40px" viewBox="0 0 40 40" version="1.1" xmlns="http://www.w3.org/2000/svg" xmlns:xlink="http://www.w3.org/1999/xlink">
    <!-- Generator: Sketch 40.1 (33804) - http://www.bohemiancoding.com/sketch -->
    <title>facebook_tablet</title>
    <desc>Created with Sketch.</desc>
    <defs>
        <polygon id="path-1" points="0.00584593326 39.902871 39.9084326 39.902871 39.9084326 0.0389294404 0.00584593326 0.0389294404"></polygon>
    </defs>
    <g id="Sail-Delivery" stroke="none" stroke-width="1" fill="none" fill-rule="evenodd">
        <g id="iPhone-7" transform="translate(-39.000000, -3402.000000)">
            <g id="Footer" transform="translate(39.000000, 3402.000000)">
                <g id="Social">
                    <g id="facebook_tablet">
                        <path d="M28.4559571,24.0170316 C28.4399782,22.3374209 27.0720298,20.9844282 25.3906419,20.9844282 L22.580307,20.9844282 L22.580307,16.7272993 C22.580307,15.5388808 23.5450808,14.5750852 24.7348257,14.5750852 L25.7647817,14.5750852 C27.2870627,14.5750852 28.5213341,13.3421898 28.5213341,11.8211192 C28.5213341,10.300438 27.2870627,9.06725061 25.7647817,9.06725061 L23.2292056,9.06725061 C19.4844956,9.06725061 16.4488973,12.099854 16.4488973,15.840292 L16.4488973,20.9844282 L14.4523162,20.9844282 C12.7594314,20.9844282 11.3866114,22.3553285 11.3866114,24.0467153 C11.3866114,25.7381022 12.7590416,27.1090024 14.4523162,27.1090024 L16.4488973,27.1090024 L16.4488973,38.7717762 L22.580307,38.7717762 L22.580307,27.1090024 L25.3906419,27.1090024 C27.0953161,27.1090024 28.472618,25.7198054 28.4559571,24.0170316 L28.4559571,24.0170316 Z" id="Fill-1" fill="#FFB7A5"></path>
                        <path d="M22.580307,39.902871 L16.4488973,39.902871 C15.8235773,39.902871 15.3166374,39.396399 15.3166374,38.7717762 L15.3166374,28.24 L14.4523162,28.24 C12.1375215,28.24 10.2543515,26.3588321 10.2543515,24.0467153 C10.2543515,21.7348905 12.1375215,19.85382 14.4523162,19.85382 L15.3166374,19.85382 L15.3166374,15.840292 C15.3166374,11.4824331 18.866483,7.93654501 23.2292056,7.93654501 L25.7643919,7.93654501 C27.9089726,7.93654501 29.6533016,9.67931873 29.6533016,11.8211192 C29.6533016,13.963017 27.9089726,15.7057908 25.7643919,15.7057908 L24.7348257,15.7057908 C24.1711803,15.7057908 23.7121771,16.1641849 23.7121771,16.7272993 L23.7121771,19.85382 L25.3902522,19.85382 C27.6825401,19.85382 29.56571,21.7165937 29.5878272,24.0060341 C29.598837,25.1340146 29.167602,26.1962044 28.3729448,26.9975669 C27.5786773,27.7985401 26.5191019,28.24 25.3902522,28.24 L23.7121771,28.24 L23.7121771,38.7717762 C23.7121771,39.396399 23.205627,39.902871 22.580307,39.902871 L22.580307,39.902871 Z M17.5807674,37.6411679 L21.4484368,37.6411679 L21.4484368,27.1090024 C21.4484368,26.4846715 21.9553767,25.9782968 22.580307,25.9782968 L25.3906419,25.9782968 C25.9105403,25.9782968 26.3983834,25.7748905 26.7645337,25.4058394 C27.1302943,25.036983 27.3293483,24.5473479 27.3239895,24.0280292 C27.3137591,22.9730414 26.4464175,22.1150365 25.3906419,22.1150365 L22.580307,22.1150365 C21.954987,22.1150365 21.4484368,21.6086618 21.4484368,20.9844282 L21.4484368,16.7272993 C21.4484368,14.9168856 22.9228786,13.4440876 24.7348257,13.4440876 L25.7647817,13.4440876 C26.6606709,13.4440876 27.389464,12.7161071 27.389464,11.8211192 C27.389464,10.9262287 26.6606709,10.1978589 25.7647817,10.1978589 L23.2292056,10.1978589 C20.1147846,10.1978589 17.5807674,12.7290511 17.5807674,15.840292 L17.5807674,20.9840389 C17.5807674,21.6086618 17.0738276,22.1150365 16.4488973,22.1150365 L14.4523162,22.1150365 C13.3863103,22.1150365 12.5188712,22.9814112 12.5188712,24.0467153 C12.5188712,25.1115328 13.3863103,25.9779075 14.4523162,25.9779075 L16.4488973,25.9779075 C17.0738276,25.9779075 17.5807674,26.4843796 17.5807674,27.1090024 L17.5807674,37.6411679 Z" id="Fill-2" fill="#FA8366"></path>
                        <g id="Group-6">
                            <mask id="mask-2" fill="white">
                                <use xlink:href="#path-1"></use>
                            </mask>
                            <g id="Clip-4"></g>
                            <path d="M33.7089178,39.902871 L30.7650033,39.902871 C30.1396833,39.902871 29.6331331,39.396399 29.6331331,38.7717762 C29.6331331,38.1475426 30.1396833,37.6411679 30.7650033,37.6411679 L33.7089178,37.6411679 C35.8786359,37.6411679 37.6442052,35.8775669 37.6442052,33.7102676 L37.6442052,6.23153285 C37.6442052,4.06413625 35.8786359,2.30053528 33.7089178,2.30053528 L16.7088465,2.30053528 C16.0839162,2.30053528 15.5769763,1.79416058 15.5769763,1.16953771 C15.5769763,0.545304136 16.0839162,0.0389294404 16.7088465,0.0389294404 L33.7089178,0.0389294404 C37.1274247,0.0389294404 39.9084326,2.81683698 39.9084326,6.23153285 L39.9084326,33.7102676 C39.9084326,37.1249635 37.1274247,39.902871 33.7089178,39.902871 L33.7089178,39.902871 Z" id="Fill-3" fill="#FA8366" mask="url(#mask-2)"></path>
                            <path d="M22.580307,39.902871 L6.19951479,39.902871 C2.78100789,39.902871 0,37.1249635 0,33.7102676 L0,6.23153285 C0,2.81683698 2.78100789,0.0389294404 6.19951479,0.0389294404 L8.74717251,0.0389294404 C9.37210278,0.0389294404 9.87914005,0.545304136 9.87914005,1.16953771 C9.87914005,1.79416058 9.37210278,2.30053528 8.74717251,2.30053528 L6.19951479,2.30053528 C4.02969923,2.30053528 2.26412995,4.06374696 2.26412995,6.23153285 L2.26412995,33.7102676 C2.26412995,35.8775669 4.0293095,37.6411679 6.19951479,37.6411679 L22.580307,37.6411679 C23.205627,37.6411679 23.7121771,38.1475426 23.7121771,38.7717762 C23.7121771,39.396399 23.205627,39.902871 22.580307,39.902871 L22.580307,39.902871 Z" id="Fill-5" fill="#FA8366" mask="url(#mask-2)"></path>
                        </g>
                    </g>
                </g>
            </g>
        </g>
    </g>
</svg>