<?xml version="1.0" encoding="UTF-8" standalone="no"?>
<svg width="40px" height="40px" viewBox="0 0 40 40" version="1.1" xmlns="http://www.w3.org/2000/svg" xmlns:xlink="http://www.w3.org/1999/xlink">
    <!-- Generator: Sketch 40.1 (33804) - http://www.bohemiancoding.com/sketch -->
    <title>instagram_tablet</title>
    <desc>Created with Sketch.</desc>
    <defs>
        <polygon id="path-1" points="0.00583367493 0.0389294404 0.00583367493 39.902871 39.8247487 39.902871 39.8247487 0.0389294404 0.00583367493 0.0389294404"></polygon>
    </defs>
    <g id="Sail-Delivery" stroke="none" stroke-width="1" fill="none" fill-rule="evenodd">
        <g id="iPhone-7" transform="translate(-306.000000, -3402.000000)">
            <g id="Footer" transform="translate(39.000000, 3402.000000)">
                <g id="Social">
                    <g id="instagram_tablet" transform="translate(266.964286, 0.000000)">
                        <g id="Group-4">
                            <mask id="mask-2" fill="white">
                                <use xlink:href="#path-1"></use>
                            </mask>
                            <g id="Clip-2"></g>
                            <path d="M33.6382336,39.902871 L30.7004922,39.902871 C30.0764834,39.902871 29.5709955,39.396399 29.5709955,38.7717762 C29.5709955,38.1475426 30.0764834,37.6411679 30.7004922,37.6411679 L33.6382336,37.6411679 C35.8034021,37.6411679 37.5652691,35.8775669 37.5652691,33.7102676 L37.5652691,6.23153285 C37.5652691,4.06413625 35.8034021,2.30053528 33.6382336,2.30053528 L16.6738097,2.30053528 C16.0501898,2.30053528 15.544313,1.79416058 15.544313,1.16953771 C15.544313,0.545304136 16.0501898,0.0389294404 16.6738097,0.0389294404 L33.6382336,0.0389294404 C37.0491834,0.0389294404 39.8247487,2.81683698 39.8247487,6.23153285 L39.8247487,33.7102676 C39.8247487,37.1249635 37.0495723,39.902871 33.6382336,39.902871 L33.6382336,39.902871 Z" id="Fill-1" fill="#FA8366" mask="url(#mask-2)"></path>
                            <path d="M22.5329583,39.902871 L6.18651504,39.902871 C2.77517639,39.902871 0,37.1249635 0,33.7102676 L0,6.23153285 C0,2.81683698 2.77517639,0.0389294404 6.18651504,0.0389294404 L8.72883057,0.0389294404 C9.35245043,0.0389294404 9.8584245,0.545304136 9.8584245,1.16953771 C9.8584245,1.79416058 9.35245043,2.30053528 8.72883057,2.30053528 L6.18651504,2.30053528 C4.02124936,2.30053528 2.2593823,4.06374696 2.2593823,6.23153285 L2.2593823,33.7102676 C2.2593823,35.8775669 4.02086045,37.6411679 6.18651504,37.6411679 L22.5329583,37.6411679 C23.1569671,37.6411679 23.6628439,38.1475426 23.6628439,38.7717762 C23.6628439,39.396399 23.1569671,39.902871 22.5329583,39.902871 L22.5329583,39.902871 Z" id="Fill-3" fill="#FA8366" mask="url(#mask-2)"></path>
                        </g>
                        <path d="M27.9705267,7.98491484 L11.8542219,7.98491484 C9.69128971,7.98491484 7.93817317,9.73975669 7.93817317,11.9048175 L7.93817317,28.036983 C7.93817317,30.2020438 9.69128971,31.9568856 11.8542219,31.9568856 L27.9705267,31.9568856 C30.13307,31.9568856 31.8865755,30.2020438 31.8865755,28.036983 L31.8865755,11.9048175 C31.8865755,9.73975669 30.133459,7.98491484 27.9705267,7.98491484 L27.9705267,7.98491484 Z M19.9123743,25.7931873 C16.7000612,25.7931873 14.0958115,23.1863747 14.0958115,19.9709002 C14.0958115,16.7554258 16.7000612,14.1486131 19.9123743,14.1486131 C23.1246874,14.1486131 25.7289372,16.7554258 25.7289372,19.9709002 C25.7289372,23.1863747 23.1246874,25.7931873 19.9123743,25.7931873 L19.9123743,25.7931873 Z" id="Fill-5" fill="#FFB7A5"></path>
                        <path d="M27.9705267,33.0874939 L11.8542219,33.0874939 C9.07185066,33.0874939 6.80857924,30.8220925 6.80857924,28.036983 L6.80857924,11.9048175 C6.80857924,9.11970803 9.07185066,6.85381995 11.8542219,6.85381995 L27.9705267,6.85381995 C30.752898,6.85381995 33.0160722,9.11970803 33.0160722,11.9048175 L33.0160722,28.036983 C33.0160722,30.8217032 30.7525091,33.0874939 27.9705267,33.0874939 L27.9705267,33.0874939 Z M11.8542219,9.11552311 C10.3179236,9.11552311 9.06766986,10.366618 9.06766986,11.9048175 L9.06766986,28.036983 C9.06766986,29.5746959 10.3179236,30.8262774 11.8542219,30.8262774 L27.9705267,30.8262774 C29.5067278,30.8262774 30.7570788,29.5746959 30.7570788,28.036983 L30.7570788,11.9048175 C30.7570788,10.366618 29.5067278,9.11552311 27.9705267,9.11552311 L11.8542219,9.11552311 Z M19.9123743,26.9237956 C16.0820806,26.9237956 12.9662176,23.8048662 12.9662176,19.9709002 C12.9662176,16.136837 16.0820806,13.0179075 19.9123743,13.0179075 C23.7425708,13.0179075 26.8584338,16.136837 26.8584338,19.9709002 C26.8584338,23.8048662 23.7425708,26.9237956 19.9123743,26.9237956 L19.9123743,26.9237956 Z M19.9123743,15.2792214 C17.3278619,15.2792214 15.2256971,17.3838443 15.2256971,19.9709002 C15.2256971,22.5579562 17.3278619,24.6621898 19.9123743,24.6621898 C22.4968868,24.6621898 24.5994405,22.5579562 24.5994405,19.9709002 C24.5994405,17.3838443 22.4964979,15.2792214 19.9123743,15.2792214 L19.9123743,15.2792214 Z" id="Fill-6" fill="#FA8366"></path>
                        <path d="M28.5348376,12.84691 C28.5348376,13.7262287 27.8227403,14.4390268 26.9442861,14.4390268 C26.0658319,14.4390268 25.3537346,13.7262287 25.3537346,12.84691 C25.3537346,11.9674939 26.0658319,11.2546959 26.9442861,11.2546959 C27.8227403,11.2546959 28.5348376,11.9674939 28.5348376,12.84691 L28.5348376,12.84691 Z" id="Fill-7" fill="#FA8366"></path>
                    </g>
                </g>
            </g>
        </g>
    </g>
</svg>