<?xml version="1.0" encoding="UTF-8" standalone="no"?>
<svg width="41px" height="40px" viewBox="0 0 41 40" version="1.1" xmlns="http://www.w3.org/2000/svg" xmlns:xlink="http://www.w3.org/1999/xlink">
    <!-- Generator: Sketch 40.1 (33804) - http://www.bohemiancoding.com/sketch -->
    <title>vk_tablet</title>
    <desc>Created with Sketch.</desc>
    <defs>
        <polygon id="path-1" points="0.00584593326 0.0389294404 0.00584593326 39.902871 39.9084326 39.902871 39.9084326 0.0389294404 0.00584593326 0.0389294404"></polygon>
    </defs>
    <g id="Sail-Delivery" stroke="none" stroke-width="1" fill="none" fill-rule="evenodd">
        <g id="iPhone-7" transform="translate(-172.000000, -3402.000000)">
            <g id="Footer" transform="translate(39.000000, 3402.000000)">
                <g id="Social">
                    <g id="vk_tablet" transform="translate(133.482143, 0.000000)">
                        <g id="Group-4">
                            <mask id="mask-2" fill="white">
                                <use xlink:href="#path-1"></use>
                            </mask>
                            <g id="Clip-2"></g>
                            <path d="M33.7089178,39.902871 L30.7650033,39.902871 C30.1396833,39.902871 29.6331331,39.396399 29.6331331,38.7717762 C29.6331331,38.1475426 30.1396833,37.6411679 30.7650033,37.6411679 L33.7089178,37.6411679 C35.8786359,37.6411679 37.6442052,35.8775669 37.6442052,33.7102676 L37.6442052,6.23153285 C37.6442052,4.06413625 35.8786359,2.30053528 33.7089178,2.30053528 L16.7088465,2.30053528 C16.0839162,2.30053528 15.5769763,1.79416058 15.5769763,1.16953771 C15.5769763,0.545304136 16.0839162,0.0389294404 16.7088465,0.0389294404 L33.7089178,0.0389294404 C37.127035,0.0389294404 39.9084326,2.81683698 39.9084326,6.23153285 L39.9084326,33.7102676 C39.9084326,37.1249635 37.1274247,39.902871 33.7089178,39.902871 L33.7089178,39.902871 Z" id="Fill-1" fill="#FA8366" mask="url(#mask-2)"></path>
                            <path d="M22.580307,39.902871 L6.19951479,39.902871 C2.78100789,39.902871 0,37.1249635 0,33.7102676 L0,6.23153285 C0,2.81683698 2.78100789,0.0389294404 6.19951479,0.0389294404 L8.74717251,0.0389294404 C9.37210278,0.0389294404 9.87914005,0.545304136 9.87914005,1.16953771 C9.87914005,1.79416058 9.37210278,2.30053528 8.74717251,2.30053528 L6.19951479,2.30053528 C4.02969923,2.30053528 2.26412995,4.06374696 2.26412995,6.23153285 L2.26412995,33.7102676 C2.26412995,35.8775669 4.0293095,37.6411679 6.19951479,37.6411679 L22.580307,37.6411679 C23.205627,37.6411679 23.7125668,38.1475426 23.7125668,38.7721655 C23.7125668,39.396399 23.205627,39.902871 22.580307,39.902871 L22.580307,39.902871 Z" id="Fill-3" fill="#FA8366" mask="url(#mask-2)"></path>
                        </g>
                        <path d="M31.9258107,27.8000973 C31.0066352,27.8000973 29.8823648,27.7742092 29.4021214,27.763601 C29.2574345,27.7601946 29.1634124,27.7579562 29.1375929,27.7579562 C28.3683655,27.7544526 27.7061187,27.4909976 27.1691697,26.9751825 C26.7333554,26.5562044 26.3116687,26.0981022 25.9036226,25.6551825 C25.6726108,25.4046715 25.4339993,25.1454015 25.1934391,24.8937226 C24.950638,24.6400973 24.7218672,24.4328954 24.4942655,24.2599513 C24.1989484,24.0349392 23.8838526,23.9159124 23.5846383,23.9159124 C23.0894877,23.9159124 22.681539,24.2268613 22.4657267,24.7690511 C22.2179565,25.3943552 22.0276714,26.9211679 22.0204614,27.0154745 C21.9899651,27.4442822 21.7445334,27.6647202 21.2703307,27.6906083 C20.9589374,27.7073479 20.6536822,27.7161071 20.3629445,27.7161071 C18.4885434,27.7161071 16.906439,27.3571776 15.5252398,26.6181995 C14.129231,25.8711436 12.8770321,24.7770316 11.6979073,23.273382 C10.2082661,21.3741119 8.86711157,19.1725547 7.34853298,16.1349878 C7.27545881,15.9890024 6.11007202,13.5072506 5.99812239,13.227056 C5.96655435,13.0966423 5.94911399,12.8836983 6.05979699,12.8122628 C6.14397843,12.8042822 6.39973801,12.7909489 7.16389892,12.7909489 C8.43850723,12.7909489 10.3140775,12.8293917 10.4176479,12.8331873 C10.9428076,12.8613139 11.2286737,13.0677372 11.4323071,13.5691484 C12.3221556,15.7631144 13.3809515,17.6134307 14.6703695,19.2254015 C14.8656237,19.4709489 15.1209935,19.7051095 15.4084186,19.9017032 C15.6101033,20.039708 15.8263054,20.1127007 16.0336412,20.1127007 C16.4287288,20.1127007 16.7541524,19.8606326 16.9041006,19.4382482 C17.0765557,18.9573723 17.2151043,18.0727007 17.2237757,17.603601 C17.2462826,16.4523601 17.2207553,15.7016058 17.158691,14.5492944 C17.100524,13.4836983 16.5931944,12.8472019 15.6097136,12.6084672 C15.9088305,12.2853528 16.3164869,12.2024331 16.9390788,12.1694404 C17.2877887,12.1507543 17.6691384,12.1416058 18.1048553,12.1416058 C18.5101734,12.1416058 18.92465,12.1492944 19.3254862,12.1568856 C19.6066756,12.1621411 19.8883521,12.1671046 20.1696389,12.1701217 C20.6339035,12.1743066 21.0362011,12.2145985 21.4005002,12.2945012 C21.6215739,12.3423844 21.9260496,12.4682238 22.0162718,13.0031144 C22.0623573,13.2745499 22.0825257,13.5380049 22.0767772,13.7862774 C22.0653777,14.2960584 22.0478399,14.8145985 22.0314713,15.3161071 C22.0075029,16.0372749 21.9827551,16.7827737 21.974376,17.5184428 C21.9675557,18.0894404 22.0162718,18.6155718 22.1186731,19.0828224 C22.2544936,19.6960584 22.6225925,20.0617032 23.1040051,20.0617032 C23.3064693,20.0617032 23.6166935,19.9902676 23.9455272,19.649635 C24.4668871,19.1086131 24.970027,18.4795134 25.5775169,17.609635 C26.3698358,16.4744526 27.0545894,15.1499757 27.7316459,13.4418491 C27.9588579,12.8704623 28.0171223,12.8301703 28.6222739,12.8290024 C29.4165413,12.826764 30.2104191,12.8255961 31.004784,12.8255961 C31.7016192,12.8255961 32.3984544,12.826764 33.0953871,12.8290024 C33.3609874,12.8301703 33.5756305,12.8575182 33.751106,12.9129927 C33.871045,12.9514355 33.9749078,13.00691 33.9174228,13.2605353 C33.7055077,14.2006813 33.1612513,15.0218005 32.6683417,15.7175669 C32.0689387,16.5622384 31.4386496,17.4100243 30.8289188,18.2296837 C30.5080745,18.6612165 30.1872302,19.0930414 29.8687243,19.5264234 C29.7521953,19.6853528 29.6399534,19.862871 29.5162145,20.0845742 C29.0645187,20.9011192 29.136034,21.4740633 29.771292,22.1291484 C30.1087972,22.476983 30.4597481,22.8190754 30.7988122,23.1494891 C31.2779839,23.6167397 31.7731344,24.099562 32.2276558,24.5960097 C32.802311,25.2248175 33.3080817,25.8821411 33.7309375,26.5486131 C33.9265814,26.8573236 33.9825075,27.1564964 33.8842958,27.3686618 C33.7895917,27.573528 33.5464009,27.7137713 33.1996396,27.7628224 C33.0999664,27.776545 32.8007521,27.8000973 31.9258107,27.8000973 L31.9258107,27.8000973 Z" id="Fill-5" fill="#FFB7A5"></path>
                        <path d="M31.9258107,28.9310949 C30.9986457,28.9310949 29.8671653,28.9053041 29.3841938,28.8942092 C29.2464247,28.8911922 29.1596126,28.8889538 29.1310649,28.8889538 C28.0776277,28.8839903 27.1272739,28.5041363 26.3843532,27.7898783 C25.9215501,27.3450122 25.4887562,26.8751338 25.0704797,26.4208273 L25.0560597,26.4048662 C24.8334271,26.1635036 24.6031947,25.913674 24.3748136,25.6749392 C24.1742007,25.4651095 23.9888846,25.2966423 23.8092196,25.1601946 C23.7053568,25.0807786 23.6288725,25.0541119 23.5969148,25.0480779 C23.5808384,25.0652068 23.5500499,25.1058881 23.5177024,25.1868613 C23.364344,25.5742092 23.1850688,26.7580535 23.1489214,27.1092944 C23.0735089,28.10618 22.3778428,28.7623358 21.3319079,28.8197567 C20.999664,28.8375669 20.6739481,28.8467153 20.3629445,28.8467153 C18.2970891,28.8467153 16.539899,28.4436983 14.9908241,27.6149878 C13.4528565,26.7923114 12.0846158,25.6000973 10.8065974,23.9706083 C9.26862976,22.0093431 7.88976897,19.7485158 6.33572504,16.6398054 C6.26956856,16.5079319 5.07904425,13.977129 4.94663386,13.6460341 C4.92714742,13.5965937 4.91077881,13.5459854 4.89821005,13.4943066 C4.73228298,12.81382 4.94127509,12.1891971 5.44324589,11.863747 C5.59631191,11.7644769 5.77091045,11.7036496 5.95291384,11.686618 C6.02218815,11.679708 6.2337135,11.6599513 7.16389892,11.6599513 C8.46900352,11.6599513 10.3461327,11.6991727 10.4572054,11.7029684 C10.4644154,11.7033577 10.4713331,11.7033577 10.4785431,11.7040389 C11.4402965,11.7558151 12.1143326,12.2404866 12.4812624,13.1441363 C13.329215,15.2362044 14.3347155,16.9941606 15.5545669,18.5198054 C15.6466404,18.6361071 15.7654103,18.7520195 15.8978206,18.8581022 C16.0006116,18.4665693 16.0858648,17.8810706 16.0915159,17.5830657 C16.1132433,16.4653041 16.0884955,15.7339173 16.0279901,14.6101217 C15.9933042,13.9759611 15.7790508,13.8136253 15.3421647,13.7075426 C14.9520461,13.612944 14.6414322,13.3190268 14.5257801,12.9354745 C14.4097383,12.5518248 14.5060014,12.1355718 14.7781296,11.8413625 C15.3676919,11.2045742 16.1356527,11.0801946 16.8785734,11.0406813 C17.2474518,11.0205353 17.64897,11.0109976 18.1048553,11.0109976 C18.5227421,11.0109976 18.9414084,11.0185888 19.3463367,11.0265693 C19.6246031,11.0315328 19.9027721,11.0368856 20.1810385,11.0395134 C20.7222745,11.0444769 21.2006667,11.0939173 21.6417424,11.1896837 C22.4439993,11.3641849 22.9879634,11.9568856 23.1325528,12.8156691 C23.1904275,13.1570803 23.2158573,13.4927494 23.2082576,13.813236 C23.1968581,14.3189294 23.1800997,14.8317275 23.1633414,15.3278832 L23.1625619,15.353674 C23.1385936,16.0752311 23.1142355,16.8112895 23.1058564,17.5316788 C23.100595,17.9917275 23.1359629,18.4109976 23.211278,18.779854 C23.6616097,18.3022871 24.1087262,17.736253 24.648793,16.963017 C25.3894728,15.9015085 26.0345715,14.6504136 26.6788908,13.0258881 C27.0773886,12.0230657 27.5489605,11.7006326 28.6195458,11.6983942 C30.1123048,11.6945985 31.6057459,11.6934307 33.0984075,11.6983942 C33.4820956,11.699854 33.8070321,11.7447202 34.0932879,11.8356204 C34.8232501,12.0679319 35.1954412,12.7408273 35.021135,13.5106569 C34.7635242,14.6526521 34.1480448,15.5859854 33.5917069,16.3710949 C32.9865553,17.2241363 32.3543176,18.0745499 31.7427356,18.8969343 C31.4177017,19.3341119 31.0980266,19.7640876 30.7809821,20.1955231 C30.6930983,20.3157178 30.6047273,20.4555718 30.5046644,20.6354258 C30.2842727,21.0334793 30.3124306,21.0627737 30.5837793,21.3425791 C30.9111516,21.6793187 31.2555745,22.0154745 31.5889876,22.340438 C32.0821895,22.8214112 32.5880575,23.3144526 33.0630396,23.833382 C33.6826111,24.5116302 34.2288161,25.2214112 34.6870399,25.943747 C35.0923579,26.5835523 35.174201,27.2758151 34.9119135,27.8431144 C34.7605038,28.1700243 34.3578164,28.7406326 33.3583567,28.8824331 C33.2084085,28.9029684 32.8981843,28.9310949 31.9258107,28.9310949 L31.9258107,28.9310949 Z M23.5846383,22.7849148 C24.1342535,22.7849148 24.6861096,22.9841363 25.1808704,23.3608759 C25.4553369,23.5691484 25.7274651,23.8155718 26.0117724,24.1124088 C26.2545734,24.3664234 26.4920158,24.623747 26.7215661,24.8731873 L26.7363758,24.8895377 C27.1322429,25.3195134 27.5413608,25.7635036 27.9538888,26.1603893 C28.278533,26.4722141 28.6674824,26.6250122 29.1424645,26.6272506 C29.1703301,26.6272506 29.2719519,26.6295864 29.4279409,26.633382 C29.9109124,26.6439903 31.024173,26.6694891 31.925421,26.6694891 C32.1343157,26.6694891 32.3067707,26.6679319 32.4475603,26.6660827 C32.1340234,26.2216058 31.7800521,25.7832603 31.3911027,25.3582482 C30.9606472,24.8875912 30.4783577,24.4173236 30.0121445,23.9626277 C29.663532,23.623163 29.3073198,23.2761071 28.9579279,22.9161071 C27.9714266,21.8986861 27.8302473,20.7935766 28.5252314,19.537129 C28.6744001,19.2702676 28.8102206,19.0557664 28.9552972,18.8577129 C29.275362,18.4220925 29.5976678,17.9887105 29.920071,17.5552311 C30.5294121,16.7356691 31.1539527,15.8954745 31.7442945,15.0636496 C31.9855367,14.723017 32.2405168,14.3496837 32.4471706,13.9577616 C31.2132889,13.9550365 29.9787252,13.9562044 28.7436744,13.9592214 C28.046352,15.7019951 27.3339276,17.0701703 26.5057537,18.2563504 C25.8628959,19.1774209 25.3247778,19.8488564 24.7607426,20.4339659 C24.1552014,21.0608273 23.5256918,21.1924088 23.1040051,21.1924088 C22.084377,21.1924088 21.2638028,20.460146 21.0130123,19.3265207 C20.8916117,18.7741119 20.8345164,18.1616545 20.8421161,17.5051095 C20.8504953,16.7606813 20.8756328,16.0121655 20.8996011,15.2879805 L20.9003806,15.2533333 C20.9167492,14.7629197 20.9335076,14.2557664 20.9449071,13.7607786 C20.9479275,13.6327007 20.9407175,13.4969343 20.9235695,13.3563017 C20.6947986,13.3216545 20.4424492,13.303455 20.1589214,13.3008273 C19.8731527,13.2981022 19.5884557,13.2928467 19.3037588,13.2874939 C18.8839234,13.2795134 18.4462578,13.2711436 18.0287608,13.2723114 C18.1760783,13.63309 18.2639621,14.0398054 18.2883202,14.4880779 C18.3522357,15.6685158 18.3781527,16.4387348 18.3549638,17.6255961 C18.344636,18.1935766 18.1870881,19.2120681 17.9694245,19.819562 C17.6576414,20.6966423 16.9155002,21.243309 16.0333489,21.243309 C15.5963654,21.243309 15.1586998,21.1018978 14.767412,20.8338686 C14.3887904,20.5749878 14.0485571,20.2617032 13.7836389,19.9290511 C12.4267978,18.2324088 11.3139269,16.2900243 10.3825723,13.9938686 C10.3780905,13.9820925 10.3739009,13.9721655 10.3697113,13.963017 C10.3689318,13.963017 10.3677626,13.9626277 10.3669832,13.9626277 C10.1946256,13.9581509 8.73236281,13.9288564 7.5593763,13.9227251 C7.90418893,14.6640389 8.30453793,15.5156204 8.36163321,15.6312409 C9.84406446,18.596983 11.1479999,20.7391727 12.5885353,22.5757664 C13.6690586,23.9535766 14.8039491,24.9495864 16.0595581,25.6213139 C17.2718098,26.2702676 18.6792183,26.5854988 20.3625547,26.5854988 C20.5475785,26.5854988 20.7393251,26.5817032 20.9353588,26.5740146 C21.0096021,26.0179075 21.17436,24.9545499 21.4129715,24.3527007 C21.8042593,23.3707056 22.6156749,22.7849148 23.5846383,22.7849148 L23.5846383,22.7849148 Z" id="Fill-6" fill="#FA8366"></path>
                    </g>
                </g>
            </g>
        </g>
    </g>
</svg>