<?xml version="1.0" encoding="UTF-8" standalone="no"?>
<svg width="45px" height="45px" viewBox="0 0 45 45" version="1.1" xmlns="http://www.w3.org/2000/svg" xmlns:xlink="http://www.w3.org/1999/xlink">
    <!-- Generator: Sketch 40.1 (33804) - http://www.bohemiancoding.com/sketch -->
    <title>facebook_mobile</title>
    <desc>Created with Sketch.</desc>
    <defs>
        <polygon id="path-1" points="0.00657667492 44.8907299 44.8969867 44.8907299 44.8969867 0.0437956204 0.00657667492 0.0437956204"></polygon>
    </defs>
    <g id="Sail-Delivery" stroke="none" stroke-width="1" fill="none" fill-rule="evenodd">
        <g id="iPhone-7" transform="translate(-41.000000, -3647.000000)">
            <g id="Footer" transform="translate(41.000000, 3647.000000)">
                <g id="Social">
                    <g id="facebook_mobile">
                        <path d="M32.0129517,27.0191606 C31.9949754,25.1295985 30.4560335,23.6074818 28.5644722,23.6074818 L25.4028453,23.6074818 L25.4028453,18.8182117 C25.4028453,17.4812409 26.4882159,16.3969708 27.8266789,16.3969708 L28.9853794,16.3969708 C30.6979455,16.3969708 32.0865008,15.0099635 32.0865008,13.2987591 C32.0865008,11.5879927 30.6979455,10.2006569 28.9853794,10.2006569 L26.1328562,10.2006569 C21.9200575,10.2006569 18.5050094,13.6123358 18.5050094,17.8203285 L18.5050094,23.6074818 L16.2588557,23.6074818 C14.3543603,23.6074818 12.8099378,25.1497445 12.8099378,27.0525547 C12.8099378,28.955365 14.3539219,30.4976277 16.2588557,30.4976277 L18.5050094,30.4976277 L18.5050094,43.6182482 L25.4028453,43.6182482 L25.4028453,30.4976277 L28.5644722,30.4976277 C30.4822306,30.4976277 32.0316952,28.934781 32.0129517,27.0191606 L32.0129517,27.0191606 Z" id="Fill-1" fill="#FFB7A5"></path>
                        <path d="M25.4028453,44.8907299 L18.5050094,44.8907299 C17.8015245,44.8907299 17.2312171,44.3209489 17.2312171,43.6182482 L17.2312171,31.77 L16.2588557,31.77 C13.6547117,31.77 11.5361455,29.6536861 11.5361455,27.0525547 C11.5361455,24.4517518 13.6547117,22.3355474 16.2588557,22.3355474 L17.2312171,22.3355474 L17.2312171,17.8203285 C17.2312171,12.9177372 21.2247934,8.92861314 26.1328562,8.92861314 L28.9849409,8.92861314 C31.3975941,8.92861314 33.3599643,10.8892336 33.3599643,13.2987591 C33.3599643,15.7083942 31.3975941,17.6690146 28.9849409,17.6690146 L27.8266789,17.6690146 C27.1925778,17.6690146 26.6761992,18.184708 26.6761992,18.8182117 L26.6761992,22.3355474 L28.5640337,22.3355474 C31.1428576,22.3355474 33.2614238,24.4311679 33.2863056,27.0067883 C33.2986916,28.2757664 32.8135522,29.4707299 31.9195629,30.3722628 C31.026012,31.2733577 29.8339897,31.77 28.5640337,31.77 L26.6761992,31.77 L26.6761992,43.6182482 C26.6761992,44.3209489 26.1063303,44.8907299 25.4028453,44.8907299 L25.4028453,44.8907299 Z M19.7783633,42.3463139 L24.1294915,42.3463139 L24.1294915,30.4976277 C24.1294915,29.7952555 24.6997988,29.2255839 25.4028453,29.2255839 L28.5644722,29.2255839 C29.1493578,29.2255839 29.6981813,28.9967518 30.1101004,28.5815693 C30.521581,28.1666058 30.7455168,27.6157664 30.7394882,27.0315328 C30.727979,25.8446715 29.7522197,24.8794161 28.5644722,24.8794161 L25.4028453,24.8794161 C24.6993603,24.8794161 24.1294915,24.3097445 24.1294915,23.6074818 L24.1294915,18.8182117 C24.1294915,16.7814964 25.7882385,15.1245985 27.8266789,15.1245985 L28.9853794,15.1245985 C29.9932548,15.1245985 30.813147,14.3056204 30.813147,13.2987591 C30.813147,12.2920073 29.9932548,11.4725912 28.9853794,11.4725912 L26.1328562,11.4725912 C22.6291327,11.4725912 19.7783633,14.3201825 19.7783633,17.8203285 L19.7783633,23.6070438 C19.7783633,24.3097445 19.208056,24.8794161 18.5050094,24.8794161 L16.2588557,24.8794161 C15.0595991,24.8794161 14.0837301,25.8540876 14.0837301,27.0525547 C14.0837301,28.2504745 15.0595991,29.225146 16.2588557,29.225146 L18.5050094,29.225146 C19.208056,29.225146 19.7783633,29.794927 19.7783633,30.4976277 L19.7783633,42.3463139 Z" id="Fill-2" fill="#FA8366"></path>
                        <g id="Group-6">
                            <mask id="mask-2" fill="white">
                                <use xlink:href="#path-1"></use>
                            </mask>
                            <g id="Clip-4"></g>
                            <path d="M37.9225325,44.8907299 L34.6106287,44.8907299 C33.9071437,44.8907299 33.3372748,44.3209489 33.3372748,43.6182482 C33.3372748,42.9159854 33.9071437,42.3463139 34.6106287,42.3463139 L37.9225325,42.3463139 C40.3634654,42.3463139 42.3497309,40.3622628 42.3497309,37.9240511 L42.3497309,7.01047445 C42.3497309,4.57215328 40.3634654,2.58810219 37.9225325,2.58810219 L18.7974523,2.58810219 C18.0944057,2.58810219 17.5240984,2.01843066 17.5240984,1.31572993 C17.5240984,0.613467153 18.0944057,0.0437956204 18.7974523,0.0437956204 L37.9225325,0.0437956204 C41.7683528,0.0437956204 44.8969867,3.16894161 44.8969867,7.01047445 L44.8969867,37.9240511 C44.8969867,41.7655839 41.7683528,44.8907299 37.9225325,44.8907299 L37.9225325,44.8907299 Z" id="Fill-3" fill="#FA8366" mask="url(#mask-2)"></path>
                            <path d="M25.4028453,44.8907299 L6.97445414,44.8907299 C3.12863387,44.8907299 0,41.7655839 0,37.9240511 L0,7.01047445 C0,3.16894161 3.12863387,0.0437956204 6.97445414,0.0437956204 L9.84056907,0.0437956204 C10.5436156,0.0437956204 11.1140326,0.613467153 11.1140326,1.31572993 C11.1140326,2.01843066 10.5436156,2.58810219 9.84056907,2.58810219 L6.97445414,2.58810219 C4.53341163,2.58810219 2.5471462,4.57171533 2.5471462,7.01047445 L2.5471462,37.9240511 C2.5471462,40.3622628 4.53297319,42.3463139 6.97445414,42.3463139 L25.4028453,42.3463139 C26.1063303,42.3463139 26.6761992,42.9159854 26.6761992,43.6182482 C26.6761992,44.3209489 26.1063303,44.8907299 25.4028453,44.8907299 L25.4028453,44.8907299 Z" id="Fill-5" fill="#FA8366" mask="url(#mask-2)"></path>
                        </g>
                    </g>
                </g>
            </g>
        </g>
    </g>
</svg>