<?xml version="1.0" encoding="UTF-8" standalone="no"?>
<svg width="45px" height="45px" viewBox="0 0 45 45" version="1.1" xmlns="http://www.w3.org/2000/svg" xmlns:xlink="http://www.w3.org/1999/xlink">
    <!-- Generator: Sketch 40.1 (33804) - http://www.bohemiancoding.com/sketch -->
    <title>instagram_mobile</title>
    <desc>Created with Sketch.</desc>
    <defs>
        <polygon id="path-1" points="0.0065628843 44.8907299 44.8028423 44.8907299 44.8028423 0.0437956204 0.0065628843 0.0437956204"></polygon>
    </defs>
    <g id="Sail-Delivery" stroke="none" stroke-width="1" fill="none" fill-rule="evenodd">
        <g id="iPhone-7" transform="translate(-285.000000, -3647.000000)">
            <g id="Footer" transform="translate(41.000000, 3647.000000)">
                <g id="Social">
                    <g id="instagram_mobile" transform="translate(244.000000, 0.000000)">
                        <g id="Group-4">
                            <mask id="mask-2" fill="white">
                                <use xlink:href="#path-1"></use>
                            </mask>
                            <g id="Clip-2"></g>
                            <path d="M37.8430128,44.8907299 L34.5380537,44.8907299 C33.8360438,44.8907299 33.2673699,44.3209489 33.2673699,43.6182482 C33.2673699,42.9159854 33.8360438,42.3463139 34.5380537,42.3463139 L37.8430128,42.3463139 C40.2788273,42.3463139 42.2609278,40.3622628 42.2609278,37.9240511 L42.2609278,7.01047445 C42.2609278,4.57215328 40.2788273,2.58810219 37.8430128,2.58810219 L18.7580359,2.58810219 C18.0564636,2.58810219 17.4873521,2.01843066 17.4873521,1.31572993 C17.4873521,0.613467153 18.0564636,0.0437956204 18.7580359,0.0437956204 L37.8430128,0.0437956204 C41.6803313,0.0437956204 44.8028423,3.16894161 44.8028423,7.01047445 L44.8028423,37.9240511 C44.8028423,41.7655839 41.6807688,44.8907299 37.8430128,44.8907299 L37.8430128,44.8907299 Z" id="Fill-1" fill="#FA8366" mask="url(#mask-2)"></path>
                            <path d="M25.3495781,44.8907299 L6.95982942,44.8907299 C3.12207344,44.8907299 0,41.7655839 0,37.9240511 L0,7.01047445 C0,3.16894161 3.12207344,0.0437956204 6.95982942,0.0437956204 L9.8199344,0.0437956204 C10.5215067,0.0437956204 11.0907276,0.613467153 11.0907276,1.31572993 C11.0907276,2.01843066 10.5215067,2.58810219 9.8199344,2.58810219 L6.95982942,2.58810219 C4.52390553,2.58810219 2.54180509,4.57171533 2.54180509,7.01047445 L2.54180509,37.9240511 C2.54180509,40.3622628 4.523468,42.3463139 6.95982942,42.3463139 L25.3495781,42.3463139 C26.051588,42.3463139 26.6206994,42.9159854 26.6206994,43.6182482 C26.6206994,44.3209489 26.051588,44.8907299 25.3495781,44.8907299 L25.3495781,44.8907299 Z" id="Fill-3" fill="#FA8366" mask="url(#mask-2)"></path>
                        </g>
                        <path d="M31.4668426,8.9830292 L13.3359997,8.9830292 C10.9027009,8.9830292 8.93044481,10.9572263 8.93044481,13.3929197 L8.93044481,31.5416058 C8.93044481,33.9772993 10.9027009,35.9514964 13.3359997,35.9514964 L31.4668426,35.9514964 C33.8997038,35.9514964 35.8723974,33.9772993 35.8723974,31.5416058 L35.8723974,13.3929197 C35.8723974,10.9572263 33.9001413,8.9830292 31.4668426,8.9830292 L31.4668426,8.9830292 Z M22.4014211,29.0173358 C18.7875689,29.0173358 15.857788,26.0846715 15.857788,22.4672628 C15.857788,18.849854 18.7875689,15.9171898 22.4014211,15.9171898 C26.0152734,15.9171898 28.9450543,18.849854 28.9450543,22.4672628 C28.9450543,26.0846715 26.0152734,29.0173358 22.4014211,29.0173358 L22.4014211,29.0173358 Z" id="Fill-5" fill="#FFB7A5"></path>
                        <path d="M31.4668426,37.2234307 L13.3359997,37.2234307 C10.205832,37.2234307 7.65965165,34.674854 7.65965165,31.5416058 L7.65965165,13.3929197 C7.65965165,10.2596715 10.205832,7.71054745 13.3359997,7.71054745 L31.4668426,7.71054745 C34.5970103,7.71054745 37.1430812,10.2596715 37.1430812,13.3929197 L37.1430812,31.5416058 C37.1430812,34.6744161 34.5965727,37.2234307 31.4668426,37.2234307 L31.4668426,37.2234307 Z M13.3359997,10.2549635 C11.6076641,10.2549635 10.2011286,11.6624453 10.2011286,13.3929197 L10.2011286,31.5416058 C10.2011286,33.2715328 11.6076641,34.679562 13.3359997,34.679562 L31.4668426,34.679562 C33.1950688,34.679562 34.6017137,33.2715328 34.6017137,31.5416058 L34.6017137,13.3929197 C34.6017137,11.6624453 33.1950688,10.2549635 31.4668426,10.2549635 L13.3359997,10.2549635 Z M22.4014211,30.2892701 C18.0923407,30.2892701 14.5869948,26.7804745 14.5869948,22.4672628 C14.5869948,18.1539416 18.0923407,14.645146 22.4014211,14.645146 C26.7103922,14.645146 30.2157381,18.1539416 30.2157381,22.4672628 C30.2157381,26.7804745 26.7103922,30.2892701 22.4014211,30.2892701 L22.4014211,30.2892701 Z M22.4014211,17.1891241 C19.4938446,17.1891241 17.1289093,19.5568248 17.1289093,22.4672628 C17.1289093,25.3777007 19.4938446,27.7449635 22.4014211,27.7449635 C25.3089976,27.7449635 27.6743705,25.3777007 27.6743705,22.4672628 C27.6743705,19.5568248 25.3085601,17.1891241 22.4014211,17.1891241 L22.4014211,17.1891241 Z" id="Fill-6" fill="#FA8366"></path>
                        <path d="M32.1016923,14.4527737 C32.1016923,15.4420073 31.3005829,16.2439051 30.3123219,16.2439051 C29.3240609,16.2439051 28.5229515,15.4420073 28.5229515,14.4527737 C28.5229515,13.4634307 29.3240609,12.6615328 30.3123219,12.6615328 C31.3005829,12.6615328 32.1016923,13.4634307 32.1016923,14.4527737 L32.1016923,14.4527737 Z" id="Fill-7" fill="#FA8366"></path>
                    </g>
                </g>
            </g>
        </g>
    </g>
</svg>