<?xml version="1.0" encoding="UTF-8" standalone="no"?>
<svg width="45px" height="45px" viewBox="0 0 45 45" version="1.1" xmlns="http://www.w3.org/2000/svg" xmlns:xlink="http://www.w3.org/1999/xlink">
    <!-- Generator: Sketch 40.1 (33804) - http://www.bohemiancoding.com/sketch -->
    <title>vk_mobile</title>
    <desc>Created with Sketch.</desc>
    <defs>
        <polygon id="path-1" points="0.00657667492 0.0437956204 0.00657667492 44.8907299 44.8969867 44.8907299 44.8969867 0.0437956204 0.00657667492 0.0437956204"></polygon>
    </defs>
    <g id="Sail-Delivery" stroke="none" stroke-width="1" fill="none" fill-rule="evenodd">
        <g id="iPhone-7" transform="translate(-163.000000, -3647.000000)">
            <g id="Footer" transform="translate(41.000000, 3647.000000)">
                <g id="Social">
                    <g id="vk_mobile" transform="translate(122.000000, 0.000000)">
                        <g id="Group-4">
                            <mask id="mask-2" fill="white">
                                <use xlink:href="#path-1"></use>
                            </mask>
                            <g id="Clip-2"></g>
                            <path d="M37.9225325,44.8907299 L34.6106287,44.8907299 C33.9071437,44.8907299 33.3372748,44.3209489 33.3372748,43.6182482 C33.3372748,42.9159854 33.9071437,42.3463139 34.6106287,42.3463139 L37.9225325,42.3463139 C40.3634654,42.3463139 42.3497309,40.3622628 42.3497309,37.9240511 L42.3497309,7.01047445 C42.3497309,4.57215328 40.3634654,2.58810219 37.9225325,2.58810219 L18.7974523,2.58810219 C18.0944057,2.58810219 17.5240984,2.01843066 17.5240984,1.31572993 C17.5240984,0.613467153 18.0944057,0.0437956204 18.7974523,0.0437956204 L37.9225325,0.0437956204 C41.7679144,0.0437956204 44.8969867,3.16894161 44.8969867,7.01047445 L44.8969867,37.9240511 C44.8969867,41.7655839 41.7683528,44.8907299 37.9225325,44.8907299 L37.9225325,44.8907299 Z" id="Fill-1" fill="#FA8366" mask="url(#mask-2)"></path>
                            <path d="M25.4028453,44.8907299 L6.97445414,44.8907299 C3.12863387,44.8907299 0,41.7655839 0,37.9240511 L0,7.01047445 C0,3.16894161 3.12863387,0.0437956204 6.97445414,0.0437956204 L9.84056907,0.0437956204 C10.5436156,0.0437956204 11.1140326,0.613467153 11.1140326,1.31572993 C11.1140326,2.01843066 10.5436156,2.58810219 9.84056907,2.58810219 L6.97445414,2.58810219 C4.53341163,2.58810219 2.5471462,4.57171533 2.5471462,7.01047445 L2.5471462,37.9240511 C2.5471462,40.3622628 4.53297319,42.3463139 6.97445414,42.3463139 L25.4028453,42.3463139 C26.1063303,42.3463139 26.6766377,42.9159854 26.6766377,43.6186861 C26.6766377,44.3209489 26.1063303,44.8907299 25.4028453,44.8907299 L25.4028453,44.8907299 Z" id="Fill-3" fill="#FA8366" mask="url(#mask-2)"></path>
                        </g>
                        <path d="M35.9165371,31.2751095 C34.8824646,31.2751095 33.6176604,31.2459854 33.0773865,31.2340511 C32.9146138,31.230219 32.808839,31.2277007 32.779792,31.2277007 C31.9144112,31.2237591 31.1693835,30.9273723 30.5653159,30.3470803 C30.0750248,29.8757299 29.6006273,29.360365 29.1415754,28.8620803 C28.8816871,28.5802555 28.6132492,28.2885766 28.342619,28.005438 C28.0694678,27.7201095 27.8121006,27.4870073 27.5560487,27.2924453 C27.223817,27.0393066 26.8693342,26.9054015 26.5327181,26.9054015 C25.9756737,26.9054015 25.5167314,27.255219 25.2739425,27.8651825 C24.9952011,28.5686496 24.7811303,30.2863139 24.7730191,30.3924088 C24.7387108,30.8748175 24.4626,31.1228102 23.9291221,31.1519343 C23.5788045,31.1707664 23.2353925,31.1806204 22.9083125,31.1806204 C20.7996113,31.1806204 19.0197439,30.7768248 17.4658948,29.9454745 C15.8953848,29.1050365 14.4866611,27.8741606 13.1601457,26.1825547 C11.4842994,24.0458759 9.97550052,21.5691241 8.2670996,18.1518613 C8.18489116,17.9876277 6.87383102,15.1956569 6.74788769,14.880438 C6.71237365,14.7337226 6.69275323,14.4941606 6.81727161,14.4137956 C6.91197573,14.4048175 7.19970526,14.3898175 8.05938628,14.3898175 C9.49332064,14.3898175 11.6033372,14.4330657 11.7198539,14.4373358 C12.3106586,14.4689781 12.632258,14.7012044 12.8613455,15.265292 C13.862425,17.7335036 15.0535705,19.8151095 16.5041657,21.6285766 C16.7238267,21.9048175 17.0111177,22.1682482 17.3344709,22.3894161 C17.5613662,22.5446715 17.8045936,22.6267883 18.0378463,22.6267883 C18.4823199,22.6267883 18.8484215,22.3432117 19.0171132,21.8680292 C19.2111251,21.3270438 19.3669923,20.3317883 19.3767477,19.8040511 C19.4020679,18.5089051 19.3733498,17.6643066 19.3035274,16.3679562 C19.2380895,15.1691606 18.6673437,14.4531022 17.5609278,14.1845255 C17.8974343,13.8210219 18.3560478,13.7277372 19.0564636,13.6906204 C19.4487623,13.6695985 19.8777807,13.6593066 20.3679622,13.6593066 C20.823945,13.6593066 21.2902313,13.6679562 21.741172,13.6764964 C22.05751,13.6824088 22.3743961,13.6879927 22.6908438,13.6913869 C23.2131414,13.6960949 23.6657263,13.7414234 24.0755627,13.8313139 C24.3242706,13.8851825 24.6668058,14.0267518 24.7683058,14.6285036 C24.8201519,14.9338686 24.8428415,15.2302555 24.8363744,15.509562 C24.8235499,16.0830657 24.8038199,16.6664234 24.7854052,17.2306204 C24.7584408,18.0419343 24.7305995,18.8806204 24.721173,19.7082482 C24.7135002,20.3506204 24.7683058,20.9425182 24.8835072,21.4681752 C25.0363053,22.1580657 25.4504166,22.5694161 25.9920058,22.5694161 C26.219778,22.5694161 26.5687802,22.4890511 26.9387181,22.1058394 C27.5252479,21.4971898 28.0912804,20.7894526 28.7747066,19.8108394 C29.6660652,18.5337591 30.4364131,17.0437226 31.1981017,15.1220803 C31.4537151,14.4792701 31.5192626,14.4339416 32.2000581,14.4326277 C33.093609,14.4301095 33.9867214,14.4287956 34.8803819,14.4287956 C35.6643216,14.4287956 36.4482613,14.4301095 37.2323105,14.4326277 C37.5311108,14.4339416 37.7725844,14.464708 37.9699942,14.5271168 C38.1049257,14.570365 38.2217713,14.6327737 38.1571006,14.9181022 C37.9186962,15.9757664 37.3064077,16.8995255 36.7518844,17.6822628 C36.077556,18.6325182 35.3684808,19.5862774 34.6825336,20.5083942 C34.3215838,20.9938686 33.960634,21.4796715 33.6023148,21.9672263 C33.4712197,22.1460219 33.3449476,22.3457299 33.2057413,22.595146 C32.6975835,23.5137591 32.7780382,24.1583212 33.4927035,24.895292 C33.8723969,25.2866058 34.2672166,25.6714599 34.6486638,26.0431752 C35.1877319,26.5688321 35.7447763,27.1120073 36.2561127,27.6705109 C36.9025999,28.3779197 37.4715919,29.1174088 37.9473047,29.8671898 C38.1674041,30.2144891 38.2303209,30.5510584 38.1198328,30.7897445 C38.0132907,31.020219 37.739701,31.1779927 37.3495945,31.2331752 C37.2374622,31.2486131 36.9008461,31.2751095 35.9165371,31.2751095 L35.9165371,31.2751095 Z" id="Fill-5" fill="#FFB7A5"></path>
                        <path d="M35.9165371,32.5474818 C34.8734764,32.5474818 33.600561,32.5184672 33.057218,32.5059854 C32.9022277,32.5025912 32.8045641,32.500073 32.772448,32.500073 C31.5873312,32.4944891 30.5181831,32.0671533 29.6823973,31.2636131 C29.1617439,30.7631387 28.6748507,30.2345255 28.2042896,29.7234307 L28.1880672,29.7054745 C27.9376055,29.4339416 27.6785941,29.1528832 27.4216653,28.8843066 C27.1959757,28.6482482 26.9874952,28.4587226 26.785372,28.305219 C26.6685264,28.2158759 26.5824816,28.1858759 26.5465291,28.1790876 C26.5284432,28.1983577 26.4938061,28.2441241 26.4574152,28.335219 C26.284887,28.7709854 26.0832024,30.1028102 26.0425366,30.4979562 C25.9576975,31.6194526 25.1750732,32.3576277 23.9983964,32.4222263 C23.624622,32.4422628 23.2581916,32.4525547 22.9083125,32.4525547 C20.5842252,32.4525547 18.6073864,31.9991606 16.8646771,31.0668613 C15.1344636,30.1413504 13.5951928,28.8001095 12.157422,26.9669343 C10.4272085,24.7605109 8.87599009,22.2170803 7.12769067,18.719781 C7.05326463,18.5714234 5.71392478,15.7242701 5.5649631,15.3517883 C5.54304085,15.2961679 5.52462616,15.2392336 5.51048631,15.1810949 C5.32381835,14.4155474 5.55893448,13.7128467 6.12365163,13.3467153 C6.2958509,13.2350365 6.49227426,13.1666058 6.69702807,13.1474453 C6.77496167,13.1396715 7.01292769,13.1174453 8.05938628,13.1174453 C9.52762896,13.1174453 11.6393993,13.1615693 11.7643561,13.1658394 C11.7724673,13.1662774 11.7802497,13.1662774 11.788361,13.1670438 C12.8703336,13.225292 13.6286242,13.7705474 14.0414202,14.7871533 C14.9953669,17.1407299 16.126555,19.1184307 17.4988878,20.834781 C17.6024704,20.9656204 17.7360865,21.0960219 17.8850482,21.215365 C18.0006881,20.7748905 18.0965979,20.1162044 18.1029554,19.7809489 C18.1273987,18.5234672 18.0995574,17.7006569 18.0314889,16.4363869 C17.9924673,15.7229562 17.7514321,15.5403285 17.2599353,15.4209854 C16.8210518,15.314562 16.4716112,14.9839051 16.3415026,14.5524088 C16.2109556,14.1208029 16.3192515,13.6525182 16.6253958,13.3215328 C17.2886534,12.605146 18.1526093,12.465219 18.9883951,12.4207664 C19.4033832,12.3981022 19.8550912,12.3873723 20.3679622,12.3873723 C20.8380849,12.3873723 21.3090844,12.3959124 21.7646288,12.4048905 C22.0776785,12.4104745 22.3906186,12.4164964 22.7036683,12.4194526 C23.3125588,12.4250365 23.85075,12.4806569 24.3469602,12.5883942 C25.2494992,12.784708 25.8614588,13.4514964 26.0241219,14.4176277 C26.089231,14.8017153 26.1178395,15.1793431 26.1092898,15.5398905 C26.0964653,16.1087956 26.0776122,16.6856934 26.058759,17.2438686 L26.0578822,17.2728832 C26.0309178,18.084635 26.003515,18.9127007 25.9940884,19.7231387 C25.9881694,20.2406934 26.0279583,20.7123723 26.1126878,21.1273358 C26.619311,20.590073 27.122317,19.9532847 27.7298921,19.0833942 C28.5631569,17.8891971 29.2888929,16.4817153 30.0137521,14.6541241 C30.4620621,13.5259489 30.9925806,13.1632117 32.196989,13.1606934 C33.8763429,13.1564234 35.5564641,13.1551095 37.2357085,13.1606934 C37.6673576,13.1623358 38.0329111,13.2128102 38.3549489,13.315073 C39.1761564,13.5764234 39.5948714,14.3334307 39.3987768,15.1994891 C39.1089647,16.4842336 38.4165504,17.5342336 37.7906702,18.4174818 C37.1098747,19.3771533 36.3986074,20.3338686 35.7105775,21.2590511 C35.3449144,21.7508759 34.9852799,22.2345985 34.6286049,22.7199635 C34.5297356,22.8551825 34.4303182,23.0125182 34.3177474,23.214854 C34.0698068,23.6626642 34.1014844,23.6956204 34.4067517,24.0104015 C34.7750455,24.3892336 35.1625213,24.7674088 35.537611,25.1329927 C36.0924631,25.6740876 36.6615647,26.2287591 37.1959196,26.8125547 C37.8929375,27.5755839 38.5074182,28.3740876 39.0229199,29.1867153 C39.4789027,29.9064964 39.5709761,30.685292 39.2759026,31.3235036 C39.1055668,31.6912774 38.6525435,32.3332117 37.5281513,32.4927372 C37.3594596,32.5158394 37.0104573,32.5474818 35.9165371,32.5474818 L35.9165371,32.5474818 Z M26.5327181,25.6330292 C27.1510351,25.6330292 27.7718732,25.8571533 28.3284792,26.2809854 C28.6372541,26.515292 28.9433983,26.7925182 29.2632439,27.1264599 C29.5363951,27.4122263 29.8035177,27.7017153 30.0617618,27.9823358 L30.0784228,28.0007299 C30.5237733,28.4844526 30.9840309,28.9839416 31.4481249,29.430438 C31.8133496,29.7812409 32.2509177,29.9531387 32.7852725,29.9556569 C32.8166214,29.9556569 32.9309459,29.9582847 33.1064335,29.9625547 C33.6497765,29.9744891 34.9021946,30.0031752 35.9160986,30.0031752 C36.1511052,30.0031752 36.3451171,30.0014234 36.5035053,29.9993431 C36.1507763,29.4993066 35.7525587,29.0061679 35.3149906,28.5280292 C34.8307281,27.9985401 34.2881524,27.4694891 33.7636625,26.9579562 C33.3714735,26.5760584 32.9707348,26.1856204 32.5776688,25.7806204 C31.4678549,24.6360219 31.3090282,23.3927737 32.0908853,21.9792701 C32.2587001,21.6790511 32.4114982,21.4377372 32.5747093,21.214927 C32.9347823,20.724854 33.2973763,20.2372993 33.6600799,19.749635 C34.3455887,18.8276277 35.0481968,17.8824088 35.7123313,16.9466058 C35.9837288,16.5633942 36.2705814,16.1433942 36.5030669,15.7024818 C35.11495,15.6994161 33.7260659,15.7007299 32.3366337,15.7041241 C31.552146,17.6647445 30.7506685,19.2039416 29.8189729,20.5383942 C29.0957579,21.5745985 28.490375,22.3299635 27.8558355,22.9882117 C27.1746016,23.6934307 26.4664033,23.8414599 25.9920058,23.8414599 C24.8449241,23.8414599 23.9217781,23.0176642 23.6396388,21.7423358 C23.5030632,21.1208759 23.438831,20.4318613 23.4473807,19.6932482 C23.4568072,18.8557664 23.4850869,18.0136861 23.5120513,17.1989781 L23.5129282,17.16 C23.5313429,16.6082847 23.550196,16.0377372 23.5630205,15.4808759 C23.5664185,15.3367883 23.5583072,15.1840511 23.5390157,15.0258394 C23.2816484,14.9868613 22.9977553,14.9663869 22.6787866,14.9634307 C22.3572968,14.960365 22.0370127,14.9544526 21.7167286,14.9484307 C21.2444138,14.9394526 20.75204,14.9300365 20.2823558,14.9313504 C20.4480881,15.3372263 20.5469574,15.794781 20.5743602,16.2990876 C20.6462652,17.6270803 20.6754218,18.4935766 20.6493343,19.8287956 C20.6377155,20.4677737 20.4604741,21.6135766 20.2156026,22.2970073 C19.8648466,23.2837226 19.0299377,23.8987226 18.0375175,23.8987226 C17.545911,23.8987226 17.0535373,23.739635 16.6133385,23.4381022 C16.1873892,23.1468613 15.8046267,22.7944161 15.5065937,22.4201825 C13.9801475,20.5114599 12.7281678,18.3262774 11.6803939,15.7431022 C11.6753518,15.729854 11.6706385,15.7186861 11.6659252,15.7083942 C11.6650483,15.7083942 11.663733,15.7079562 11.6628561,15.7079562 C11.4689538,15.7029197 9.82390816,15.6699635 8.50429834,15.6630657 C8.89221255,16.4970438 9.34260517,17.455073 9.40683736,17.585146 C11.0745725,20.9216058 12.5414999,23.3315693 14.1621022,25.3977372 C15.3776909,26.9477737 16.6544427,28.0682847 18.0670029,28.8239781 C19.4307861,29.5540511 21.0141205,29.9086861 22.9078741,29.9086861 C23.1160258,29.9086861 23.3317408,29.9044161 23.5522786,29.8957664 C23.6358024,29.270146 23.821155,28.0738686 24.089593,27.3967883 C24.5297917,26.2920438 25.4426342,25.6330292 26.5327181,25.6330292 L26.5327181,25.6330292 Z" id="Fill-6" fill="#FA8366"></path>
                    </g>
                </g>
            </g>
        </g>
    </g>
</svg>