<?xml version="1.0" encoding="UTF-8" standalone="no"?>
<svg width="35px" height="41px" viewBox="0 0 35 41" version="1.1" xmlns="http://www.w3.org/2000/svg" xmlns:xlink="http://www.w3.org/1999/xlink">
    <!-- Generator: Sketch 40.1 (33804) - http://www.bohemiancoding.com/sketch -->
    <title>Sail Delivery</title>
    <desc>Created with Sketch.</desc>
    <defs></defs>
    <g id="Tablet-768" stroke="none" stroke-width="1" fill="none" fill-rule="evenodd">
        <g id="iPad-Portrait" transform="translate(-280.000000, -124.000000)">
            <g id="Header" transform="translate(0.000000, -1.000000)">
                <g id="Header-text" transform="translate(133.466667, 125.082857)">
                    <g id="Sail-delivery-white" transform="translate(147.000000, 0.000000)">
                        <g id="Sail-Delivery">
                            <g id="Sail">
                                <path d="M24.4458343,28.3647416 C24.3439586,24.0264549 23.0959813,10.7223754 11.7113727,1.0992666 C11.4312145,0.862632773 10.9982428,1.07297395 10.9982428,1.44107101 C10.9982428,5.49013866 10.3360508,22.1859696 0.0720747423,39.2761902 C-0.131676644,39.5917019 0.123012589,40.0123843 0.505046437,39.959799 C3.81600646,39.4865314 15.4807733,37.4357049 23.4270774,30.7047872 C24.1147383,30.126349 24.4713032,29.2586916 24.4458343,28.3647416 L24.4458343,28.3647416 Z" id="Shape-Copy" fill="#F9F3F3"></path>
                                <path d="M34.3806144,26.7311372 C34.071531,22.3999759 32.1140032,9.08957782 20.111267,0.0839314894 C19.8021837,-0.127344671 19.3900726,0.0839314894 19.4158295,0.45366477 C19.6218851,4.52073085 19.8021837,21.3171856 10.323628,38.9851545 C10.1433294,39.3284782 10.4266558,39.724621 10.787253,39.6453925 C14.1098989,38.9851545 25.7777948,36.2913834 33.4533644,29.107994 C34.1230449,28.500575 34.4321283,27.6290609 34.3806144,26.7311372 L34.3806144,26.7311372 Z" id="Shape-Copy-2" fill="#FFFFFF"></path>
                            </g>
                        </g>
                    </g>
                </g>
            </g>
        </g>
    </g>
</svg>