<?xml version="1.0" encoding="UTF-8" standalone="no"?>
<svg width="71px" height="80px" viewBox="0 0 71 80" version="1.1" xmlns="http://www.w3.org/2000/svg" xmlns:xlink="http://www.w3.org/1999/xlink">
    <!-- Generator: Sketch 40.1 (33804) - http://www.bohemiancoding.com/sketch -->
    <title>Group 13</title>
    <desc>Created with Sketch.</desc>
    <defs></defs>
    <g id="Page-1" stroke="none" stroke-width="1" fill="none" fill-rule="evenodd">
        <g id="Sail-Delivery-1" transform="translate(-531.000000, -226.000000)">
            <g id="Header">
                <g id="Group-2" transform="translate(314.000000, 226.000000)">
                    <g id="Group-7" transform="translate(217.000000, 0.000000)">
                        <g id="Group-5">
                            <g id="Sail">
                                <g id="Group-13">
                                    <path d="M49.9973916,56.7801799 C49.7890323,48.0958524 47.2366298,21.4639151 23.9524689,2.20049792 C23.3794806,1.72680734 22.4939532,2.14786564 22.4939532,2.88471766 C22.4939532,10.9900899 21.1396173,44.4115923 0.147409537,78.6225791 C-0.269309226,79.2541665 0.251589228,80.0962831 1.03293691,79.9910186 C7.80461682,79.0436374 31.661766,74.938319 47.9137978,61.4644534 C49.3202236,60.3065431 50.0494815,58.5696776 49.9973916,56.7801799 L49.9973916,56.7801799 Z" id="Shape" fill="#F3F3F3"></path>
                                    <path d="M70.3163174,53.5100512 C69.6841704,44.8399875 65.6805728,18.1954015 41.1321979,0.16801299 C40.5000509,-0.254916946 39.6571882,0.16801299 39.7098671,0.908140379 C40.1312985,9.04954165 40.5000509,42.6724716 21.1142098,78.0399875 C20.7454574,78.7272487 21.3249254,79.5202423 22.0624303,79.3616436 C28.8580104,78.0399875 52.7215594,72.6476308 68.4198764,58.268013 C69.7895282,57.0520894 70.4216752,55.3075034 70.3163174,53.5100512 L70.3163174,53.5100512 Z" id="Shape" fill="#FFFFFF"></path>
                                </g>
                            </g>
                        </g>
                    </g>
                </g>
            </g>
        </g>
    </g>
</svg>