<?xml version="1.0" encoding="UTF-8" standalone="no"?>
<svg width="36px" height="40px" viewBox="0 0 36 40" version="1.1" xmlns="http://www.w3.org/2000/svg" xmlns:xlink="http://www.w3.org/1999/xlink">
    <!-- Generator: Sketch 40.1 (33804) - http://www.bohemiancoding.com/sketch -->
    <title>Sail</title>
    <desc>Created with Sketch.</desc>
    <defs></defs>
    <g id="Page-1" stroke="none" stroke-width="1" fill="none" fill-rule="evenodd">
        <g id="Sail-Delivery-1" transform="translate(-141.000000, -38.000000)">
            <g id="Sail" transform="translate(141.000000, 38.000000)">
                <path d="M25.0726505,28.3900899 C24.9681627,24.0479262 23.688186,10.7319575 12.0116643,1.10024896 C11.7243226,0.86340367 11.280249,1.07393282 11.280249,1.44235883 C11.280249,5.49504495 10.6010778,22.2057962 0.0739228126,39.3112895 C-0.135052968,39.6270833 0.126166758,40.0481416 0.517996346,39.9955093 C3.91385278,39.5218187 15.8777162,37.4691595 24.0277716,30.7322267 C24.7330649,30.1532716 25.0987725,29.2848388 25.0726505,28.3900899 L25.0726505,28.3900899 Z" id="Shape-Copy" fill="#F8F3F3"></path>
                <path d="M35.2621686,26.7550256 C34.94516,22.4199938 32.9374392,9.09770076 20.6269405,0.0840064952 C20.309932,-0.127458473 19.8872539,0.0840064952 19.9136713,0.454070189 C20.1250103,4.52477083 20.309932,21.3362358 10.5883364,39.0199938 C10.4034148,39.3636243 10.6940059,39.7601211 11.0638493,39.6808218 C14.4716912,39.0199938 26.4387639,36.3238154 34.3111429,29.1340065 C34.9979948,28.5260447 35.3150033,27.6537517 35.2621686,26.7550256 L35.2621686,26.7550256 Z" id="Shape-Copy-2" fill="#FFFFFF"></path>
            </g>
        </g>
    </g>
</svg>